NotoSansMyanmar-SemiBold.ufo
<glyph name="question" format="2">
  <advance width="477"/>
  <unicode hex="003F"/>
  <outline>
    <contour>
      <point x="135" y="278" type="line"/>
      <point x="264" y="278" type="line"/>
      <point x="265" y="286" type="line" smooth="yes"/>
      <point x="267" y="305"/>
      <point x="277" y="323"/>
      <point x="336" y="366" type="curve" smooth="yes"/>
      <point x="414" y="423"/>
      <point x="453" y="465"/>
      <point x="453" y="547" type="curve" smooth="yes"/>
      <point x="453" y="650"/>
      <point x="373" y="724"/>
      <point x="234" y="724" type="curve" smooth="yes"/>
      <point x="143" y="724"/>
      <point x="68" y="699"/>
      <point x="3" y="663" type="curve"/>
      <point x="56" y="556" type="line"/>
      <point x="113" y="585"/>
      <point x="167" y="604"/>
      <point x="223" y="604" type="curve" smooth="yes"/>
      <point x="279" y="604"/>
      <point x="312" y="581"/>
      <point x="312" y="539" type="curve" smooth="yes"/>
      <point x="312" y="496"/>
      <point x="288" y="471"/>
      <point x="228" y="428" type="curve" smooth="yes"/>
      <point x="160" y="379"/>
      <point x="140" y="342"/>
      <point x="136" y="291" type="curve" smooth="yes"/>
    </contour>
    <contour>
      <point x="201" y="-9" type="curve" smooth="yes"/>
      <point x="277" y="-9"/>
      <point x="331" y="34"/>
      <point x="331" y="111" type="curve" smooth="yes"/>
      <point x="331" y="180"/>
      <point x="277" y="228"/>
      <point x="201" y="228" type="curve" smooth="yes"/>
      <point x="124" y="228"/>
      <point x="74" y="183"/>
      <point x="74" y="110" type="curve" smooth="yes"/>
      <point x="74" y="34"/>
      <point x="125" y="-9"/>
    </contour>
    <contour>
      <point x="203" y="69" type="curve" smooth="yes"/>
      <point x="176" y="69"/>
      <point x="163" y="85"/>
      <point x="163" y="110" type="curve" smooth="yes"/>
      <point x="163" y="137"/>
      <point x="180" y="151"/>
      <point x="203" y="151" type="curve" smooth="yes"/>
      <point x="226" y="151"/>
      <point x="243" y="137"/>
      <point x="243" y="110" type="curve" smooth="yes"/>
      <point x="243" y="85"/>
      <point x="226" y="69"/>
    </contour>
  </outline>
</glyph>
<glyph name="ka" format="2">
  <advance width="1110"/>
  <unicode hex="1000"/>
  <note>
ka
</note>
  <outline>
    <contour>
      <point x="190" y="-10" type="curve"/>
      <point x="265" y="110" type="line"/>
      <point x="214" y="160"/>
      <point x="197" y="210"/>
      <point x="197" y="273" type="curve" smooth="yes"/>
      <point x="197" y="370"/>
      <point x="254" y="436"/>
      <point x="340" y="436" type="curve" smooth="yes"/>
      <point x="426" y="436"/>
      <point x="484" y="372"/>
      <point x="484" y="273" type="curve" smooth="yes"/>
      <point x="484" y="212"/>
      <point x="464" y="155"/>
      <point x="404" y="110" type="curve"/>
      <point x="479" y="-10" type="line"/>
      <point x="572" y="44"/>
      <point x="622" y="142"/>
      <point x="622" y="273" type="curve" smooth="yes"/>
      <point x="622" y="445"/>
      <point x="517" y="556"/>
      <point x="336" y="556" type="curve" smooth="yes"/>
      <point x="162" y="556"/>
      <point x="45" y="441"/>
      <point x="45" y="273" type="curve" smooth="yes"/>
      <point x="45" y="136"/>
      <point x="106" y="39"/>
    </contour>
    <contour>
      <point x="801" y="-10" type="curve" smooth="yes"/>
      <point x="949" y="-10"/>
      <point x="1065" y="108"/>
      <point x="1065" y="273" type="curve" smooth="yes"/>
      <point x="1065" y="439"/>
      <point x="944" y="556"/>
      <point x="769" y="556" type="curve" smooth="yes"/>
      <point x="679" y="556"/>
      <point x="598" y="524"/>
      <point x="547" y="455" type="curve"/>
      <point x="610" y="328" type="line"/>
      <point x="634" y="385"/>
      <point x="682" y="436"/>
      <point x="761" y="436" type="curve" smooth="yes"/>
      <point x="851" y="436"/>
      <point x="913" y="373"/>
      <point x="913" y="273" type="curve" smooth="yes"/>
      <point x="913" y="179"/>
      <point x="864" y="117"/>
      <point x="786" y="117" type="curve" smooth="yes"/>
      <point x="754" y="117"/>
      <point x="738" y="122"/>
      <point x="709" y="133" type="curve"/>
      <point x="659" y="22" type="line"/>
      <point x="694" y="-1"/>
      <point x="753" y="-10"/>
    </contour>
  </outline>
</glyph>
<glyph name="kha" format="2">
  <advance width="699"/>
  <unicode hex="1001"/>
  <note>
kha
</note>
  <outline>
    <contour>
      <point x="332" y="-10" type="curve" smooth="yes"/>
      <point x="522" y="-10"/>
      <point x="654" y="93"/>
      <point x="654" y="273" type="curve" smooth="yes"/>
      <point x="654" y="447"/>
      <point x="531" y="556"/>
      <point x="340" y="556" type="curve" smooth="yes"/>
      <point x="225" y="556"/>
      <point x="144" y="532"/>
      <point x="57" y="489" type="curve"/>
      <point x="112" y="382" type="line"/>
      <point x="184" y="420"/>
      <point x="244" y="444"/>
      <point x="321" y="444" type="curve" smooth="yes"/>
      <point x="436" y="444"/>
      <point x="502" y="386"/>
      <point x="502" y="273" type="curve" smooth="yes"/>
      <point x="502" y="163"/>
      <point x="445" y="104"/>
      <point x="335" y="104" type="curve" smooth="yes"/>
      <point x="272" y="104"/>
      <point x="209" y="129"/>
      <point x="186" y="162" type="curve"/>
      <point x="238" y="184"/>
      <point x="293" y="196"/>
      <point x="344" y="196" type="curve" smooth="yes"/>
      <point x="394" y="196"/>
      <point x="441" y="179"/>
      <point x="492" y="155" type="curve"/>
      <point x="517" y="253" type="line"/>
      <point x="458" y="281"/>
      <point x="397" y="295"/>
      <point x="330" y="295" type="curve" smooth="yes"/>
      <point x="241" y="295"/>
      <point x="167" y="281"/>
      <point x="43" y="217" type="curve"/>
      <point x="64" y="77"/>
      <point x="177" y="-10"/>
    </contour>
  </outline>
</glyph>
<glyph name="ga" format="2">
  <advance width="689"/>
  <unicode hex="1002"/>
  <note>
ga
</note>
  <outline>
    <contour>
      <point x="191" y="-10" type="curve"/>
      <point x="266" y="110" type="line"/>
      <point x="214" y="160"/>
      <point x="197" y="210"/>
      <point x="197" y="273" type="curve" smooth="yes"/>
      <point x="197" y="369"/>
      <point x="256" y="436"/>
      <point x="344" y="436" type="curve" smooth="yes"/>
      <point x="432" y="436"/>
      <point x="492" y="372"/>
      <point x="492" y="273" type="curve" smooth="yes"/>
      <point x="492" y="212"/>
      <point x="475" y="160"/>
      <point x="423" y="110" type="curve"/>
      <point x="498" y="-10" type="line"/>
      <point x="583" y="39"/>
      <point x="644" y="136"/>
      <point x="644" y="273" type="curve" smooth="yes"/>
      <point x="644" y="443"/>
      <point x="526" y="556"/>
      <point x="345" y="556" type="curve" smooth="yes"/>
      <point x="164" y="556"/>
      <point x="45" y="443"/>
      <point x="45" y="273" type="curve" smooth="yes"/>
      <point x="45" y="136"/>
      <point x="106" y="39"/>
    </contour>
  </outline>
</glyph>
<glyph name="gha" format="2">
  <advance width="1111"/>
  <unicode hex="1003"/>
  <note>
gha
</note>
  <outline>
    <contour>
      <point x="321" y="-10" type="curve" smooth="yes"/>
      <point x="507" y="-10"/>
      <point x="622" y="94"/>
      <point x="622" y="272" type="curve" smooth="yes"/>
      <point x="622" y="418"/>
      <point x="562" y="507"/>
      <point x="479" y="556" type="curve"/>
      <point x="405" y="436" type="line"/>
      <point x="465" y="391"/>
      <point x="485" y="333"/>
      <point x="485" y="272" type="curve" smooth="yes"/>
      <point x="485" y="173"/>
      <point x="424" y="110"/>
      <point x="324" y="110" type="curve" smooth="yes"/>
      <point x="253" y="110"/>
      <point x="202" y="153"/>
      <point x="202" y="205" type="curve" smooth="yes"/>
      <point x="202" y="241"/>
      <point x="215" y="262"/>
      <point x="256" y="295" type="curve" smooth="yes"/>
      <point x="303" y="333"/>
      <point x="330" y="374"/>
      <point x="330" y="430" type="curve" smooth="yes"/>
      <point x="330" y="504"/>
      <point x="279" y="557"/>
      <point x="186" y="557" type="curve" smooth="yes"/>
      <point x="125" y="557"/>
      <point x="69" y="529"/>
      <point x="32" y="473" type="curve"/>
      <point x="107" y="396" type="line"/>
      <point x="124" y="411"/>
      <point x="147" y="426"/>
      <point x="168" y="426" type="curve" smooth="yes"/>
      <point x="184" y="426"/>
      <point x="191" y="420"/>
      <point x="191" y="409" type="curve" smooth="yes"/>
      <point x="191" y="387"/>
      <point x="166" y="377"/>
      <point x="125" y="342" type="curve" smooth="yes"/>
      <point x="80" y="303"/>
      <point x="51" y="258"/>
      <point x="51" y="196" type="curve" smooth="yes"/>
      <point x="51" y="71"/>
      <point x="162" y="-10"/>
    </contour>
    <contour>
      <point x="770" y="-10" type="curve" smooth="yes"/>
      <point x="950" y="-10"/>
      <point x="1066" y="98"/>
      <point x="1066" y="272" type="curve" smooth="yes"/>
      <point x="1066" y="437"/>
      <point x="949" y="556"/>
      <point x="791" y="556" type="curve" smooth="yes"/>
      <point x="753" y="556"/>
      <point x="691" y="544"/>
      <point x="660" y="524" type="curve"/>
      <point x="710" y="413" type="line"/>
      <point x="746" y="426"/>
      <point x="757" y="429"/>
      <point x="787" y="429" type="curve" smooth="yes"/>
      <point x="863" y="429"/>
      <point x="914" y="370"/>
      <point x="914" y="272" type="curve" smooth="yes"/>
      <point x="914" y="179"/>
      <point x="858" y="109"/>
      <point x="772" y="109" type="curve" smooth="yes"/>
      <point x="690" y="109"/>
      <point x="634" y="158"/>
      <point x="610" y="217" type="curve"/>
      <point x="549" y="88" type="line"/>
      <point x="586" y="37"/>
      <point x="656" y="-10"/>
    </contour>
  </outline>
</glyph>
<glyph name="nga" format="2">
  <advance width="661"/>
  <unicode hex="1004"/>
  <note>
nga
</note>
  <outline>
    <contour>
      <point x="353" y="-9" type="curve" smooth="yes"/>
      <point x="474" y="-9"/>
      <point x="575" y="50"/>
      <point x="618" y="131" type="curve"/>
      <point x="504" y="192" type="line"/>
      <point x="455" y="127"/>
      <point x="412" y="111"/>
      <point x="361" y="111" type="curve" smooth="yes"/>
      <point x="262" y="111"/>
      <point x="197" y="174"/>
      <point x="197" y="273" type="curve" smooth="yes"/>
      <point x="197" y="369"/>
      <point x="258" y="436"/>
      <point x="350" y="436" type="curve" smooth="yes"/>
      <point x="406" y="436"/>
      <point x="455" y="419"/>
      <point x="501" y="360" type="curve"/>
      <point x="605" y="424" type="line"/>
      <point x="564" y="505"/>
      <point x="463" y="556"/>
      <point x="353" y="556" type="curve" smooth="yes"/>
      <point x="171" y="556"/>
      <point x="45" y="441"/>
      <point x="45" y="273" type="curve" smooth="yes"/>
      <point x="45" y="106"/>
      <point x="171" y="-9"/>
    </contour>
  </outline>
</glyph>
<glyph name="ca" format="2">
  <advance width="698"/>
  <unicode hex="1005"/>
  <note>
ca
</note>
  <outline>
    <contour>
      <point x="350" y="-10" type="curve" smooth="yes"/>
      <point x="528" y="-10"/>
      <point x="653" y="105"/>
      <point x="653" y="273" type="curve" smooth="yes"/>
      <point x="653" y="435"/>
      <point x="533" y="556"/>
      <point x="350" y="556" type="curve" smooth="yes"/>
      <point x="170" y="556"/>
      <point x="45" y="441"/>
      <point x="45" y="273" type="curve" smooth="yes"/>
      <point x="45" y="105"/>
      <point x="170" y="-10"/>
    </contour>
    <contour>
      <point x="302" y="96" type="line"/>
      <point x="343" y="154"/>
      <point x="363" y="207"/>
      <point x="363" y="272" type="curve" smooth="yes"/>
      <point x="363" y="344"/>
      <point x="336" y="398"/>
      <point x="304" y="446" type="curve"/>
      <point x="215" y="409" type="line"/>
      <point x="242" y="372"/>
      <point x="265" y="333"/>
      <point x="265" y="276" type="curve" smooth="yes"/>
      <point x="265" y="215"/>
      <point x="245" y="177"/>
      <point x="212" y="135" type="curve"/>
    </contour>
    <contour>
      <point x="329" y="110" type="curve" smooth="yes"/>
      <point x="248" y="110"/>
      <point x="162" y="174"/>
      <point x="162" y="273" type="curve" smooth="yes"/>
      <point x="162" y="361"/>
      <point x="238" y="436"/>
      <point x="336" y="436" type="curve" smooth="yes"/>
      <point x="436" y="436"/>
      <point x="501" y="372"/>
      <point x="501" y="273" type="curve" smooth="yes"/>
      <point x="501" y="170"/>
      <point x="435" y="110"/>
    </contour>
  </outline>
</glyph>
<glyph name="ja" format="2">
  <advance width="698"/>
  <unicode hex="1007"/>
  <note>
ja
</note>
  <outline>
    <contour>
      <point x="376" y="-10" type="curve" smooth="yes"/>
      <point x="438" y="-10"/>
      <point x="496" y="-1"/>
      <point x="559" y="34" type="curve"/>
      <point x="468" y="131" type="line"/>
      <point x="436" y="115"/>
      <point x="411" y="110"/>
      <point x="376" y="110" type="curve" smooth="yes"/>
      <point x="255" y="110"/>
      <point x="197" y="176"/>
      <point x="197" y="273" type="curve" smooth="yes"/>
      <point x="197" y="369"/>
      <point x="258" y="436"/>
      <point x="350" y="436" type="curve" smooth="yes"/>
      <point x="375" y="436"/>
      <point x="405" y="436"/>
      <point x="412" y="436" type="curve"/>
      <point x="421" y="466" type="line"/>
      <point x="376" y="441"/>
      <point x="352" y="408"/>
      <point x="352" y="363" type="curve" smooth="yes"/>
      <point x="352" y="291"/>
      <point x="403" y="247"/>
      <point x="481" y="247" type="curve" smooth="yes"/>
      <point x="514" y="247"/>
      <point x="525" y="249"/>
      <point x="540" y="261" type="curve"/>
      <point x="517" y="264" type="line"/>
      <point x="521" y="219"/>
      <point x="540" y="176"/>
      <point x="636" y="176" type="curve" smooth="yes"/>
      <point x="676" y="176" type="line"/>
      <point x="676" y="294" type="line"/>
      <point x="633" y="294"/>
      <point x="611" y="305"/>
      <point x="611" y="335" type="curve" smooth="yes"/>
      <point x="611" y="353"/>
      <point x="614" y="358"/>
      <point x="614" y="384" type="curve" smooth="yes"/>
      <point x="614" y="473"/>
      <point x="528" y="556"/>
      <point x="362" y="556" type="curve" smooth="yes"/>
      <point x="165" y="556"/>
      <point x="45" y="439"/>
      <point x="45" y="273" type="curve" smooth="yes"/>
      <point x="45" y="91"/>
      <point x="178" y="-10"/>
    </contour>
    <contour>
      <point x="478" y="326" type="curve" smooth="yes"/>
      <point x="447" y="326"/>
      <point x="431" y="342"/>
      <point x="431" y="368" type="curve" smooth="yes"/>
      <point x="431" y="394"/>
      <point x="451" y="410"/>
      <point x="478" y="410" type="curve" smooth="yes"/>
      <point x="505" y="410"/>
      <point x="525" y="394"/>
      <point x="525" y="368" type="curve" smooth="yes"/>
      <point x="525" y="342"/>
      <point x="505" y="326"/>
    </contour>
  </outline>
</glyph>
<glyph name="jha" format="2">
  <advance width="915"/>
  <unicode hex="1008"/>
  <note>
jha
</note>
  <outline>
    <contour>
      <point x="602" y="-476" type="curve" smooth="yes"/>
      <point x="748" y="-476"/>
      <point x="837" y="-375"/>
      <point x="837" y="-214" type="curve" smooth="yes"/>
      <point x="837" y="547" type="line"/>
      <point x="686" y="547" type="line"/>
      <point x="686" y="-188" type="line" smooth="yes"/>
      <point x="686" y="-301"/>
      <point x="662" y="-349"/>
      <point x="605" y="-349" type="curve" smooth="yes"/>
      <point x="548" y="-349"/>
      <point x="523" y="-302"/>
      <point x="523" y="-189" type="curve" smooth="yes"/>
      <point x="523" y="68" type="line"/>
      <point x="372" y="8" type="line"/>
      <point x="372" y="-212" type="line" smooth="yes"/>
      <point x="372" y="-378"/>
      <point x="459" y="-476"/>
    </contour>
    <contour>
      <point x="335" y="-10" type="curve" smooth="yes"/>
      <point x="509" y="-10"/>
      <point x="620" y="105"/>
      <point x="620" y="273" type="curve" smooth="yes"/>
      <point x="620" y="435"/>
      <point x="513" y="556"/>
      <point x="335" y="556" type="curve" smooth="yes"/>
      <point x="170" y="556"/>
      <point x="45" y="441"/>
      <point x="45" y="273" type="curve" smooth="yes"/>
      <point x="45" y="105"/>
      <point x="170" y="-10"/>
    </contour>
    <contour>
      <point x="314" y="110" type="curve" smooth="yes"/>
      <point x="238" y="110"/>
      <point x="162" y="167"/>
      <point x="162" y="273" type="curve" smooth="yes"/>
      <point x="162" y="364"/>
      <point x="227" y="436"/>
      <point x="321" y="436" type="curve" smooth="yes"/>
      <point x="416" y="436"/>
      <point x="468" y="372"/>
      <point x="468" y="273" type="curve" smooth="yes"/>
      <point x="468" y="170"/>
      <point x="415" y="110"/>
    </contour>
    <contour>
      <point x="294" y="96" type="line"/>
      <point x="328" y="154"/>
      <point x="345" y="207"/>
      <point x="345" y="272" type="curve" smooth="yes"/>
      <point x="345" y="344"/>
      <point x="323" y="398"/>
      <point x="296" y="446" type="curve"/>
      <point x="207" y="409" type="line"/>
      <point x="229" y="372"/>
      <point x="247" y="333"/>
      <point x="247" y="276" type="curve" smooth="yes"/>
      <point x="247" y="215"/>
      <point x="231" y="177"/>
      <point x="204" y="135" type="curve"/>
    </contour>
  </outline>
</glyph>
<glyph name="nya" format="2">
  <advance width="660"/>
  <unicode hex="1009"/>
  <note>
nya
</note>
  <outline>
    <contour>
      <point x="296" y="-466" type="curve" smooth="yes"/>
      <point x="815" y="-466" type="line" smooth="yes"/>
      <point x="959" y="-466"/>
      <point x="1032" y="-394"/>
      <point x="1032" y="-246" type="curve" smooth="yes"/>
      <point x="1032" y="-221" type="line"/>
      <point x="882" y="-221" type="line"/>
      <point x="882" y="-261" type="line" smooth="yes"/>
      <point x="882" y="-312"/>
      <point x="862" y="-341"/>
      <point x="818" y="-341" type="curve" smooth="yes"/>
      <point x="294" y="-341" type="line" smooth="yes"/>
      <point x="255" y="-341"/>
      <point x="228" y="-320"/>
      <point x="228" y="-261" type="curve" smooth="yes"/>
      <point x="228" y="44" type="line"/>
      <point x="78" y="131" type="line"/>
      <point x="78" y="-248" type="line" smooth="yes"/>
      <point x="78" y="-393"/>
      <point x="151" y="-466"/>
    </contour>
    <contour>
      <point x="346" y="-9" type="curve" smooth="yes"/>
      <point x="499" y="-9"/>
      <point x="615" y="114"/>
      <point x="615" y="273" type="curve" smooth="yes"/>
      <point x="615" y="444"/>
      <point x="499" y="556"/>
      <point x="327" y="556" type="curve" smooth="yes"/>
      <point x="217" y="556"/>
      <point x="132" y="505"/>
      <point x="91" y="424" type="curve"/>
      <point x="195" y="360" type="line"/>
      <point x="241" y="419"/>
      <point x="274" y="436"/>
      <point x="330" y="436" type="curve" smooth="yes"/>
      <point x="409" y="436"/>
      <point x="463" y="371"/>
      <point x="463" y="273" type="curve" smooth="yes"/>
      <point x="463" y="173"/>
      <point x="404" y="111"/>
      <point x="319" y="111" type="curve" smooth="yes"/>
      <point x="268" y="111"/>
      <point x="241" y="127"/>
      <point x="192" y="192" type="curve"/>
      <point x="78" y="131" type="line"/>
      <point x="128" y="80"/>
      <point x="234" y="-9"/>
    </contour>
  </outline>
</glyph>
<glyph name="tta" format="2">
  <advance width="679"/>
  <unicode hex="100B"/>
  <note>
tta
</note>
  <outline>
    <contour>
      <point x="432" y="-466" type="line"/>
      <point x="678" y="-466" type="line"/>
      <point x="678" y="-346" type="line"/>
      <point x="582" y="-346" type="line"/>
      <point x="582" y="-170" type="line"/>
      <point x="502" y="-210"/>
      <point x="412" y="-234"/>
      <point x="320" y="-234" type="curve" smooth="yes"/>
      <point x="273" y="-234"/>
      <point x="244" y="-231"/>
      <point x="217" y="-225" type="curve"/>
      <point x="217" y="-164" type="line"/>
      <point x="250" y="-170"/>
      <point x="283" y="-171"/>
      <point x="316" y="-171" type="curve" smooth="yes"/>
      <point x="414" y="-171"/>
      <point x="510" y="-141"/>
      <point x="582" y="-96" type="curve"/>
      <point x="582" y="130" type="line"/>
      <point x="432" y="44" type="line"/>
      <point x="432" y="-36" type="line"/>
      <point x="407" y="-50"/>
      <point x="363" y="-61"/>
      <point x="295" y="-61" type="curve" smooth="yes"/>
      <point x="205" y="-61"/>
      <point x="120" y="-33"/>
      <point x="67" y="0" type="curve"/>
      <point x="67" y="-307" type="line"/>
      <point x="147" y="-335"/>
      <point x="229" y="-344"/>
      <point x="316" y="-344" type="curve" smooth="yes"/>
      <point x="355" y="-344"/>
      <point x="396" y="-339"/>
      <point x="432" y="-330" type="curve"/>
    </contour>
    <contour>
      <point x="314" y="-10" type="curve" smooth="yes"/>
      <point x="403" y="-10"/>
      <point x="469" y="44"/>
      <point x="582" y="130" type="curve"/>
      <point x="468" y="191" type="line"/>
      <point x="444" y="138"/>
      <point x="398" y="110"/>
      <point x="342" y="110" type="curve" smooth="yes"/>
      <point x="249" y="110"/>
      <point x="197" y="177"/>
      <point x="197" y="273" type="curve" smooth="yes"/>
      <point x="197" y="371"/>
      <point x="250" y="436"/>
      <point x="332" y="436" type="curve" smooth="yes"/>
      <point x="392" y="436"/>
      <point x="439" y="411"/>
      <point x="466" y="360" type="curve"/>
      <point x="571" y="425" type="line"/>
      <point x="538" y="502"/>
      <point x="449" y="556"/>
      <point x="333" y="556" type="curve" smooth="yes"/>
      <point x="162" y="556"/>
      <point x="45" y="439"/>
      <point x="45" y="273" type="curve" smooth="yes"/>
      <point x="45" y="114"/>
      <point x="149" y="-10"/>
    </contour>
  </outline>
</glyph>
<glyph name="ttha" format="2">
  <advance width="660"/>
  <unicode hex="100C"/>
  <note>
ttha
</note>
  <outline>
    <contour>
      <point x="259" y="-466" type="curve" smooth="yes"/>
      <point x="365" y="-466" type="line" smooth="yes"/>
      <point x="510" y="-466"/>
      <point x="582" y="-394"/>
      <point x="582" y="-251" type="curve" smooth="yes"/>
      <point x="582" y="130" type="line"/>
      <point x="433" y="8" type="line"/>
      <point x="433" y="-261" type="line" smooth="yes"/>
      <point x="433" y="-312"/>
      <point x="413" y="-341"/>
      <point x="369" y="-341" type="curve" smooth="yes"/>
      <point x="257" y="-341" type="line" smooth="yes"/>
      <point x="228" y="-341"/>
      <point x="196" y="-332"/>
      <point x="196" y="-302" type="curve" smooth="yes"/>
      <point x="196" y="-284"/>
      <point x="209" y="-269"/>
      <point x="242" y="-269" type="curve" smooth="yes"/>
      <point x="264" y="-269"/>
      <point x="284" y="-277"/>
      <point x="304" y="-289" type="curve"/>
      <point x="372" y="-187" type="line"/>
      <point x="333" y="-161"/>
      <point x="288" y="-143"/>
      <point x="215" y="-143" type="curve" smooth="yes"/>
      <point x="121" y="-143"/>
      <point x="45" y="-207"/>
      <point x="45" y="-301" type="curve" smooth="yes"/>
      <point x="45" y="-409"/>
      <point x="124" y="-466"/>
    </contour>
    <contour>
      <point x="314" y="-10" type="curve" smooth="yes"/>
      <point x="402" y="-10"/>
      <point x="468" y="-2"/>
      <point x="582" y="130" type="curve"/>
      <point x="468" y="191" type="line"/>
      <point x="444" y="138"/>
      <point x="398" y="110"/>
      <point x="342" y="110" type="curve" smooth="yes"/>
      <point x="249" y="110"/>
      <point x="197" y="177"/>
      <point x="197" y="273" type="curve" smooth="yes"/>
      <point x="197" y="371"/>
      <point x="250" y="436"/>
      <point x="332" y="436" type="curve" smooth="yes"/>
      <point x="392" y="436"/>
      <point x="439" y="411"/>
      <point x="466" y="360" type="curve"/>
      <point x="571" y="425" type="line"/>
      <point x="538" y="502"/>
      <point x="449" y="556"/>
      <point x="333" y="556" type="curve" smooth="yes"/>
      <point x="162" y="556"/>
      <point x="45" y="439"/>
      <point x="45" y="273" type="curve" smooth="yes"/>
      <point x="45" y="114"/>
      <point x="149" y="-10"/>
    </contour>
  </outline>
</glyph>
<glyph name="dda" format="2">
  <advance width="679"/>
  <unicode hex="100D"/>
  <note>
dda
</note>
  <outline>
    <contour>
      <point x="443" y="-466" type="line"/>
      <point x="689" y="-466" type="line"/>
      <point x="689" y="-346" type="line"/>
      <point x="593" y="-346" type="line"/>
      <point x="593" y="-1" type="line"/>
      <point x="540" y="-38"/>
      <point x="455" y="-70"/>
      <point x="365" y="-70" type="curve" smooth="yes"/>
      <point x="297" y="-70"/>
      <point x="253" y="-63"/>
      <point x="228" y="-55" type="curve"/>
      <point x="228" y="45" type="line"/>
      <point x="78" y="131" type="line"/>
      <point x="78" y="-149" type="line"/>
      <point x="150" y="-178"/>
      <point x="246" y="-198"/>
      <point x="344" y="-198" type="curve" smooth="yes"/>
      <point x="377" y="-198"/>
      <point x="410" y="-197"/>
      <point x="443" y="-191" type="curve"/>
    </contour>
    <contour>
      <point x="349" y="-9" type="curve" smooth="yes"/>
      <point x="514" y="-9"/>
      <point x="615" y="115"/>
      <point x="615" y="274" type="curve" smooth="yes"/>
      <point x="615" y="440"/>
      <point x="498" y="557"/>
      <point x="327" y="557" type="curve" smooth="yes"/>
      <point x="211" y="557"/>
      <point x="122" y="503"/>
      <point x="89" y="426" type="curve"/>
      <point x="194" y="361" type="line"/>
      <point x="221" y="412"/>
      <point x="268" y="437"/>
      <point x="328" y="437" type="curve" smooth="yes"/>
      <point x="410" y="437"/>
      <point x="463" y="372"/>
      <point x="463" y="274" type="curve" smooth="yes"/>
      <point x="463" y="178"/>
      <point x="411" y="111"/>
      <point x="318" y="111" type="curve" smooth="yes"/>
      <point x="262" y="111"/>
      <point x="216" y="139"/>
      <point x="192" y="192" type="curve"/>
      <point x="78" y="131" type="line"/>
      <point x="191" y="18"/>
      <point x="247" y="-9"/>
    </contour>
  </outline>
</glyph>
<glyph name="ddha" format="2">
  <advance width="712"/>
  <unicode hex="100E"/>
  <note>
ddha
</note>
  <outline>
    <contour>
      <point x="340" y="-10" type="curve" smooth="yes"/>
      <point x="523" y="-10"/>
      <point x="652" y="94"/>
      <point x="652" y="273" type="curve" smooth="yes"/>
      <point x="652" y="418"/>
      <point x="588" y="507"/>
      <point x="499" y="556" type="curve"/>
      <point x="425" y="436" type="line"/>
      <point x="492" y="391"/>
      <point x="515" y="334"/>
      <point x="515" y="273" type="curve" smooth="yes"/>
      <point x="515" y="173"/>
      <point x="451" y="110"/>
      <point x="340" y="110" type="curve" smooth="yes"/>
      <point x="253" y="110"/>
      <point x="202" y="153"/>
      <point x="202" y="205" type="curve" smooth="yes"/>
      <point x="202" y="241"/>
      <point x="215" y="262"/>
      <point x="256" y="295" type="curve" smooth="yes"/>
      <point x="303" y="333"/>
      <point x="330" y="374"/>
      <point x="330" y="430" type="curve" smooth="yes"/>
      <point x="330" y="504"/>
      <point x="279" y="557"/>
      <point x="186" y="557" type="curve" smooth="yes"/>
      <point x="125" y="557"/>
      <point x="69" y="529"/>
      <point x="32" y="473" type="curve"/>
      <point x="107" y="396" type="line"/>
      <point x="124" y="411"/>
      <point x="147" y="426"/>
      <point x="168" y="426" type="curve" smooth="yes"/>
      <point x="184" y="426"/>
      <point x="191" y="420"/>
      <point x="191" y="409" type="curve" smooth="yes"/>
      <point x="191" y="387"/>
      <point x="166" y="377"/>
      <point x="125" y="342" type="curve" smooth="yes"/>
      <point x="80" y="303"/>
      <point x="51" y="258"/>
      <point x="51" y="196" type="curve" smooth="yes"/>
      <point x="51" y="71"/>
      <point x="162" y="-10"/>
    </contour>
  </outline>
</glyph>
<glyph name="nna" format="2">
  <advance width="1354"/>
  <unicode hex="100F"/>
  <note>
nna
</note>
  <outline>
    <contour>
      <point x="677" y="-8" type="curve" smooth="yes"/>
      <point x="784" y="-8"/>
      <point x="853" y="51"/>
      <point x="853" y="147" type="curve" smooth="yes"/>
      <point x="853" y="190"/>
      <point x="840" y="223"/>
      <point x="840" y="265" type="curve" smooth="yes"/>
      <point x="840" y="370"/>
      <point x="902" y="437"/>
      <point x="1002" y="437" type="curve" smooth="yes"/>
      <point x="1092" y="437"/>
      <point x="1156" y="375"/>
      <point x="1156" y="273" type="curve" smooth="yes"/>
      <point x="1156" y="174"/>
      <point x="1100" y="118"/>
      <point x="1025" y="118" type="curve" smooth="yes"/>
      <point x="1000" y="118"/>
      <point x="981" y="119"/>
      <point x="959" y="129" type="curve"/>
      <point x="925" y="9" type="line"/>
      <point x="962" y="-5"/>
      <point x="991" y="-9"/>
      <point x="1041" y="-9" type="curve" smooth="yes"/>
      <point x="1195" y="-9"/>
      <point x="1309" y="113"/>
      <point x="1309" y="273" type="curve" smooth="yes"/>
      <point x="1309" y="437"/>
      <point x="1183" y="556"/>
      <point x="1006" y="556" type="curve" smooth="yes"/>
      <point x="841" y="556"/>
      <point x="720" y="453"/>
      <point x="720" y="283" type="curve" smooth="yes"/>
      <point x="720" y="233"/>
      <point x="732" y="220"/>
      <point x="732" y="169" type="curve" smooth="yes"/>
      <point x="732" y="135"/>
      <point x="713" y="116"/>
      <point x="678" y="116" type="curve" smooth="yes"/>
      <point x="640" y="116"/>
      <point x="622" y="136"/>
      <point x="622" y="169" type="curve" smooth="yes"/>
      <point x="622" y="223"/>
      <point x="633" y="226"/>
      <point x="633" y="283" type="curve" smooth="yes"/>
      <point x="633" y="451"/>
      <point x="514" y="556"/>
      <point x="347" y="556" type="curve" smooth="yes"/>
      <point x="171" y="556"/>
      <point x="45" y="442"/>
      <point x="45" y="273" type="curve" smooth="yes"/>
      <point x="45" y="113"/>
      <point x="159" y="-9"/>
      <point x="313" y="-9" type="curve" smooth="yes"/>
      <point x="362" y="-9"/>
      <point x="394" y="-6"/>
      <point x="428" y="8" type="curve"/>
      <point x="393" y="128" type="line"/>
      <point x="372" y="119"/>
      <point x="353" y="118"/>
      <point x="329" y="118" type="curve" smooth="yes"/>
      <point x="254" y="118"/>
      <point x="197" y="177"/>
      <point x="197" y="273" type="curve" smooth="yes"/>
      <point x="197" y="373"/>
      <point x="260" y="436"/>
      <point x="352" y="436" type="curve" smooth="yes"/>
      <point x="448" y="436"/>
      <point x="512" y="370"/>
      <point x="512" y="265" type="curve" smooth="yes"/>
      <point x="512" y="223"/>
      <point x="500" y="190"/>
      <point x="500" y="147" type="curve" smooth="yes"/>
      <point x="500" y="49"/>
      <point x="571" y="-8"/>
    </contour>
    <contour>
      <point x="605" y="394" type="line"/>
      <point x="614" y="422"/>
      <point x="638" y="435"/>
      <point x="678" y="435" type="curve" smooth="yes"/>
      <point x="708" y="435"/>
      <point x="742" y="423"/>
      <point x="748" y="392" type="curve"/>
      <point x="824" y="483" type="line"/>
      <point x="793" y="522"/>
      <point x="747" y="556"/>
      <point x="678" y="556" type="curve" smooth="yes"/>
      <point x="615" y="556"/>
      <point x="572" y="534"/>
      <point x="525" y="480" type="curve"/>
    </contour>
  </outline>
</glyph>
<glyph name="ta" format="2">
  <advance width="1109"/>
  <unicode hex="1010"/>
  <note>
ta
</note>
  <outline>
    <contour>
      <point x="340" y="-10" type="curve" smooth="yes"/>
      <point x="511" y="-10"/>
      <point x="619" y="106"/>
      <point x="619" y="273" type="curve" smooth="yes"/>
      <point x="619" y="434"/>
      <point x="520" y="556"/>
      <point x="340" y="556" type="curve" smooth="yes"/>
      <point x="170" y="556"/>
      <point x="45" y="441"/>
      <point x="45" y="273" type="curve" smooth="yes"/>
      <point x="45" y="105"/>
      <point x="170" y="-10"/>
    </contour>
    <contour>
      <point x="339" y="110" type="curve" smooth="yes"/>
      <point x="256" y="110"/>
      <point x="197" y="177"/>
      <point x="197" y="273" type="curve" smooth="yes"/>
      <point x="197" y="370"/>
      <point x="257" y="436"/>
      <point x="339" y="436" type="curve" smooth="yes"/>
      <point x="428" y="436"/>
      <point x="482" y="373"/>
      <point x="482" y="273" type="curve" smooth="yes"/>
      <point x="482" y="176"/>
      <point x="430" y="110"/>
    </contour>
    <contour>
      <point x="789" y="-10" type="curve" smooth="yes"/>
      <point x="947" y="-10"/>
      <point x="1064" y="109"/>
      <point x="1064" y="274" type="curve" smooth="yes"/>
      <point x="1064" y="448"/>
      <point x="948" y="556"/>
      <point x="768" y="556" type="curve" smooth="yes"/>
      <point x="654" y="556"/>
      <point x="584" y="509"/>
      <point x="547" y="458" type="curve"/>
      <point x="608" y="329" type="line"/>
      <point x="632" y="388"/>
      <point x="688" y="437"/>
      <point x="770" y="437" type="curve" smooth="yes"/>
      <point x="856" y="437"/>
      <point x="912" y="367"/>
      <point x="912" y="274" type="curve" smooth="yes"/>
      <point x="912" y="176"/>
      <point x="861" y="117"/>
      <point x="785" y="117" type="curve" smooth="yes"/>
      <point x="756" y="117"/>
      <point x="745" y="120"/>
      <point x="710" y="133" type="curve"/>
      <point x="660" y="22" type="line"/>
      <point x="691" y="2"/>
      <point x="752" y="-10"/>
    </contour>
  </outline>
</glyph>
<glyph name="da" format="2">
  <advance width="665"/>
  <unicode hex="1012"/>
  <note>
da
</note>
  <outline>
    <contour>
      <point x="339" y="-10" type="curve" smooth="yes"/>
      <point x="531" y="-10"/>
      <point x="620" y="52"/>
      <point x="620" y="150" type="curve" smooth="yes"/>
      <point x="620" y="230"/>
      <point x="560" y="267"/>
      <point x="468" y="282" type="curve"/>
      <point x="468" y="287" type="line"/>
      <point x="552" y="310"/>
      <point x="587" y="347"/>
      <point x="587" y="407" type="curve" smooth="yes"/>
      <point x="587" y="503"/>
      <point x="498" y="556"/>
      <point x="319" y="556" type="curve" smooth="yes"/>
      <point x="160" y="556"/>
      <point x="63" y="494"/>
      <point x="63" y="400" type="curve" smooth="yes"/>
      <point x="63" y="365"/>
      <point x="77" y="330"/>
      <point x="105" y="306" type="curve"/>
      <point x="207" y="364" type="line"/>
      <point x="193" y="380"/>
      <point x="191" y="384"/>
      <point x="191" y="400" type="curve" smooth="yes"/>
      <point x="191" y="432"/>
      <point x="265" y="446"/>
      <point x="324" y="446" type="curve" smooth="yes"/>
      <point x="385" y="446"/>
      <point x="452" y="438"/>
      <point x="452" y="395" type="curve" smooth="yes"/>
      <point x="452" y="355"/>
      <point x="397" y="339"/>
      <point x="336" y="339" type="curve" smooth="yes"/>
      <point x="318" y="339" type="line"/>
      <point x="318" y="233" type="line"/>
      <point x="344" y="233" type="line" smooth="yes"/>
      <point x="424" y="233"/>
      <point x="471" y="216"/>
      <point x="471" y="175" type="curve" smooth="yes"/>
      <point x="471" y="132"/>
      <point x="413" y="104"/>
      <point x="346" y="104" type="curve" smooth="yes"/>
      <point x="240" y="104"/>
      <point x="173" y="146"/>
      <point x="130" y="215" type="curve"/>
      <point x="23" y="156" type="line"/>
      <point x="70" y="49"/>
      <point x="181" y="-10"/>
    </contour>
  </outline>
</glyph>
<glyph name="dha" format="2">
  <advance width="698"/>
  <unicode hex="1013"/>
  <note>
dha
</note>
  <outline>
    <contour>
      <point x="205" y="160" type="line"/>
      <point x="245" y="180"/>
      <point x="287" y="196"/>
      <point x="348" y="196" type="curve" smooth="yes"/>
      <point x="412" y="196"/>
      <point x="451" y="183"/>
      <point x="495" y="162" type="curve"/>
      <point x="527" y="245" type="line"/>
      <point x="469" y="278"/>
      <point x="417" y="295"/>
      <point x="352" y="295" type="curve" smooth="yes"/>
      <point x="278" y="295"/>
      <point x="222" y="272"/>
      <point x="173" y="245" type="curve"/>
    </contour>
    <contour>
      <point x="350" y="-10" type="curve" smooth="yes"/>
      <point x="528" y="-10"/>
      <point x="653" y="105"/>
      <point x="653" y="273" type="curve" smooth="yes"/>
      <point x="653" y="435"/>
      <point x="533" y="556"/>
      <point x="350" y="556" type="curve" smooth="yes"/>
      <point x="170" y="556"/>
      <point x="45" y="441"/>
      <point x="45" y="273" type="curve" smooth="yes"/>
      <point x="45" y="105"/>
      <point x="170" y="-10"/>
    </contour>
    <contour>
      <point x="348" y="104" type="curve" smooth="yes"/>
      <point x="237" y="104"/>
      <point x="189" y="173"/>
      <point x="189" y="273" type="curve" smooth="yes"/>
      <point x="189" y="370"/>
      <point x="252" y="436"/>
      <point x="349" y="436" type="curve" smooth="yes"/>
      <point x="444" y="436"/>
      <point x="509" y="373"/>
      <point x="509" y="273" type="curve" smooth="yes"/>
      <point x="509" y="172"/>
      <point x="459" y="104"/>
    </contour>
  </outline>
</glyph>
<glyph name="na" format="2">
  <advance width="561"/>
  <unicode hex="1014"/>
  <note>
na
</note>
  <outline>
    <contour>
      <point x="214" y="-466" type="line"/>
      <point x="323" y="-466" type="line"/>
      <point x="323" y="9" type="line" smooth="yes"/>
      <point x="323" y="175"/>
      <point x="248" y="244"/>
      <point x="160" y="244" type="curve" smooth="yes"/>
      <point x="76" y="244"/>
      <point x="19" y="192"/>
      <point x="19" y="128" type="curve" smooth="yes"/>
      <point x="19" y="45"/>
      <point x="84" y="-8"/>
      <point x="244" y="-8" type="curve" smooth="yes"/>
      <point x="285" y="-8" type="line" smooth="yes"/>
      <point x="467" y="-6"/>
      <point x="528" y="67"/>
      <point x="528" y="162" type="curve" smooth="yes"/>
      <point x="528" y="268"/>
      <point x="470" y="302"/>
      <point x="356" y="347" type="curve" smooth="yes"/>
      <point x="305" y="367"/>
      <point x="262" y="383"/>
      <point x="262" y="412" type="curve" smooth="yes"/>
      <point x="262" y="435"/>
      <point x="283" y="446"/>
      <point x="306" y="446" type="curve" smooth="yes"/>
      <point x="335" y="446"/>
      <point x="382" y="428"/>
      <point x="409" y="396" type="curve"/>
      <point x="486" y="482" type="line"/>
      <point x="434" y="532"/>
      <point x="371" y="557"/>
      <point x="296" y="557" type="curve" smooth="yes"/>
      <point x="195" y="557"/>
      <point x="120" y="497"/>
      <point x="120" y="413" type="curve" smooth="yes"/>
      <point x="120" y="343"/>
      <point x="157" y="304"/>
      <point x="251" y="264" type="curve" smooth="yes"/>
      <point x="326" y="232"/>
      <point x="386" y="208"/>
      <point x="386" y="160" type="curve" smooth="yes"/>
      <point x="386" y="103"/>
      <point x="313" y="91"/>
      <point x="232" y="90" type="curve" smooth="yes"/>
      <point x="226" y="90" type="line" smooth="yes"/>
      <point x="147" y="90"/>
      <point x="110" y="99"/>
      <point x="110" y="135" type="curve" smooth="yes"/>
      <point x="110" y="155"/>
      <point x="126" y="171"/>
      <point x="148" y="171" type="curve" smooth="yes"/>
      <point x="199" y="171"/>
      <point x="214" y="112"/>
      <point x="214" y="8" type="curve" smooth="yes"/>
    </contour>
  </outline>
</glyph>
<glyph name="pa" format="2">
  <advance width="698"/>
  <unicode hex="1015"/>
  <note>
pa
</note>
  <outline>
    <contour>
      <point x="350" y="-10" type="curve" smooth="yes"/>
      <point x="536" y="-10"/>
      <point x="653" y="105"/>
      <point x="653" y="273" type="curve" smooth="yes"/>
      <point x="653" y="410"/>
      <point x="591" y="507"/>
      <point x="505" y="556" type="curve"/>
      <point x="430" y="436" type="line"/>
      <point x="484" y="386"/>
      <point x="501" y="333"/>
      <point x="501" y="273" type="curve" smooth="yes"/>
      <point x="501" y="174"/>
      <point x="438" y="110"/>
      <point x="349" y="110" type="curve" smooth="yes"/>
      <point x="258" y="110"/>
      <point x="197" y="177"/>
      <point x="197" y="273" type="curve" smooth="yes"/>
      <point x="197" y="336"/>
      <point x="215" y="386"/>
      <point x="268" y="436" type="curve"/>
      <point x="193" y="556" type="line"/>
      <point x="107" y="507"/>
      <point x="45" y="410"/>
      <point x="45" y="273" type="curve" smooth="yes"/>
      <point x="45" y="104"/>
      <point x="164" y="-10"/>
    </contour>
  </outline>
</glyph>
<glyph name="pha" format="2">
  <advance width="697"/>
  <unicode hex="1016"/>
  <note>
pha
</note>
  <outline>
    <contour>
      <point x="348" y="-10" type="curve" smooth="yes"/>
      <point x="533" y="-10"/>
      <point x="652" y="104"/>
      <point x="652" y="273" type="curve" smooth="yes"/>
      <point x="652" y="400"/>
      <point x="581" y="507"/>
      <point x="462" y="556" type="curve"/>
      <point x="389" y="480"/>
      <point x="341" y="399"/>
      <point x="341" y="288" type="curve" smooth="yes"/>
      <point x="341" y="218"/>
      <point x="362" y="157"/>
      <point x="397" y="99" type="curve"/>
      <point x="485" y="144" type="line"/>
      <point x="452" y="190"/>
      <point x="431" y="237"/>
      <point x="431" y="288" type="curve" smooth="yes"/>
      <point x="431" y="342"/>
      <point x="449" y="377"/>
      <point x="476" y="410" type="curve"/>
      <point x="517" y="369"/>
      <point x="530" y="327"/>
      <point x="530" y="276" type="curve" smooth="yes"/>
      <point x="530" y="183"/>
      <point x="445" y="110"/>
      <point x="360" y="110" type="curve" smooth="yes"/>
      <point x="260" y="110"/>
      <point x="197" y="170"/>
      <point x="197" y="273" type="curve" smooth="yes"/>
      <point x="197" y="333"/>
      <point x="215" y="386"/>
      <point x="268" y="436" type="curve"/>
      <point x="193" y="556" type="line"/>
      <point x="107" y="507"/>
      <point x="45" y="410"/>
      <point x="45" y="273" type="curve" smooth="yes"/>
      <point x="45" y="105"/>
      <point x="162" y="-10"/>
    </contour>
  </outline>
</glyph>
<glyph name="ba" format="2">
  <advance width="701"/>
  <unicode hex="1017"/>
  <note>
ba
</note>
  <outline>
    <contour>
      <point x="350" y="-10" type="curve" smooth="yes"/>
      <point x="536" y="-10"/>
      <point x="653" y="105"/>
      <point x="653" y="273" type="curve" smooth="yes"/>
      <point x="653" y="411"/>
      <point x="608" y="509"/>
      <point x="546" y="558" type="curve"/>
      <point x="441" y="448" type="line"/>
      <point x="487" y="394"/>
      <point x="501" y="337"/>
      <point x="501" y="273" type="curve" smooth="yes"/>
      <point x="501" y="174"/>
      <point x="438" y="110"/>
      <point x="349" y="110" type="curve" smooth="yes"/>
      <point x="258" y="110"/>
      <point x="197" y="177"/>
      <point x="197" y="273" type="curve" smooth="yes"/>
      <point x="197" y="341"/>
      <point x="213" y="394"/>
      <point x="260" y="448" type="curve"/>
      <point x="154" y="556" type="line"/>
      <point x="91" y="507"/>
      <point x="45" y="410"/>
      <point x="45" y="273" type="curve" smooth="yes"/>
      <point x="45" y="104"/>
      <point x="164" y="-10"/>
    </contour>
    <contour>
      <point x="350" y="279" type="curve" smooth="yes"/>
      <point x="464" y="279"/>
      <point x="557" y="373"/>
      <point x="557" y="490" type="curve" smooth="yes"/>
      <point x="557" y="514"/>
      <point x="553" y="537"/>
      <point x="546" y="558" type="curve"/>
      <point x="437" y="498" type="line"/>
      <point x="439" y="490"/>
      <point x="439" y="483"/>
      <point x="439" y="475" type="curve" smooth="yes"/>
      <point x="439" y="431"/>
      <point x="401" y="404"/>
      <point x="350" y="404" type="curve" smooth="yes"/>
      <point x="297" y="404"/>
      <point x="260" y="433"/>
      <point x="260" y="475" type="curve" smooth="yes"/>
      <point x="260" y="482"/>
      <point x="260" y="488"/>
      <point x="264" y="495" type="curve"/>
      <point x="154" y="556" type="line"/>
      <point x="147" y="536"/>
      <point x="144" y="514"/>
      <point x="144" y="492" type="curve" smooth="yes"/>
      <point x="144" y="374"/>
      <point x="236" y="279"/>
    </contour>
  </outline>
</glyph>
<glyph name="bha" format="2">
  <advance width="1111"/>
  <unicode hex="1018"/>
  <note>
bha
</note>
  <outline>
    <contour>
      <point x="307" y="-9" type="curve" smooth="yes"/>
      <point x="490" y="-9"/>
      <point x="605" y="106"/>
      <point x="605" y="273" type="curve" smooth="yes"/>
      <point x="605" y="441"/>
      <point x="483" y="556"/>
      <point x="307" y="556" type="curve" smooth="yes"/>
      <point x="197" y="556"/>
      <point x="96" y="505"/>
      <point x="55" y="424" type="curve"/>
      <point x="159" y="360" type="line"/>
      <point x="205" y="419"/>
      <point x="254" y="436"/>
      <point x="310" y="436" type="curve" smooth="yes"/>
      <point x="402" y="436"/>
      <point x="463" y="369"/>
      <point x="463" y="273" type="curve" smooth="yes"/>
      <point x="463" y="174"/>
      <point x="398" y="111"/>
      <point x="299" y="111" type="curve" smooth="yes"/>
      <point x="248" y="111"/>
      <point x="205" y="127"/>
      <point x="156" y="192" type="curve"/>
      <point x="42" y="131" type="line"/>
      <point x="85" y="50"/>
      <point x="186" y="-9"/>
    </contour>
    <contour>
      <point x="789" y="-10" type="curve" smooth="yes"/>
      <point x="949" y="-10"/>
      <point x="1065" y="108"/>
      <point x="1065" y="273" type="curve" smooth="yes"/>
      <point x="1065" y="439"/>
      <point x="944" y="556"/>
      <point x="758" y="556" type="curve" smooth="yes"/>
      <point x="654" y="556"/>
      <point x="576" y="515"/>
      <point x="529" y="459" type="curve"/>
      <point x="592" y="332" type="line"/>
      <point x="619" y="387"/>
      <point x="673" y="436"/>
      <point x="757" y="436" type="curve" smooth="yes"/>
      <point x="851" y="436"/>
      <point x="913" y="373"/>
      <point x="913" y="273" type="curve" smooth="yes"/>
      <point x="913" y="179"/>
      <point x="864" y="117"/>
      <point x="774" y="117" type="curve" smooth="yes"/>
      <point x="748" y="117"/>
      <point x="729" y="122"/>
      <point x="695" y="133" type="curve"/>
      <point x="645" y="22" type="line"/>
      <point x="683" y="-1"/>
      <point x="748" y="-10"/>
    </contour>
  </outline>
</glyph>
<glyph name="ma" format="2">
  <advance width="697"/>
  <unicode hex="1019"/>
  <note>
ma
</note>
  <outline>
    <contour>
      <point x="350" y="-10" type="curve" smooth="yes"/>
      <point x="536" y="-10"/>
      <point x="653" y="105"/>
      <point x="653" y="273" type="curve" smooth="yes"/>
      <point x="653" y="410"/>
      <point x="591" y="507"/>
      <point x="505" y="556" type="curve"/>
      <point x="430" y="436" type="line"/>
      <point x="489" y="386"/>
      <point x="508" y="333"/>
      <point x="508" y="273" type="curve" smooth="yes"/>
      <point x="508" y="155"/>
      <point x="447" y="103"/>
      <point x="348" y="103" type="curve" smooth="yes"/>
      <point x="247" y="103"/>
      <point x="190" y="161"/>
      <point x="190" y="273" type="curve" smooth="yes"/>
      <point x="190" y="336"/>
      <point x="210" y="386"/>
      <point x="268" y="436" type="curve"/>
      <point x="193" y="556" type="line"/>
      <point x="107" y="507"/>
      <point x="45" y="410"/>
      <point x="45" y="273" type="curve" smooth="yes"/>
      <point x="45" y="104"/>
      <point x="164" y="-10"/>
    </contour>
    <contour>
      <point x="205" y="160" type="line"/>
      <point x="245" y="180"/>
      <point x="287" y="196"/>
      <point x="348" y="196" type="curve" smooth="yes"/>
      <point x="412" y="196"/>
      <point x="451" y="183"/>
      <point x="495" y="162" type="curve"/>
      <point x="527" y="245" type="line"/>
      <point x="469" y="278"/>
      <point x="417" y="295"/>
      <point x="352" y="295" type="curve" smooth="yes"/>
      <point x="278" y="295"/>
      <point x="222" y="272"/>
      <point x="173" y="245" type="curve"/>
    </contour>
  </outline>
</glyph>
<glyph name="ya" format="2">
  <advance width="1110"/>
  <unicode hex="101A"/>
  <note>
ya
</note>
  <outline>
    <contour>
      <point x="336" y="-10" type="curve" smooth="yes"/>
      <point x="521" y="-10"/>
      <point x="622" y="105"/>
      <point x="622" y="273" type="curve" smooth="yes"/>
      <point x="622" y="413"/>
      <point x="564" y="506"/>
      <point x="478" y="556" type="curve"/>
      <point x="403" y="436" type="line"/>
      <point x="463" y="393"/>
      <point x="484" y="333"/>
      <point x="484" y="273" type="curve" smooth="yes"/>
      <point x="484" y="174"/>
      <point x="428" y="110"/>
      <point x="340" y="110" type="curve" smooth="yes"/>
      <point x="258" y="110"/>
      <point x="197" y="177"/>
      <point x="197" y="273" type="curve" smooth="yes"/>
      <point x="197" y="336"/>
      <point x="215" y="386"/>
      <point x="268" y="436" type="curve"/>
      <point x="193" y="556" type="line"/>
      <point x="107" y="507"/>
      <point x="45" y="410"/>
      <point x="45" y="273" type="curve" smooth="yes"/>
      <point x="45" y="104"/>
      <point x="164" y="-10"/>
    </contour>
    <contour>
      <point x="770" y="-10" type="curve" smooth="yes"/>
      <point x="950" y="-10"/>
      <point x="1066" y="98"/>
      <point x="1066" y="272" type="curve" smooth="yes"/>
      <point x="1066" y="437"/>
      <point x="949" y="556"/>
      <point x="791" y="556" type="curve" smooth="yes"/>
      <point x="753" y="556"/>
      <point x="691" y="544"/>
      <point x="660" y="524" type="curve"/>
      <point x="710" y="413" type="line"/>
      <point x="746" y="426"/>
      <point x="757" y="429"/>
      <point x="787" y="429" type="curve" smooth="yes"/>
      <point x="863" y="429"/>
      <point x="914" y="370"/>
      <point x="914" y="272" type="curve" smooth="yes"/>
      <point x="914" y="179"/>
      <point x="858" y="109"/>
      <point x="772" y="109" type="curve" smooth="yes"/>
      <point x="690" y="109"/>
      <point x="634" y="158"/>
      <point x="610" y="217" type="curve"/>
      <point x="549" y="88" type="line"/>
      <point x="586" y="37"/>
      <point x="656" y="-10"/>
    </contour>
  </outline>
</glyph>
<glyph name="la" format="2">
  <advance width="1110"/>
  <unicode hex="101C"/>
  <note>
la
</note>
  <outline>
    <contour>
      <point x="315" y="-10" type="curve" smooth="yes"/>
      <point x="365" y="-10"/>
      <point x="425" y="-1"/>
      <point x="462" y="22" type="curve"/>
      <point x="411" y="133" type="line"/>
      <point x="382" y="123"/>
      <point x="364" y="117"/>
      <point x="331" y="117" type="curve" smooth="yes"/>
      <point x="250" y="117"/>
      <point x="197" y="177"/>
      <point x="197" y="273" type="curve" smooth="yes"/>
      <point x="197" y="362"/>
      <point x="237" y="428"/>
      <point x="315" y="428" type="curve" smooth="yes"/>
      <point x="390" y="428"/>
      <point x="442" y="382"/>
      <point x="494" y="227" type="curve" smooth="yes"/>
      <point x="546" y="72"/>
      <point x="636" y="-9"/>
      <point x="791" y="-9" type="curve" smooth="yes"/>
      <point x="960" y="-9"/>
      <point x="1065" y="115"/>
      <point x="1065" y="273" type="curve" smooth="yes"/>
      <point x="1065" y="453"/>
      <point x="965" y="556"/>
      <point x="795" y="556" type="curve" smooth="yes"/>
      <point x="746" y="556"/>
      <point x="686" y="547"/>
      <point x="648" y="524" type="curve"/>
      <point x="700" y="413" type="line"/>
      <point x="728" y="423"/>
      <point x="745" y="429"/>
      <point x="779" y="429" type="curve" smooth="yes"/>
      <point x="865" y="429"/>
      <point x="914" y="361"/>
      <point x="914" y="273" type="curve" smooth="yes"/>
      <point x="914" y="181"/>
      <point x="868" y="118"/>
      <point x="795" y="118" type="curve" smooth="yes"/>
      <point x="719" y="118"/>
      <point x="672" y="166"/>
      <point x="616" y="321" type="curve" smooth="yes"/>
      <point x="559" y="479"/>
      <point x="474" y="556"/>
      <point x="320" y="556" type="curve" smooth="yes"/>
      <point x="153" y="556"/>
      <point x="45" y="433"/>
      <point x="45" y="273" type="curve" smooth="yes"/>
      <point x="45" y="94"/>
      <point x="146" y="-10"/>
    </contour>
  </outline>
</glyph>
<glyph name="sa" format="2">
  <advance width="1114"/>
  <unicode hex="101E"/>
  <note>
sa
</note>
  <outline>
    <contour>
      <point x="308" y="-10" type="curve" smooth="yes"/>
      <point x="528" y="-10"/>
      <point x="610" y="137"/>
      <point x="610" y="273" type="curve" smooth="yes"/>
      <point x="610" y="441"/>
      <point x="485" y="556"/>
      <point x="306" y="556" type="curve" smooth="yes"/>
      <point x="196" y="556"/>
      <point x="96" y="506"/>
      <point x="55" y="424" type="curve"/>
      <point x="159" y="360" type="line"/>
      <point x="206" y="420"/>
      <point x="252" y="436"/>
      <point x="308" y="436" type="curve" smooth="yes"/>
      <point x="398" y="436"/>
      <point x="458" y="369"/>
      <point x="458" y="273" type="curve" smooth="yes"/>
      <point x="458" y="174"/>
      <point x="396" y="110"/>
      <point x="297" y="110" type="curve" smooth="yes"/>
      <point x="239" y="110"/>
      <point x="192" y="138"/>
      <point x="157" y="191" type="curve"/>
      <point x="43" y="130" type="line"/>
      <point x="83" y="52"/>
      <point x="183" y="-10"/>
    </contour>
    <contour>
      <point x="764" y="-10" type="curve" smooth="yes"/>
      <point x="945" y="-10"/>
      <point x="1069" y="108"/>
      <point x="1069" y="273" type="curve" smooth="yes"/>
      <point x="1069" y="438"/>
      <point x="948" y="556"/>
      <point x="797" y="556" type="curve" smooth="yes"/>
      <point x="748" y="556"/>
      <point x="688" y="547"/>
      <point x="650" y="524" type="curve"/>
      <point x="702" y="413" type="line"/>
      <point x="737" y="425"/>
      <point x="750" y="429"/>
      <point x="782" y="429" type="curve" smooth="yes"/>
      <point x="865" y="429"/>
      <point x="917" y="367"/>
      <point x="917" y="273" type="curve" smooth="yes"/>
      <point x="917" y="178"/>
      <point x="857" y="110"/>
      <point x="757" y="110" type="curve" smooth="yes"/>
      <point x="680" y="110"/>
      <point x="619" y="161"/>
      <point x="598" y="217" type="curve"/>
      <point x="534" y="92" type="line"/>
      <point x="577" y="31"/>
      <point x="658" y="-10"/>
    </contour>
  </outline>
</glyph>
<glyph name="ha" format="2">
  <advance width="1109"/>
  <unicode hex="101F"/>
  <note>
ha
</note>
  <outline>
    <contour>
      <point x="337" y="-10" type="curve" smooth="yes"/>
      <point x="516" y="-10"/>
      <point x="629" y="104"/>
      <point x="629" y="273" type="curve" smooth="yes"/>
      <point x="629" y="385"/>
      <point x="583" y="501"/>
      <point x="487" y="556" type="curve"/>
      <point x="412" y="436" type="line"/>
      <point x="457" y="389"/>
      <point x="477" y="345"/>
      <point x="477" y="273" type="curve" smooth="yes"/>
      <point x="477" y="174"/>
      <point x="419" y="110"/>
      <point x="336" y="110" type="curve" smooth="yes"/>
      <point x="253" y="110"/>
      <point x="197" y="177"/>
      <point x="197" y="273" type="curve" smooth="yes"/>
      <point x="197" y="345"/>
      <point x="220" y="393"/>
      <point x="262" y="436" type="curve"/>
      <point x="188" y="556" type="line"/>
      <point x="105" y="507"/>
      <point x="45" y="410"/>
      <point x="45" y="273" type="curve" smooth="yes"/>
      <point x="45" y="104"/>
      <point x="159" y="-10"/>
    </contour>
    <contour>
      <point x="805" y="-10" type="curve" smooth="yes"/>
      <point x="953" y="-10"/>
      <point x="1064" y="109"/>
      <point x="1064" y="273" type="curve" smooth="yes"/>
      <point x="1064" y="439"/>
      <point x="946" y="556"/>
      <point x="772" y="556" type="curve" smooth="yes"/>
      <point x="677" y="556"/>
      <point x="596" y="517"/>
      <point x="565" y="467" type="curve"/>
      <point x="617" y="328" type="line"/>
      <point x="640" y="387"/>
      <point x="688" y="436"/>
      <point x="765" y="436" type="curve" smooth="yes"/>
      <point x="854" y="436"/>
      <point x="912" y="372"/>
      <point x="912" y="273" type="curve" smooth="yes"/>
      <point x="912" y="181"/>
      <point x="867" y="117"/>
      <point x="789" y="117" type="curve" smooth="yes"/>
      <point x="757" y="117"/>
      <point x="741" y="123"/>
      <point x="715" y="133" type="curve"/>
      <point x="664" y="22" type="line"/>
      <point x="703" y="-1"/>
      <point x="744" y="-10"/>
    </contour>
  </outline>
</glyph>
<glyph name="lla" format="2">
  <advance width="679"/>
  <unicode hex="1020"/>
  <note>
lla
</note>
  <outline>
    <contour>
      <point x="265" y="-466" type="curve" smooth="yes"/>
      <point x="385" y="-466" type="line" smooth="yes"/>
      <point x="529" y="-466"/>
      <point x="584" y="-406"/>
      <point x="584" y="-258" type="curve" smooth="yes"/>
      <point x="584" y="-238" type="line"/>
      <point x="469" y="-238" type="line"/>
      <point x="469" y="-286" type="line" smooth="yes"/>
      <point x="469" y="-349"/>
      <point x="446" y="-374"/>
      <point x="403" y="-374" type="curve" smooth="yes"/>
      <point x="255" y="-374" type="line" smooth="yes"/>
      <point x="215" y="-374"/>
      <point x="187" y="-358"/>
      <point x="187" y="-286" type="curve" smooth="yes"/>
      <point x="187" y="-91" type="line"/>
      <point x="230" y="-100"/>
      <point x="273" y="-106"/>
      <point x="334" y="-106" type="curve" smooth="yes"/>
      <point x="414" y="-106"/>
      <point x="510" y="-87"/>
      <point x="582" y="-49" type="curve"/>
      <point x="582" y="183" type="line"/>
      <point x="432" y="97" type="line"/>
      <point x="432" y="17" type="line"/>
      <point x="407" y="3"/>
      <point x="363" y="-8"/>
      <point x="295" y="-8" type="curve" smooth="yes"/>
      <point x="205" y="-8"/>
      <point x="120" y="20"/>
      <point x="67" y="53" type="curve"/>
      <point x="67" y="-248" type="line" smooth="yes"/>
      <point x="67" y="-412"/>
      <point x="120" y="-466"/>
    </contour>
    <contour>
      <point x="314" y="43" type="curve" smooth="yes"/>
      <point x="414" y="43"/>
      <point x="491" y="93"/>
      <point x="582" y="183" type="curve"/>
      <point x="468" y="244" type="line"/>
      <point x="444" y="191"/>
      <point x="398" y="163"/>
      <point x="342" y="163" type="curve" smooth="yes"/>
      <point x="249" y="163"/>
      <point x="197" y="215"/>
      <point x="197" y="291" type="curve" smooth="yes"/>
      <point x="197" y="389"/>
      <point x="250" y="436"/>
      <point x="332" y="436" type="curve" smooth="yes"/>
      <point x="392" y="436"/>
      <point x="439" y="411"/>
      <point x="466" y="360" type="curve"/>
      <point x="571" y="425" type="line"/>
      <point x="538" y="502"/>
      <point x="449" y="556"/>
      <point x="333" y="556" type="curve" smooth="yes"/>
      <point x="162" y="556"/>
      <point x="45" y="451"/>
      <point x="45" y="291" type="curve" smooth="yes"/>
      <point x="45" y="151"/>
      <point x="149" y="43"/>
    </contour>
  </outline>
</glyph>
<glyph name="a_m" format="2">
  <advance width="1014"/>
  <unicode hex="1021"/>
  <note>
a_m
</note>
  <outline>
    <contour>
      <point x="301" y="-10" type="curve" smooth="yes"/>
      <point x="469" y="-10"/>
      <point x="547" y="53"/>
      <point x="547" y="151" type="curve" smooth="yes"/>
      <point x="547" y="231"/>
      <point x="494" y="267"/>
      <point x="414" y="282" type="curve"/>
      <point x="414" y="287" type="line"/>
      <point x="485" y="307"/>
      <point x="517" y="346"/>
      <point x="517" y="403" type="curve" smooth="yes"/>
      <point x="517" y="497"/>
      <point x="453" y="556"/>
      <point x="285" y="556" type="curve" smooth="yes"/>
      <point x="146" y="556"/>
      <point x="63" y="493"/>
      <point x="63" y="400" type="curve" smooth="yes"/>
      <point x="63" y="365"/>
      <point x="77" y="330"/>
      <point x="105" y="306" type="curve"/>
      <point x="207" y="364" type="line"/>
      <point x="193" y="380"/>
      <point x="191" y="384"/>
      <point x="191" y="400" type="curve" smooth="yes"/>
      <point x="191" y="432"/>
      <point x="240" y="446"/>
      <point x="289" y="446" type="curve" smooth="yes"/>
      <point x="349" y="446"/>
      <point x="383" y="431"/>
      <point x="383" y="395" type="curve" smooth="yes"/>
      <point x="383" y="363"/>
      <point x="356" y="339"/>
      <point x="296" y="339" type="curve" smooth="yes"/>
      <point x="282" y="339" type="line"/>
      <point x="282" y="234" type="line"/>
      <point x="302" y="234" type="line" smooth="yes"/>
      <point x="362" y="234"/>
      <point x="398" y="216"/>
      <point x="398" y="176" type="curve" smooth="yes"/>
      <point x="398" y="133"/>
      <point x="352" y="105"/>
      <point x="300" y="105" type="curve" smooth="yes"/>
      <point x="215" y="105"/>
      <point x="165" y="148"/>
      <point x="130" y="215" type="curve"/>
      <point x="23" y="156" type="line"/>
      <point x="65" y="49"/>
      <point x="162" y="-10"/>
    </contour>
    <contour>
      <point x="681" y="-10" type="curve" smooth="yes"/>
      <point x="851" y="-10"/>
      <point x="969" y="104"/>
      <point x="969" y="273" type="curve" smooth="yes"/>
      <point x="969" y="439"/>
      <point x="851" y="556"/>
      <point x="679" y="556" type="curve" smooth="yes"/>
      <point x="589" y="556"/>
      <point x="521" y="526"/>
      <point x="471" y="492" type="curve"/>
      <point x="504" y="378" type="line"/>
      <point x="548" y="416"/>
      <point x="614" y="436"/>
      <point x="676" y="436" type="curve" smooth="yes"/>
      <point x="790" y="436"/>
      <point x="851" y="368"/>
      <point x="851" y="274" type="curve" smooth="yes"/>
      <point x="851" y="167"/>
      <point x="784" y="108"/>
      <point x="689" y="108" type="curve" smooth="yes"/>
      <point x="673" y="108"/>
      <point x="657" y="108"/>
      <point x="641" y="108" type="curve"/>
      <point x="678" y="54" type="line"/>
      <point x="686" y="180"/>
      <point x="756" y="249"/>
      <point x="869" y="259" type="curve"/>
      <point x="856" y="348" type="line"/>
      <point x="655" y="310"/>
      <point x="578" y="205"/>
      <point x="575" y="6" type="curve"/>
      <point x="611" y="-5"/>
      <point x="646" y="-10"/>
    </contour>
  </outline>
</glyph>
<glyph name="i_m" format="2">
  <advance width="1088"/>
  <unicode hex="1023"/>
  <note>
i_m
</note>
  <outline>
    <contour>
      <point x="185" y="-10" type="curve"/>
      <point x="260" y="110" type="line"/>
      <point x="212" y="161"/>
      <point x="197" y="210"/>
      <point x="197" y="273" type="curve" smooth="yes"/>
      <point x="197" y="370"/>
      <point x="251" y="436"/>
      <point x="332" y="436" type="curve" smooth="yes"/>
      <point x="413" y="436"/>
      <point x="468" y="372"/>
      <point x="468" y="273" type="curve" smooth="yes"/>
      <point x="468" y="121" type="line"/>
      <point x="620" y="121" type="line"/>
      <point x="620" y="273" type="line" smooth="yes"/>
      <point x="620" y="365"/>
      <point x="671" y="436"/>
      <point x="755" y="436" type="curve" smooth="yes"/>
      <point x="837" y="436"/>
      <point x="891" y="370"/>
      <point x="891" y="273" type="curve" smooth="yes"/>
      <point x="891" y="214"/>
      <point x="875" y="161"/>
      <point x="828" y="110" type="curve"/>
      <point x="903" y="-10" type="line"/>
      <point x="984" y="39"/>
      <point x="1043" y="136"/>
      <point x="1043" y="273" type="curve" smooth="yes"/>
      <point x="1043" y="441"/>
      <point x="932" y="556"/>
      <point x="756" y="556" type="curve" smooth="yes"/>
      <point x="652" y="556"/>
      <point x="557" y="508"/>
      <point x="528" y="413" type="curve"/>
      <point x="563" y="415" type="line"/>
      <point x="536" y="506"/>
      <point x="440" y="556"/>
      <point x="333" y="556" type="curve" smooth="yes"/>
      <point x="159" y="556"/>
      <point x="45" y="443"/>
      <point x="45" y="273" type="curve" smooth="yes"/>
      <point x="45" y="136"/>
      <point x="104" y="39"/>
    </contour>
    <contour>
      <point x="808" y="-466" type="line"/>
      <point x="976" y="-466" type="line"/>
      <point x="976" y="-367" type="line"/>
      <point x="888" y="-367" type="line"/>
      <point x="906" y="-333"/>
      <point x="913" y="-305"/>
      <point x="913" y="-256" type="curve" smooth="yes"/>
      <point x="913" y="-140"/>
      <point x="829" y="-47"/>
      <point x="700" y="-47" type="curve" smooth="yes"/>
      <point x="618" y="-47"/>
      <point x="545" y="-87"/>
      <point x="526" y="-177" type="curve"/>
      <point x="564" y="-180" type="line"/>
      <point x="537" y="-84"/>
      <point x="464" y="-47"/>
      <point x="388" y="-47" type="curve" smooth="yes"/>
      <point x="259" y="-47"/>
      <point x="172" y="-139"/>
      <point x="172" y="-266" type="curve" smooth="yes"/>
      <point x="172" y="-368"/>
      <point x="216" y="-440"/>
      <point x="277" y="-476" type="curve"/>
      <point x="337" y="-381" type="line"/>
      <point x="301" y="-345"/>
      <point x="291" y="-308"/>
      <point x="291" y="-265" type="curve" smooth="yes"/>
      <point x="291" y="-189"/>
      <point x="333" y="-143"/>
      <point x="387" y="-143" type="curve" smooth="yes"/>
      <point x="443" y="-143"/>
      <point x="483" y="-190"/>
      <point x="483" y="-266" type="curve" smooth="yes"/>
      <point x="483" y="-377" type="line"/>
      <point x="602" y="-377" type="line"/>
      <point x="602" y="-266" type="line" smooth="yes"/>
      <point x="602" y="-192"/>
      <point x="640" y="-143"/>
      <point x="698" y="-143" type="curve" smooth="yes"/>
      <point x="753" y="-143"/>
      <point x="794" y="-194"/>
      <point x="794" y="-255" type="curve" smooth="yes"/>
      <point x="794" y="-308"/>
      <point x="783" y="-335"/>
      <point x="748" y="-371" type="curve"/>
    </contour>
  </outline>
</glyph>
<glyph name="ii" format="2">
  <advance width="1393"/>
  <unicode hex="1024"/>
  <note>
ii
</note>
  <outline>
    <contour>
      <point x="279" y="-466" type="curve" smooth="yes"/>
      <point x="784" y="-466" type="line" smooth="yes"/>
      <point x="929" y="-466"/>
      <point x="1001" y="-394"/>
      <point x="1001" y="-250" type="curve" smooth="yes"/>
      <point x="1001" y="261" type="line" smooth="yes"/>
      <point x="1001" y="427"/>
      <point x="913" y="556"/>
      <point x="746" y="556" type="curve" smooth="yes"/>
      <point x="666" y="556"/>
      <point x="583" y="516"/>
      <point x="545" y="454" type="curve"/>
      <point x="600" y="349" type="line"/>
      <point x="627" y="388"/>
      <point x="664" y="429"/>
      <point x="726" y="429" type="curve" smooth="yes"/>
      <point x="812" y="429"/>
      <point x="852" y="361"/>
      <point x="852" y="258" type="curve" smooth="yes"/>
      <point x="852" y="-262" type="line" smooth="yes"/>
      <point x="852" y="-312"/>
      <point x="831" y="-340"/>
      <point x="789" y="-340" type="curve" smooth="yes"/>
      <point x="279" y="-340" type="line" smooth="yes"/>
      <point x="231" y="-340"/>
      <point x="199" y="-329"/>
      <point x="199" y="-302" type="curve" smooth="yes"/>
      <point x="199" y="-262"/>
      <point x="256" y="-242"/>
      <point x="370" y="-242" type="curve" smooth="yes"/>
      <point x="498" y="-242"/>
      <point x="604" y="-249"/>
      <point x="678" y="-289" type="curve"/>
      <point x="746" y="-187" type="line"/>
      <point x="650" y="-130"/>
      <point x="523" y="-115"/>
      <point x="370" y="-115" type="curve" smooth="yes"/>
      <point x="155" y="-115"/>
      <point x="48" y="-183"/>
      <point x="48" y="-301" type="curve" smooth="yes"/>
      <point x="48" y="-409"/>
      <point x="117" y="-466"/>
    </contour>
    <contour>
      <point x="185" y="-10" type="curve"/>
      <point x="260" y="110" type="line"/>
      <point x="212" y="161"/>
      <point x="197" y="210"/>
      <point x="197" y="273" type="curve" smooth="yes"/>
      <point x="197" y="369"/>
      <point x="250" y="436"/>
      <point x="332" y="436" type="curve" smooth="yes"/>
      <point x="416" y="436"/>
      <point x="468" y="367"/>
      <point x="468" y="273" type="curve" smooth="yes"/>
      <point x="468" y="201"/>
      <point x="446" y="153"/>
      <point x="405" y="110" type="curve"/>
      <point x="480" y="-10" type="line"/>
      <point x="562" y="39"/>
      <point x="620" y="134"/>
      <point x="620" y="273" type="curve" smooth="yes"/>
      <point x="620" y="439"/>
      <point x="508" y="557"/>
      <point x="333" y="557" type="curve" smooth="yes"/>
      <point x="157" y="557"/>
      <point x="45" y="437"/>
      <point x="45" y="273" type="curve" smooth="yes"/>
      <point x="45" y="136"/>
      <point x="104" y="39"/>
    </contour>
    <contour>
      <point x="1163" y="-466" type="line"/>
      <point x="1314" y="-466" type="line"/>
      <point x="1314" y="276" type="line" smooth="yes"/>
      <point x="1314" y="480"/>
      <point x="1258" y="586"/>
      <point x="1098" y="716" type="curve" smooth="yes"/>
      <point x="1058" y="748"/>
      <point x="1038" y="781"/>
      <point x="1038" y="815" type="curve" smooth="yes"/>
      <point x="1038" y="855"/>
      <point x="1071" y="884"/>
      <point x="1107" y="884" type="curve" smooth="yes"/>
      <point x="1154" y="884"/>
      <point x="1180" y="852"/>
      <point x="1207" y="796" type="curve"/>
      <point x="1315" y="854" type="line"/>
      <point x="1278" y="950"/>
      <point x="1208" y="1004"/>
      <point x="1102" y="1004" type="curve" smooth="yes"/>
      <point x="978" y="1004"/>
      <point x="892" y="922"/>
      <point x="892" y="817" type="curve" smooth="yes"/>
      <point x="892" y="735"/>
      <point x="920" y="676"/>
      <point x="1021" y="597" type="curve" smooth="yes"/>
      <point x="1123" y="517"/>
      <point x="1163" y="425"/>
      <point x="1163" y="281" type="curve" smooth="yes"/>
    </contour>
  </outline>
</glyph>
<glyph name="u_m" format="2">
  <advance width="663"/>
  <unicode hex="1025"/>
  <note>
u_m
</note>
  <outline>
    <contour>
      <point x="295" y="-466" type="curve" smooth="yes"/>
      <point x="401" y="-466" type="line" smooth="yes"/>
      <point x="536" y="-466"/>
      <point x="615" y="-409"/>
      <point x="615" y="-301" type="curve" smooth="yes"/>
      <point x="615" y="-207"/>
      <point x="539" y="-143"/>
      <point x="445" y="-143" type="curve" smooth="yes"/>
      <point x="372" y="-143"/>
      <point x="327" y="-161"/>
      <point x="288" y="-187" type="curve"/>
      <point x="356" y="-289" type="line"/>
      <point x="376" y="-277"/>
      <point x="396" y="-269"/>
      <point x="418" y="-269" type="curve" smooth="yes"/>
      <point x="451" y="-269"/>
      <point x="464" y="-284"/>
      <point x="464" y="-302" type="curve" smooth="yes"/>
      <point x="464" y="-332"/>
      <point x="432" y="-341"/>
      <point x="403" y="-341" type="curve" smooth="yes"/>
      <point x="291" y="-341" type="line" smooth="yes"/>
      <point x="247" y="-341"/>
      <point x="227" y="-312"/>
      <point x="227" y="-261" type="curve" smooth="yes"/>
      <point x="227" y="8" type="line"/>
      <point x="78" y="130" type="line"/>
      <point x="78" y="-251" type="line" smooth="yes"/>
      <point x="78" y="-394"/>
      <point x="150" y="-466"/>
    </contour>
    <contour>
      <point x="346" y="-10" type="curve" smooth="yes"/>
      <point x="511" y="-10"/>
      <point x="615" y="114"/>
      <point x="615" y="273" type="curve" smooth="yes"/>
      <point x="615" y="439"/>
      <point x="498" y="556"/>
      <point x="327" y="556" type="curve" smooth="yes"/>
      <point x="211" y="556"/>
      <point x="122" y="502"/>
      <point x="89" y="425" type="curve"/>
      <point x="194" y="360" type="line"/>
      <point x="221" y="411"/>
      <point x="268" y="436"/>
      <point x="328" y="436" type="curve" smooth="yes"/>
      <point x="410" y="436"/>
      <point x="463" y="371"/>
      <point x="463" y="273" type="curve" smooth="yes"/>
      <point x="463" y="177"/>
      <point x="411" y="110"/>
      <point x="318" y="110" type="curve" smooth="yes"/>
      <point x="262" y="110"/>
      <point x="216" y="138"/>
      <point x="192" y="191" type="curve"/>
      <point x="78" y="130" type="line"/>
      <point x="192" y="-2"/>
      <point x="258" y="-10"/>
    </contour>
  </outline>
</glyph>
<glyph name="e_m" format="2">
  <advance width="630"/>
  <unicode hex="1027"/>
  <note>
e_m
</note>
  <outline>
    <contour>
      <point x="333" y="-10" type="curve" smooth="yes"/>
      <point x="466" y="-10"/>
      <point x="569" y="67"/>
      <point x="587" y="189" type="curve"/>
      <point x="517" y="228"/>
      <point x="447" y="252"/>
      <point x="342" y="252" type="curve" smooth="yes"/>
      <point x="274" y="252"/>
      <point x="232" y="241"/>
      <point x="195" y="227" type="curve"/>
      <point x="191" y="241"/>
      <point x="189" y="256"/>
      <point x="189" y="273" type="curve" smooth="yes"/>
      <point x="189" y="291"/>
      <point x="192" y="309"/>
      <point x="195" y="319" type="curve"/>
      <point x="242" y="301"/>
      <point x="293" y="294"/>
      <point x="342" y="294" type="curve" smooth="yes"/>
      <point x="445" y="294"/>
      <point x="518" y="319"/>
      <point x="587" y="357" type="curve"/>
      <point x="569" y="479"/>
      <point x="467" y="556"/>
      <point x="331" y="556" type="curve" smooth="yes"/>
      <point x="163" y="556"/>
      <point x="45" y="439"/>
      <point x="45" y="273" type="curve" smooth="yes"/>
      <point x="45" y="104"/>
      <point x="164" y="-10"/>
    </contour>
    <contour>
      <point x="329" y="90" type="curve" smooth="yes"/>
      <point x="273" y="90"/>
      <point x="240" y="113"/>
      <point x="222" y="141" type="curve"/>
      <point x="255" y="158"/>
      <point x="296" y="165"/>
      <point x="331" y="165" type="curve" smooth="yes"/>
      <point x="369" y="165"/>
      <point x="404" y="159"/>
      <point x="444" y="141" type="curve"/>
      <point x="427" y="112"/>
      <point x="380" y="90"/>
    </contour>
    <contour>
      <point x="333" y="381" type="curve" smooth="yes"/>
      <point x="298" y="381"/>
      <point x="255" y="388"/>
      <point x="222" y="405" type="curve"/>
      <point x="240" y="434"/>
      <point x="273" y="456"/>
      <point x="329" y="456" type="curve" smooth="yes"/>
      <point x="380" y="456"/>
      <point x="427" y="434"/>
      <point x="444" y="405" type="curve"/>
      <point x="404" y="387"/>
      <point x="368" y="381"/>
    </contour>
  </outline>
</glyph>
<glyph name="e_mon" format="2">
  <advance width="763"/>
  <unicode hex="1028"/>
  <note>
e_mon
</note>
  <outline>
    <contour>
      <point x="379" y="-476" type="curve" smooth="yes"/>
      <point x="576" y="-476"/>
      <point x="685" y="-371"/>
      <point x="685" y="-179" type="curve" smooth="yes"/>
      <point x="685" y="-175" type="line"/>
      <point x="539" y="-175" type="line"/>
      <point x="539" y="-178" type="line" smooth="yes"/>
      <point x="539" y="-298"/>
      <point x="477" y="-354"/>
      <point x="382" y="-354" type="curve" smooth="yes"/>
      <point x="286" y="-354"/>
      <point x="224" y="-300"/>
      <point x="224" y="-178" type="curve" smooth="yes"/>
      <point x="224" y="259" type="line" smooth="yes"/>
      <point x="224" y="382"/>
      <point x="279" y="435"/>
      <point x="387" y="435" type="curve" smooth="yes"/>
      <point x="485" y="435"/>
      <point x="540" y="375"/>
      <point x="540" y="259" type="curve" smooth="yes"/>
      <point x="540" y="189"/>
      <point x="510" y="92"/>
      <point x="452" y="92" type="curve" smooth="yes"/>
      <point x="429" y="92"/>
      <point x="425" y="105"/>
      <point x="425" y="115" type="curve" smooth="yes"/>
      <point x="425" y="128"/>
      <point x="434" y="138"/>
      <point x="458" y="160" type="curve" smooth="yes"/>
      <point x="480" y="180"/>
      <point x="494" y="209"/>
      <point x="494" y="252" type="curve" smooth="yes"/>
      <point x="494" y="309"/>
      <point x="446" y="356"/>
      <point x="374" y="356" type="curve" smooth="yes"/>
      <point x="339" y="356"/>
      <point x="291" y="344"/>
      <point x="260" y="303" type="curve"/>
      <point x="321" y="235" type="line"/>
      <point x="340" y="249"/>
      <point x="355" y="256"/>
      <point x="368" y="256" type="curve" smooth="yes"/>
      <point x="382" y="256"/>
      <point x="386" y="248"/>
      <point x="386" y="239" type="curve" smooth="yes"/>
      <point x="386" y="230"/>
      <point x="379" y="221"/>
      <point x="363" y="207" type="curve" smooth="yes"/>
      <point x="337" y="185"/>
      <point x="307" y="154"/>
      <point x="307" y="99" type="curve" smooth="yes"/>
      <point x="307" y="35"/>
      <point x="358" y="-10"/>
      <point x="454" y="-10" type="curve" smooth="yes"/>
      <point x="585" y="-10"/>
      <point x="685" y="98"/>
      <point x="685" y="272" type="curve" smooth="yes"/>
      <point x="685" y="452"/>
      <point x="575" y="557"/>
      <point x="379" y="557" type="curve" smooth="yes"/>
      <point x="189" y="557"/>
      <point x="78" y="448"/>
      <point x="78" y="259" type="curve" smooth="yes"/>
      <point x="78" y="-178" type="line" smooth="yes"/>
      <point x="78" y="-367"/>
      <point x="189" y="-476"/>
    </contour>
  </outline>
</glyph>
<glyph name="o_m" format="2">
  <advance width="1418"/>
  <unicode hex="1029"/>
  <note>
o_m
</note>
  <outline>
    <contour>
      <point x="295" y="-466" type="curve" smooth="yes"/>
      <point x="1165" y="-466" type="line" smooth="yes"/>
      <point x="1310" y="-466"/>
      <point x="1382" y="-393"/>
      <point x="1382" y="-246" type="curve" smooth="yes"/>
      <point x="1382" y="176" type="line"/>
      <point x="1272" y="176" type="line"/>
      <point x="1272" y="-261" type="line" smooth="yes"/>
      <point x="1272" y="-314"/>
      <point x="1251" y="-341"/>
      <point x="1209" y="-341" type="curve" smooth="yes"/>
      <point x="291" y="-341" type="line" smooth="yes"/>
      <point x="249" y="-341"/>
      <point x="228" y="-314"/>
      <point x="228" y="-261" type="curve" smooth="yes"/>
      <point x="228" y="799" type="line" smooth="yes"/>
      <point x="228" y="852"/>
      <point x="249" y="879"/>
      <point x="291" y="879" type="curve" smooth="yes"/>
      <point x="1209" y="879" type="line" smooth="yes"/>
      <point x="1251" y="879"/>
      <point x="1272" y="852"/>
      <point x="1272" y="799" type="curve" smooth="yes"/>
      <point x="1272" y="754" type="line"/>
      <point x="1382" y="754" type="line"/>
      <point x="1382" y="784" type="line" smooth="yes"/>
      <point x="1382" y="931"/>
      <point x="1310" y="1004"/>
      <point x="1165" y="1004" type="curve" smooth="yes"/>
      <point x="295" y="1004" type="line" smooth="yes"/>
      <point x="150" y="1004"/>
      <point x="78" y="931"/>
      <point x="78" y="784" type="curve" smooth="yes"/>
      <point x="78" y="-246" type="line" smooth="yes"/>
      <point x="78" y="-393"/>
      <point x="150" y="-466"/>
    </contour>
    <contour>
      <point x="638" y="-10" type="curve" smooth="yes"/>
      <point x="858" y="-10"/>
      <point x="940" y="137"/>
      <point x="940" y="273" type="curve" smooth="yes"/>
      <point x="940" y="441"/>
      <point x="815" y="556"/>
      <point x="636" y="556" type="curve" smooth="yes"/>
      <point x="526" y="556"/>
      <point x="426" y="506"/>
      <point x="385" y="424" type="curve"/>
      <point x="489" y="360" type="line"/>
      <point x="536" y="420"/>
      <point x="582" y="436"/>
      <point x="638" y="436" type="curve" smooth="yes"/>
      <point x="728" y="436"/>
      <point x="788" y="369"/>
      <point x="788" y="273" type="curve" smooth="yes"/>
      <point x="788" y="174"/>
      <point x="726" y="110"/>
      <point x="627" y="110" type="curve" smooth="yes"/>
      <point x="569" y="110"/>
      <point x="522" y="138"/>
      <point x="487" y="191" type="curve"/>
      <point x="373" y="130" type="line"/>
      <point x="413" y="52"/>
      <point x="513" y="-10"/>
    </contour>
    <contour>
      <point x="1094" y="-10" type="curve" smooth="yes"/>
      <point x="1275" y="-10"/>
      <point x="1399" y="108"/>
      <point x="1399" y="273" type="curve" smooth="yes"/>
      <point x="1399" y="438"/>
      <point x="1278" y="556"/>
      <point x="1127" y="556" type="curve" smooth="yes"/>
      <point x="1078" y="556"/>
      <point x="1018" y="547"/>
      <point x="980" y="524" type="curve"/>
      <point x="1032" y="413" type="line"/>
      <point x="1067" y="425"/>
      <point x="1080" y="429"/>
      <point x="1112" y="429" type="curve" smooth="yes"/>
      <point x="1195" y="429"/>
      <point x="1247" y="367"/>
      <point x="1247" y="273" type="curve" smooth="yes"/>
      <point x="1247" y="178"/>
      <point x="1187" y="110"/>
      <point x="1087" y="110" type="curve" smooth="yes"/>
      <point x="1010" y="110"/>
      <point x="949" y="161"/>
      <point x="928" y="217" type="curve"/>
      <point x="864" y="92" type="line"/>
      <point x="907" y="31"/>
      <point x="988" y="-10"/>
    </contour>
  </outline>
</glyph>
<glyph name="_tall_aa" format="2">
  <advance width="317"/>
  <unicode hex="102B"/>
  <note>
_tall_aa
</note>
  <outline>
    <contour>
      <point x="92" y="0" type="line"/>
      <point x="239" y="0" type="line"/>
      <point x="239" y="752" type="line" smooth="yes"/>
      <point x="239" y="910"/>
      <point x="143" y="1004"/>
      <point x="-26" y="1004" type="curve" smooth="yes"/>
      <point x="-192" y="1004"/>
      <point x="-288" y="909"/>
      <point x="-288" y="753" type="curve" smooth="yes"/>
      <point x="-288" y="738" type="line"/>
      <point x="-142" y="738" type="line"/>
      <point x="-142" y="752" type="line" smooth="yes"/>
      <point x="-142" y="850"/>
      <point x="-97" y="885"/>
      <point x="-25" y="885" type="curve" smooth="yes"/>
      <point x="55" y="885"/>
      <point x="92" y="844"/>
      <point x="92" y="752" type="curve" smooth="yes"/>
    </contour>
  </outline>
</glyph>
<glyph name="_aa" format="2">
  <advance width="408"/>
  <unicode hex="102C"/>
  <note>
_aa
</note>
  <outline>
    <contour>
      <point x="108" y="-10" type="curve" smooth="yes"/>
      <point x="268" y="-10"/>
      <point x="363" y="93"/>
      <point x="363" y="273" type="curve" smooth="yes"/>
      <point x="363" y="446"/>
      <point x="254" y="556"/>
      <point x="83" y="556" type="curve" smooth="yes"/>
      <point x="-17" y="556"/>
      <point x="-67" y="538"/>
      <point x="-170" y="475" type="curve"/>
      <point x="-104" y="372" type="line"/>
      <point x="-55" y="400"/>
      <point x="-5" y="424"/>
      <point x="68" y="424" type="curve" smooth="yes"/>
      <point x="158" y="424"/>
      <point x="211" y="365"/>
      <point x="211" y="263" type="curve" smooth="yes"/>
      <point x="211" y="174"/>
      <point x="163" y="117"/>
      <point x="92" y="117" type="curve" smooth="yes"/>
      <point x="61" y="117"/>
      <point x="44" y="124"/>
      <point x="21" y="133" type="curve"/>
      <point x="-30" y="22" type="line"/>
      <point x="5" y="-1"/>
      <point x="61" y="-10"/>
    </contour>
  </outline>
</glyph>
<glyph name="_i" format="2">
  <unicode hex="102D"/>
  <note>
_i
</note>
  <outline>
    <contour>
      <point x="-314" y="625" type="curve" smooth="yes"/>
      <point x="-199" y="625"/>
      <point x="-120" y="703"/>
      <point x="-120" y="817" type="curve" smooth="yes"/>
      <point x="-120" y="926"/>
      <point x="-196" y="1007"/>
      <point x="-314" y="1007" type="curve" smooth="yes"/>
      <point x="-431" y="1007"/>
      <point x="-508" y="929"/>
      <point x="-508" y="817" type="curve" smooth="yes"/>
      <point x="-508" y="704"/>
      <point x="-429" y="625"/>
    </contour>
    <contour>
      <point x="-314" y="721" type="curve" smooth="yes"/>
      <point x="-363" y="721"/>
      <point x="-389" y="765"/>
      <point x="-389" y="817" type="curve" smooth="yes"/>
      <point x="-389" y="868"/>
      <point x="-363" y="912"/>
      <point x="-314" y="912" type="curve" smooth="yes"/>
      <point x="-265" y="912"/>
      <point x="-239" y="868"/>
      <point x="-239" y="817" type="curve" smooth="yes"/>
      <point x="-239" y="764"/>
      <point x="-265" y="721"/>
    </contour>
  </outline>
</glyph>
<glyph name="_ii" format="2">
  <unicode hex="102E"/>
  <note>
_ii
</note>
  <outline>
    <contour>
      <point x="-314" y="625" type="curve" smooth="yes"/>
      <point x="-200" y="625"/>
      <point x="-120" y="703"/>
      <point x="-120" y="816" type="curve" smooth="yes"/>
      <point x="-120" y="925"/>
      <point x="-195" y="1007"/>
      <point x="-314" y="1007" type="curve" smooth="yes"/>
      <point x="-429" y="1007"/>
      <point x="-508" y="929"/>
      <point x="-508" y="816" type="curve" smooth="yes"/>
      <point x="-508" y="703"/>
      <point x="-429" y="625"/>
    </contour>
    <contour>
      <point x="-313" y="710" type="curve" smooth="yes"/>
      <point x="-376" y="710"/>
      <point x="-400" y="747"/>
      <point x="-400" y="816" type="curve" smooth="yes"/>
      <point x="-400" y="877"/>
      <point x="-367" y="918"/>
      <point x="-314" y="918" type="curve" smooth="yes"/>
      <point x="-261" y="918"/>
      <point x="-228" y="876"/>
      <point x="-228" y="816" type="curve" smooth="yes"/>
      <point x="-228" y="758"/>
      <point x="-240" y="710"/>
    </contour>
    <contour>
      <point x="-396" y="730" type="line"/>
      <point x="-373" y="750"/>
      <point x="-341" y="763"/>
      <point x="-312" y="763" type="curve" smooth="yes"/>
      <point x="-282" y="763"/>
      <point x="-253" y="750"/>
      <point x="-229" y="732" type="curve"/>
      <point x="-214" y="798" type="line"/>
      <point x="-247" y="816"/>
      <point x="-276" y="831"/>
      <point x="-313" y="831" type="curve" smooth="yes"/>
      <point x="-349" y="831"/>
      <point x="-385" y="814"/>
      <point x="-412" y="797" type="curve"/>
    </contour>
  </outline>
</glyph>
<glyph name="_u" format="2">
  <unicode hex="102F"/>
  <note>
_u
</note>
  <outline>
    <contour>
      <point x="-365" y="-466" type="line"/>
      <point x="-139" y="-466" type="line"/>
      <point x="-139" y="-368" type="line"/>
      <point x="-265" y="-368" type="line"/>
      <point x="-265" y="-47" type="line"/>
      <point x="-365" y="-47" type="line"/>
    </contour>
  </outline>
</glyph>
<glyph name="_e" format="2">
  <advance width="632"/>
  <unicode hex="1031"/>
  <note>
_e
</note>
  <outline>
    <contour>
      <point x="333" y="-10" type="curve" smooth="yes"/>
      <point x="485" y="-10"/>
      <point x="573" y="77"/>
      <point x="589" y="217" type="curve"/>
      <point x="506" y="267"/>
      <point x="436" y="295"/>
      <point x="355" y="295" type="curve" smooth="yes"/>
      <point x="300" y="295"/>
      <point x="239" y="281"/>
      <point x="180" y="253" type="curve"/>
      <point x="205" y="155" type="line"/>
      <point x="244" y="173"/>
      <point x="288" y="196"/>
      <point x="344" y="196" type="curve" smooth="yes"/>
      <point x="383" y="196"/>
      <point x="415" y="184"/>
      <point x="446" y="162" type="curve"/>
      <point x="424" y="129"/>
      <point x="394" y="104"/>
      <point x="338" y="104" type="curve" smooth="yes"/>
      <point x="252" y="104"/>
      <point x="195" y="163"/>
      <point x="195" y="273" type="curve" smooth="yes"/>
      <point x="195" y="386"/>
      <point x="261" y="444"/>
      <point x="355" y="444" type="curve" smooth="yes"/>
      <point x="403" y="444"/>
      <point x="461" y="432"/>
      <point x="511" y="390" type="curve"/>
      <point x="560" y="486" type="line"/>
      <point x="483" y="541"/>
      <point x="425" y="556"/>
      <point x="335" y="556" type="curve" smooth="yes"/>
      <point x="166" y="556"/>
      <point x="43" y="447"/>
      <point x="43" y="273" type="curve" smooth="yes"/>
      <point x="43" y="93"/>
      <point x="175" y="-10"/>
    </contour>
  </outline>
</glyph>
<glyph name="_ai" format="2">
  <unicode hex="1032"/>
  <note>
_ai
</note>
  <outline>
    <contour>
      <point x="-201" y="649" type="line"/>
      <point x="-125" y="741" type="line"/>
      <point x="-338" y="916" type="line"/>
      <point x="-414" y="823" type="line"/>
    </contour>
  </outline>
</glyph>
<glyph name="_ii_mon" format="2">
  <unicode hex="1033"/>
  <note>
_ii_mon
</note>
  <outline>
    <contour>
      <point x="-325" y="625" type="curve" smooth="yes"/>
      <point x="-200" y="625"/>
      <point x="-112" y="706"/>
      <point x="-112" y="816" type="curve" smooth="yes"/>
      <point x="-112" y="926"/>
      <point x="-206" y="1009"/>
      <point x="-325" y="1009" type="curve" smooth="yes"/>
      <point x="-448" y="1009"/>
      <point x="-540" y="928"/>
      <point x="-540" y="816" type="curve" smooth="yes"/>
      <point x="-540" y="705"/>
      <point x="-454" y="625"/>
    </contour>
    <contour>
      <point x="-325" y="687" type="curve" smooth="yes"/>
      <point x="-405" y="687"/>
      <point x="-457" y="741"/>
      <point x="-457" y="817" type="curve" smooth="yes"/>
      <point x="-457" y="895"/>
      <point x="-397" y="948"/>
      <point x="-325" y="948" type="curve" smooth="yes"/>
      <point x="-255" y="948"/>
      <point x="-195" y="895"/>
      <point x="-195" y="817" type="curve" smooth="yes"/>
      <point x="-195" y="743"/>
      <point x="-249" y="687"/>
    </contour>
    <contour>
      <point x="-325" y="727" type="curve" smooth="yes"/>
      <point x="-273" y="727"/>
      <point x="-235" y="762"/>
      <point x="-235" y="817" type="curve" smooth="yes"/>
      <point x="-235" y="868"/>
      <point x="-274" y="908"/>
      <point x="-325" y="908" type="curve" smooth="yes"/>
      <point x="-376" y="908"/>
      <point x="-416" y="869"/>
      <point x="-416" y="817" type="curve" smooth="yes"/>
      <point x="-416" y="765"/>
      <point x="-380" y="727"/>
    </contour>
    <contour>
      <point x="-327" y="777" type="curve" smooth="yes"/>
      <point x="-351" y="777"/>
      <point x="-366" y="794"/>
      <point x="-366" y="817" type="curve" smooth="yes"/>
      <point x="-366" y="841"/>
      <point x="-350" y="857"/>
      <point x="-327" y="857" type="curve" smooth="yes"/>
      <point x="-303" y="857"/>
      <point x="-286" y="841"/>
      <point x="-286" y="817" type="curve" smooth="yes"/>
      <point x="-286" y="794"/>
      <point x="-302" y="777"/>
    </contour>
  </outline>
</glyph>
<glyph name="_o_mon" format="2">
  <unicode hex="1034"/>
  <note>
_o_mon
</note>
  <outline>
    <contour>
      <point x="-416" y="641" type="line"/>
      <point x="-195" y="822" type="line"/>
      <point x="-271" y="915" type="line"/>
      <point x="-492" y="733" type="line"/>
    </contour>
  </outline>
</glyph>
<glyph name="_e_above" format="2">
  <unicode hex="1035"/>
  <note>
_e_above
</note>
  <outline>
    <contour>
      <point x="-314" y="625" type="curve" smooth="yes"/>
      <point x="-226" y="625"/>
      <point x="-153" y="672"/>
      <point x="-129" y="754" type="curve"/>
      <point x="-170" y="797"/>
      <point x="-231" y="831"/>
      <point x="-313" y="831" type="curve" smooth="yes"/>
      <point x="-349" y="831"/>
      <point x="-386" y="814"/>
      <point x="-411" y="797" type="curve"/>
      <point x="-396" y="730" type="line"/>
      <point x="-372" y="751"/>
      <point x="-343" y="763"/>
      <point x="-312" y="763" type="curve" smooth="yes"/>
      <point x="-285" y="763"/>
      <point x="-263" y="754"/>
      <point x="-242" y="741" type="curve"/>
      <point x="-256" y="722"/>
      <point x="-281" y="710"/>
      <point x="-312" y="710" type="curve" smooth="yes"/>
      <point x="-375" y="710"/>
      <point x="-400" y="747"/>
      <point x="-400" y="816" type="curve" smooth="yes"/>
      <point x="-400" y="876"/>
      <point x="-367" y="918"/>
      <point x="-314" y="918" type="curve" smooth="yes"/>
      <point x="-275" y="918"/>
      <point x="-239" y="900"/>
      <point x="-225" y="861" type="curve"/>
      <point x="-138" y="902" type="line"/>
      <point x="-166" y="969"/>
      <point x="-230" y="1007"/>
      <point x="-314" y="1007" type="curve" smooth="yes"/>
      <point x="-435" y="1007"/>
      <point x="-508" y="921"/>
      <point x="-508" y="816" type="curve" smooth="yes"/>
      <point x="-508" y="705"/>
      <point x="-433" y="625"/>
    </contour>
  </outline>
</glyph>
<glyph name="anusvara" format="2">
  <unicode hex="1036"/>
  <note>
anusvara
</note>
  <outline>
    <contour>
      <point x="-327" y="615" type="curve" smooth="yes"/>
      <point x="-251" y="615"/>
      <point x="-197" y="658"/>
      <point x="-197" y="735" type="curve" smooth="yes"/>
      <point x="-197" y="803"/>
      <point x="-250" y="853"/>
      <point x="-327" y="853" type="curve" smooth="yes"/>
      <point x="-403" y="853"/>
      <point x="-454" y="808"/>
      <point x="-454" y="734" type="curve" smooth="yes"/>
      <point x="-454" y="658"/>
      <point x="-403" y="615"/>
    </contour>
    <contour>
      <point x="-325" y="692" type="curve" smooth="yes"/>
      <point x="-352" y="692"/>
      <point x="-365" y="709"/>
      <point x="-365" y="734" type="curve" smooth="yes"/>
      <point x="-365" y="761"/>
      <point x="-347" y="774"/>
      <point x="-325" y="774" type="curve" smooth="yes"/>
      <point x="-302" y="774"/>
      <point x="-285" y="761"/>
      <point x="-285" y="734" type="curve" smooth="yes"/>
      <point x="-285" y="709"/>
      <point x="-302" y="692"/>
    </contour>
  </outline>
</glyph>
<glyph name="visarga" format="2">
  <advance width="383"/>
  <unicode hex="1038"/>
  <note>
visarga
</note>
  <outline>
    <contour>
      <point x="190" y="300" type="curve" smooth="yes"/>
      <point x="266" y="300"/>
      <point x="320" y="342"/>
      <point x="320" y="420" type="curve" smooth="yes"/>
      <point x="320" y="488"/>
      <point x="268" y="537"/>
      <point x="190" y="537" type="curve" smooth="yes"/>
      <point x="112" y="537"/>
      <point x="63" y="492"/>
      <point x="63" y="419" type="curve" smooth="yes"/>
      <point x="63" y="343"/>
      <point x="114" y="300"/>
    </contour>
    <contour>
      <point x="190" y="-9" type="curve" smooth="yes"/>
      <point x="266" y="-9"/>
      <point x="320" y="34"/>
      <point x="320" y="111" type="curve" smooth="yes"/>
      <point x="320" y="179"/>
      <point x="268" y="228"/>
      <point x="190" y="228" type="curve" smooth="yes"/>
      <point x="112" y="228"/>
      <point x="63" y="183"/>
      <point x="63" y="110" type="curve" smooth="yes"/>
      <point x="63" y="34"/>
      <point x="114" y="-9"/>
    </contour>
    <contour>
      <point x="192" y="68" type="curve" smooth="yes"/>
      <point x="165" y="68"/>
      <point x="152" y="84"/>
      <point x="152" y="110" type="curve" smooth="yes"/>
      <point x="152" y="137"/>
      <point x="169" y="150"/>
      <point x="192" y="150" type="curve" smooth="yes"/>
      <point x="215" y="150"/>
      <point x="232" y="137"/>
      <point x="232" y="110" type="curve" smooth="yes"/>
      <point x="232" y="84"/>
      <point x="215" y="68"/>
    </contour>
    <contour>
      <point x="192" y="377" type="curve" smooth="yes"/>
      <point x="165" y="377"/>
      <point x="152" y="394"/>
      <point x="152" y="419" type="curve" smooth="yes"/>
      <point x="152" y="446"/>
      <point x="169" y="459"/>
      <point x="192" y="459" type="curve" smooth="yes"/>
      <point x="215" y="459"/>
      <point x="232" y="446"/>
      <point x="232" y="419" type="curve" smooth="yes"/>
      <point x="232" y="394"/>
      <point x="215" y="377"/>
    </contour>
  </outline>
</glyph>
<glyph name="virama" format="2">
  <unicode hex="1039"/>
  <note>
virama
</note>
  <outline>
    <contour>
      <point x="-376" y="-437" type="line"/>
      <point x="-257" y="-437" type="line"/>
      <point x="-257" y="-317" type="line"/>
      <point x="-138" y="-317" type="line"/>
      <point x="-138" y="-218" type="line"/>
      <point x="-257" y="-218" type="line"/>
      <point x="-257" y="-98" type="line"/>
      <point x="-376" y="-98" type="line"/>
      <point x="-376" y="-218" type="line"/>
      <point x="-495" y="-218" type="line"/>
      <point x="-495" y="-317" type="line"/>
      <point x="-376" y="-317" type="line"/>
    </contour>
  </outline>
</glyph>
<glyph name="asat" format="2">
  <unicode hex="103A"/>
  <note>
asat
</note>
  <outline>
    <contour>
      <point x="-384" y="625" type="curve"/>
      <point x="-308" y="698" type="line"/>
      <point x="-324" y="714"/>
      <point x="-388" y="758"/>
      <point x="-388" y="829" type="curve" smooth="yes"/>
      <point x="-388" y="872"/>
      <point x="-357" y="911"/>
      <point x="-314" y="911" type="curve" smooth="yes"/>
      <point x="-273" y="911"/>
      <point x="-248" y="887"/>
      <point x="-236" y="867" type="curve"/>
      <point x="-153" y="918" type="line"/>
      <point x="-180" y="975"/>
      <point x="-244" y="1007"/>
      <point x="-313" y="1007" type="curve" smooth="yes"/>
      <point x="-426" y="1007"/>
      <point x="-507" y="931"/>
      <point x="-507" y="822" type="curve" smooth="yes"/>
      <point x="-507" y="753"/>
      <point x="-483" y="698"/>
    </contour>
  </outline>
</glyph>
<glyph name="medial_ya" format="2">
  <advance width="310"/>
  <unicode hex="103B"/>
  <note>
medial_ya
</note>
  <outline>
    <contour>
      <point x="232" y="-476" type="line"/>
      <point x="232" y="555" type="line"/>
      <point x="85" y="555" type="line"/>
      <point x="85" y="-305" type="line"/>
      <point x="-94" y="-247" type="line"/>
      <point x="-94" y="209" type="line"/>
      <point x="-201" y="209" type="line"/>
      <point x="-201" y="-339" type="line"/>
    </contour>
  </outline>
</glyph>
<glyph name="medial_wa" format="2">
  <unicode hex="103D"/>
  <note>
medial_wa
</note>
  <outline>
    <contour>
      <point x="-328" y="-441" type="curve" smooth="yes"/>
      <point x="-193" y="-441"/>
      <point x="-119" y="-357"/>
      <point x="-119" y="-244" type="curve" smooth="yes"/>
      <point x="-119" y="-131"/>
      <point x="-193" y="-47"/>
      <point x="-324" y="-47" type="curve" smooth="yes"/>
      <point x="-453" y="-47"/>
      <point x="-529" y="-129"/>
      <point x="-529" y="-245" type="curve" smooth="yes"/>
      <point x="-529" y="-361"/>
      <point x="-450" y="-441"/>
    </contour>
    <contour>
      <point x="-324" y="-346" type="curve" smooth="yes"/>
      <point x="-380" y="-346"/>
      <point x="-410" y="-303"/>
      <point x="-410" y="-244" type="curve" smooth="yes"/>
      <point x="-410" y="-180"/>
      <point x="-379" y="-142"/>
      <point x="-323" y="-142" type="curve" smooth="yes"/>
      <point x="-269" y="-142"/>
      <point x="-238" y="-183"/>
      <point x="-238" y="-244" type="curve" smooth="yes"/>
      <point x="-238" y="-303"/>
      <point x="-270" y="-346"/>
    </contour>
  </outline>
</glyph>
<glyph name="great_sa" format="2">
  <advance width="1525"/>
  <unicode hex="103F"/>
  <note>
great_sa
</note>
  <outline>
    <contour>
      <point x="308" y="-10" type="curve" smooth="yes"/>
      <point x="518" y="-10"/>
      <point x="596" y="137"/>
      <point x="596" y="273" type="curve" smooth="yes"/>
      <point x="596" y="441"/>
      <point x="477" y="556"/>
      <point x="306" y="556" type="curve" smooth="yes"/>
      <point x="196" y="556"/>
      <point x="96" y="506"/>
      <point x="55" y="424" type="curve"/>
      <point x="159" y="360" type="line"/>
      <point x="206" y="420"/>
      <point x="252" y="436"/>
      <point x="308" y="436" type="curve" smooth="yes"/>
      <point x="390" y="436"/>
      <point x="444" y="369"/>
      <point x="444" y="273" type="curve" smooth="yes"/>
      <point x="444" y="174"/>
      <point x="387" y="110"/>
      <point x="297" y="110" type="curve" smooth="yes"/>
      <point x="239" y="110"/>
      <point x="192" y="138"/>
      <point x="157" y="191" type="curve"/>
      <point x="43" y="130" type="line"/>
      <point x="83" y="52"/>
      <point x="183" y="-10"/>
    </contour>
    <contour>
      <point x="742" y="-10" type="curve" smooth="yes"/>
      <point x="913" y="-10"/>
      <point x="1037" y="108"/>
      <point x="1037" y="273" type="curve" smooth="yes"/>
      <point x="1037" y="438"/>
      <point x="916" y="556"/>
      <point x="775" y="556" type="curve" smooth="yes"/>
      <point x="721" y="556"/>
      <point x="666" y="547"/>
      <point x="632" y="524" type="curve"/>
      <point x="684" y="413" type="line"/>
      <point x="713" y="425"/>
      <point x="724" y="429"/>
      <point x="760" y="429" type="curve" smooth="yes"/>
      <point x="833" y="429"/>
      <point x="885" y="367"/>
      <point x="885" y="273" type="curve" smooth="yes"/>
      <point x="885" y="178"/>
      <point x="825" y="110"/>
      <point x="735" y="110" type="curve" smooth="yes"/>
      <point x="658" y="110"/>
      <point x="604" y="161"/>
      <point x="586" y="217" type="curve"/>
      <point x="522" y="92" type="line"/>
      <point x="561" y="31"/>
      <point x="635" y="-10"/>
    </contour>
    <contour>
      <point x="1185" y="-10" type="curve" smooth="yes"/>
      <point x="1356" y="-10"/>
      <point x="1480" y="108"/>
      <point x="1480" y="273" type="curve" smooth="yes"/>
      <point x="1480" y="438"/>
      <point x="1359" y="556"/>
      <point x="1218" y="556" type="curve" smooth="yes"/>
      <point x="1164" y="556"/>
      <point x="1109" y="547"/>
      <point x="1075" y="524" type="curve"/>
      <point x="1127" y="413" type="line"/>
      <point x="1156" y="425"/>
      <point x="1167" y="429"/>
      <point x="1203" y="429" type="curve" smooth="yes"/>
      <point x="1276" y="429"/>
      <point x="1328" y="367"/>
      <point x="1328" y="273" type="curve" smooth="yes"/>
      <point x="1328" y="178"/>
      <point x="1268" y="110"/>
      <point x="1178" y="110" type="curve" smooth="yes"/>
      <point x="1101" y="110"/>
      <point x="1047" y="161"/>
      <point x="1029" y="217" type="curve"/>
      <point x="965" y="92" type="line"/>
      <point x="1004" y="31"/>
      <point x="1078" y="-10"/>
    </contour>
  </outline>
</glyph>
<glyph name="zero_m" format="2">
  <advance width="665"/>
  <unicode hex="1040"/>
  <note>
zero_m
</note>
  <outline>
    <contour>
      <point x="333" y="-10" type="curve" smooth="yes"/>
      <point x="501" y="-10"/>
      <point x="620" y="104"/>
      <point x="620" y="273" type="curve" smooth="yes"/>
      <point x="620" y="436"/>
      <point x="506" y="556"/>
      <point x="333" y="556" type="curve" smooth="yes"/>
      <point x="164" y="556"/>
      <point x="45" y="442"/>
      <point x="45" y="273" type="curve" smooth="yes"/>
      <point x="45" y="103"/>
      <point x="165" y="-10"/>
    </contour>
    <contour>
      <point x="332" y="110" type="curve" smooth="yes"/>
      <point x="251" y="110"/>
      <point x="197" y="175"/>
      <point x="197" y="273" type="curve" smooth="yes"/>
      <point x="197" y="370"/>
      <point x="252" y="436"/>
      <point x="332" y="436" type="curve" smooth="yes"/>
      <point x="414" y="436"/>
      <point x="468" y="373"/>
      <point x="468" y="273" type="curve" smooth="yes"/>
      <point x="468" y="173"/>
      <point x="414" y="110"/>
    </contour>
  </outline>
</glyph>
<glyph name="one_m" format="2">
  <advance width="625"/>
  <unicode hex="1041"/>
  <note>
one_m
</note>
  <outline>
    <contour>
      <point x="292" y="-10" type="curve" smooth="yes"/>
      <point x="460" y="-10"/>
      <point x="580" y="104"/>
      <point x="580" y="273" type="curve" smooth="yes"/>
      <point x="580" y="442"/>
      <point x="461" y="556"/>
      <point x="292" y="556" type="curve" smooth="yes"/>
      <point x="188" y="556"/>
      <point x="94" y="506"/>
      <point x="55" y="424" type="curve"/>
      <point x="159" y="360" type="line"/>
      <point x="202" y="420"/>
      <point x="242" y="436"/>
      <point x="293" y="436" type="curve" smooth="yes"/>
      <point x="374" y="436"/>
      <point x="428" y="371"/>
      <point x="428" y="273" type="curve" smooth="yes"/>
      <point x="428" y="173"/>
      <point x="371" y="110"/>
      <point x="283" y="110" type="curve" smooth="yes"/>
      <point x="232" y="110"/>
      <point x="188" y="138"/>
      <point x="157" y="191" type="curve"/>
      <point x="43" y="130" type="line"/>
      <point x="81" y="50"/>
      <point x="177" y="-10"/>
    </contour>
  </outline>
</glyph>
<glyph name="two_m" format="2">
  <advance width="728"/>
  <unicode hex="1042"/>
  <note>
two_m
</note>
  <outline>
    <contour>
      <point x="349" y="-476" type="curve" smooth="yes"/>
      <point x="540" y="-476"/>
      <point x="650" y="-367"/>
      <point x="650" y="-178" type="curve" smooth="yes"/>
      <point x="650" y="546" type="line"/>
      <point x="504" y="546" type="line"/>
      <point x="504" y="-178" type="line" smooth="yes"/>
      <point x="504" y="-300"/>
      <point x="442" y="-354"/>
      <point x="346" y="-354" type="curve" smooth="yes"/>
      <point x="251" y="-354"/>
      <point x="189" y="-298"/>
      <point x="189" y="-178" type="curve" smooth="yes"/>
      <point x="189" y="-175" type="line"/>
      <point x="43" y="-175" type="line"/>
      <point x="43" y="-179" type="line" smooth="yes"/>
      <point x="43" y="-371"/>
      <point x="152" y="-476"/>
    </contour>
  </outline>
</glyph>
<glyph name="three_m" format="2">
  <advance width="625"/>
  <unicode hex="1043"/>
  <note>
three_m
</note>
  <outline>
    <contour>
      <point x="366" y="-466" type="line"/>
      <point x="520" y="-466" type="line"/>
      <point x="353" y="-156" type="line" smooth="yes"/>
      <point x="323" y="-100"/>
      <point x="292" y="-53"/>
      <point x="252" y="8" type="curve"/>
      <point x="236" y="3" type="line"/>
      <point x="248" y="-6"/>
      <point x="267" y="-10"/>
      <point x="294" y="-10" type="curve" smooth="yes"/>
      <point x="462" y="-10"/>
      <point x="582" y="104"/>
      <point x="582" y="273" type="curve" smooth="yes"/>
      <point x="582" y="442"/>
      <point x="463" y="556"/>
      <point x="294" y="556" type="curve" smooth="yes"/>
      <point x="190" y="556"/>
      <point x="96" y="506"/>
      <point x="57" y="424" type="curve"/>
      <point x="161" y="360" type="line"/>
      <point x="204" y="420"/>
      <point x="244" y="436"/>
      <point x="295" y="436" type="curve" smooth="yes"/>
      <point x="375" y="436"/>
      <point x="430" y="371"/>
      <point x="430" y="273" type="curve" smooth="yes"/>
      <point x="430" y="172"/>
      <point x="373" y="110"/>
      <point x="285" y="110" type="curve" smooth="yes"/>
      <point x="234" y="110"/>
      <point x="190" y="138"/>
      <point x="159" y="191" type="curve"/>
      <point x="45" y="130" type="line"/>
    </contour>
  </outline>
</glyph>
<glyph name="four_m" format="2">
  <advance width="625"/>
  <unicode hex="1044"/>
  <note>
four_m
</note>
  <outline>
    <contour>
      <point x="108" y="-466" type="line"/>
      <point x="262" y="-466" type="line"/>
      <point x="582" y="130" type="line"/>
      <point x="468" y="191" type="line"/>
      <point x="425" y="126"/>
      <point x="387" y="110"/>
      <point x="342" y="110" type="curve" smooth="yes"/>
      <point x="254" y="110"/>
      <point x="197" y="172"/>
      <point x="197" y="273" type="curve" smooth="yes"/>
      <point x="197" y="370"/>
      <point x="252" y="436"/>
      <point x="332" y="436" type="curve" smooth="yes"/>
      <point x="380" y="436"/>
      <point x="424" y="420"/>
      <point x="466" y="360" type="curve"/>
      <point x="570" y="424" type="line"/>
      <point x="531" y="506"/>
      <point x="437" y="556"/>
      <point x="333" y="556" type="curve" smooth="yes"/>
      <point x="164" y="556"/>
      <point x="45" y="442"/>
      <point x="45" y="273" type="curve" smooth="yes"/>
      <point x="45" y="103"/>
      <point x="165" y="-10"/>
      <point x="333" y="-10" type="curve" smooth="yes"/>
      <point x="354" y="-10"/>
      <point x="370" y="-5"/>
      <point x="379" y="0" type="curve"/>
      <point x="379" y="13" type="line"/>
      <point x="342" y="-41"/>
      <point x="304" y="-100"/>
      <point x="274" y="-156" type="curve" smooth="yes"/>
    </contour>
  </outline>
</glyph>
<glyph name="five_m" format="2">
  <advance width="763"/>
  <unicode hex="1045"/>
  <note>
five_m
</note>
  <outline>
    <contour>
      <point x="384" y="-476" type="curve" smooth="yes"/>
      <point x="575" y="-476"/>
      <point x="685" y="-368"/>
      <point x="685" y="-178" type="curve" smooth="yes"/>
      <point x="685" y="259" type="line" smooth="yes"/>
      <point x="685" y="451"/>
      <point x="577" y="557"/>
      <point x="384" y="557" type="curve" smooth="yes"/>
      <point x="191" y="557"/>
      <point x="71" y="452"/>
      <point x="71" y="280" type="curve" smooth="yes"/>
      <point x="71" y="176"/>
      <point x="139" y="106"/>
      <point x="242" y="106" type="curve" smooth="yes"/>
      <point x="344" y="106"/>
      <point x="411" y="173"/>
      <point x="411" y="264" type="curve" smooth="yes"/>
      <point x="411" y="358"/>
      <point x="356" y="403"/>
      <point x="288" y="403" type="curve" smooth="yes"/>
      <point x="270" y="403"/>
      <point x="254" y="400"/>
      <point x="242" y="395" type="curve"/>
      <point x="264" y="426"/>
      <point x="312" y="445"/>
      <point x="376" y="445" type="curve" smooth="yes"/>
      <point x="476" y="445"/>
      <point x="539" y="371"/>
      <point x="539" y="259" type="curve" smooth="yes"/>
      <point x="539" y="-178" type="line" smooth="yes"/>
      <point x="539" y="-300"/>
      <point x="479" y="-354"/>
      <point x="381" y="-354" type="curve" smooth="yes"/>
      <point x="287" y="-354"/>
      <point x="224" y="-298"/>
      <point x="224" y="-178" type="curve" smooth="yes"/>
      <point x="224" y="-175" type="line"/>
      <point x="78" y="-175" type="line"/>
      <point x="78" y="-179" type="line" smooth="yes"/>
      <point x="78" y="-371"/>
      <point x="187" y="-476"/>
    </contour>
    <contour>
      <point x="241" y="214" type="curve" smooth="yes"/>
      <point x="218" y="214"/>
      <point x="199" y="229"/>
      <point x="199" y="260" type="curve" smooth="yes"/>
      <point x="199" y="287"/>
      <point x="216" y="307"/>
      <point x="241" y="307" type="curve" smooth="yes"/>
      <point x="268" y="307"/>
      <point x="287" y="291"/>
      <point x="287" y="260" type="curve" smooth="yes"/>
      <point x="287" y="235"/>
      <point x="272" y="214"/>
    </contour>
  </outline>
</glyph>
<glyph name="six_m" format="2">
  <advance width="763"/>
  <unicode hex="1046"/>
  <note>
six_m
</note>
  <outline>
    <contour>
      <point x="379" y="-10" type="curve" smooth="yes"/>
      <point x="569" y="-10"/>
      <point x="685" y="91"/>
      <point x="685" y="247" type="curve" smooth="yes"/>
      <point x="685" y="327"/>
      <point x="631" y="389"/>
      <point x="546" y="389" type="curve" smooth="yes"/>
      <point x="519" y="389"/>
      <point x="451" y="375"/>
      <point x="425" y="375" type="curve" smooth="yes"/>
      <point x="403" y="375"/>
      <point x="387" y="391"/>
      <point x="387" y="412" type="curve" smooth="yes"/>
      <point x="387" y="435"/>
      <point x="406" y="446"/>
      <point x="422" y="446" type="curve" smooth="yes"/>
      <point x="447" y="446"/>
      <point x="457" y="433"/>
      <point x="470" y="421" type="curve"/>
      <point x="549" y="486" type="line"/>
      <point x="519" y="533"/>
      <point x="472" y="557"/>
      <point x="409" y="557" type="curve" smooth="yes"/>
      <point x="315" y="557"/>
      <point x="254" y="500"/>
      <point x="254" y="411" type="curve" smooth="yes"/>
      <point x="254" y="323"/>
      <point x="317" y="266"/>
      <point x="411" y="266" type="curve" smooth="yes"/>
      <point x="462" y="266"/>
      <point x="492" y="278"/>
      <point x="513" y="278" type="curve" smooth="yes"/>
      <point x="531" y="278"/>
      <point x="539" y="264"/>
      <point x="539" y="247" type="curve" smooth="yes"/>
      <point x="539" y="171"/>
      <point x="477" y="112"/>
      <point x="387" y="112" type="curve" smooth="yes"/>
      <point x="279" y="112"/>
      <point x="224" y="165"/>
      <point x="224" y="288" type="curve" smooth="yes"/>
      <point x="224" y="725" type="line" smooth="yes"/>
      <point x="224" y="847"/>
      <point x="286" y="901"/>
      <point x="382" y="901" type="curve" smooth="yes"/>
      <point x="477" y="901"/>
      <point x="539" y="845"/>
      <point x="539" y="725" type="curve" smooth="yes"/>
      <point x="539" y="722" type="line"/>
      <point x="685" y="722" type="line"/>
      <point x="685" y="726" type="line" smooth="yes"/>
      <point x="685" y="917"/>
      <point x="576" y="1023"/>
      <point x="379" y="1023" type="curve" smooth="yes"/>
      <point x="188" y="1023"/>
      <point x="78" y="915"/>
      <point x="78" y="725" type="curve" smooth="yes"/>
      <point x="78" y="288" type="line" smooth="yes"/>
      <point x="78" y="99"/>
      <point x="188" y="-10"/>
    </contour>
  </outline>
</glyph>
<glyph name="seven_m" format="2">
  <advance width="649"/>
  <unicode hex="1047"/>
  <note>
seven_m
</note>
  <outline>
    <contour>
      <point x="372" y="-476" type="curve" smooth="yes"/>
      <point x="459" y="-476"/>
      <point x="524" y="-434"/>
      <point x="567" y="-350" type="curve"/>
      <point x="458" y="-275" type="line"/>
      <point x="437" y="-327"/>
      <point x="411" y="-353"/>
      <point x="382" y="-353" type="curve" smooth="yes"/>
      <point x="354" y="-353"/>
      <point x="330" y="-332"/>
      <point x="330" y="-293" type="curve" smooth="yes"/>
      <point x="330" y="-221"/>
      <point x="352" y="-186"/>
      <point x="458" y="-35" type="curve" smooth="yes"/>
      <point x="567" y="121"/>
      <point x="599" y="200"/>
      <point x="599" y="279" type="curve" smooth="yes"/>
      <point x="599" y="445"/>
      <point x="491" y="556"/>
      <point x="320" y="556" type="curve" smooth="yes"/>
      <point x="148" y="556"/>
      <point x="45" y="419"/>
      <point x="45" y="250" type="curve" smooth="yes"/>
      <point x="45" y="104"/>
      <point x="122" y="12"/>
      <point x="179" y="-14" type="curve"/>
      <point x="249" y="88" type="line"/>
      <point x="221" y="108"/>
      <point x="191" y="165"/>
      <point x="191" y="252" type="curve" smooth="yes"/>
      <point x="191" y="369"/>
      <point x="252" y="434"/>
      <point x="323" y="434" type="curve" smooth="yes"/>
      <point x="400" y="434"/>
      <point x="452" y="368"/>
      <point x="452" y="285" type="curve" smooth="yes"/>
      <point x="452" y="206"/>
      <point x="428" y="170"/>
      <point x="334" y="32" type="curve" smooth="yes"/>
      <point x="252" y="-88"/>
      <point x="182" y="-162"/>
      <point x="182" y="-287" type="curve" smooth="yes"/>
      <point x="182" y="-408"/>
      <point x="256" y="-476"/>
    </contour>
  </outline>
</glyph>
<glyph name="eight_m" format="2">
  <advance width="665"/>
  <unicode hex="1048"/>
  <note>
eight_m
</note>
  <outline>
    <contour>
      <point x="225" y="-10" type="curve"/>
      <point x="294" y="65"/>
      <point x="340" y="147"/>
      <point x="340" y="258" type="curve" smooth="yes"/>
      <point x="340" y="320"/>
      <point x="321" y="384"/>
      <point x="283" y="448" type="curve"/>
      <point x="204" y="405" type="line"/>
      <point x="235" y="353"/>
      <point x="250" y="304"/>
      <point x="250" y="258" type="curve" smooth="yes"/>
      <point x="250" y="206"/>
      <point x="235" y="170"/>
      <point x="212" y="136" type="curve"/>
      <point x="177" y="177"/>
      <point x="167" y="219"/>
      <point x="167" y="270" type="curve" smooth="yes"/>
      <point x="167" y="361"/>
      <point x="233" y="436"/>
      <point x="321" y="436" type="curve" smooth="yes"/>
      <point x="413" y="436"/>
      <point x="468" y="377"/>
      <point x="468" y="273" type="curve" smooth="yes"/>
      <point x="468" y="214"/>
      <point x="453" y="161"/>
      <point x="405" y="110" type="curve"/>
      <point x="480" y="-10" type="line"/>
      <point x="562" y="39"/>
      <point x="620" y="136"/>
      <point x="620" y="273" type="curve" smooth="yes"/>
      <point x="620" y="441"/>
      <point x="508" y="556"/>
      <point x="333" y="556" type="curve" smooth="yes"/>
      <point x="159" y="556"/>
      <point x="45" y="443"/>
      <point x="45" y="273" type="curve" smooth="yes"/>
      <point x="45" y="142"/>
      <point x="115" y="37"/>
    </contour>
  </outline>
</glyph>
<glyph name="nine_m" format="2">
  <advance width="763"/>
  <unicode hex="1049"/>
  <note>
nine_m
</note>
  <outline>
    <contour>
      <point x="379" y="-476" type="curve" smooth="yes"/>
      <point x="576" y="-476"/>
      <point x="685" y="-371"/>
      <point x="685" y="-179" type="curve" smooth="yes"/>
      <point x="685" y="-175" type="line"/>
      <point x="539" y="-175" type="line"/>
      <point x="539" y="-178" type="line" smooth="yes"/>
      <point x="539" y="-298"/>
      <point x="477" y="-354"/>
      <point x="382" y="-354" type="curve" smooth="yes"/>
      <point x="286" y="-354"/>
      <point x="224" y="-300"/>
      <point x="224" y="-178" type="curve" smooth="yes"/>
      <point x="224" y="259" type="line" smooth="yes"/>
      <point x="224" y="382"/>
      <point x="279" y="435"/>
      <point x="387" y="435" type="curve" smooth="yes"/>
      <point x="476" y="435"/>
      <point x="539" y="376"/>
      <point x="539" y="300" type="curve" smooth="yes"/>
      <point x="539" y="283"/>
      <point x="531" y="269"/>
      <point x="513" y="269" type="curve" smooth="yes"/>
      <point x="489" y="269"/>
      <point x="451" y="281"/>
      <point x="411" y="281" type="curve" smooth="yes"/>
      <point x="317" y="281"/>
      <point x="254" y="224"/>
      <point x="254" y="136" type="curve" smooth="yes"/>
      <point x="254" y="47"/>
      <point x="315" y="-10"/>
      <point x="409" y="-10" type="curve" smooth="yes"/>
      <point x="472" y="-10"/>
      <point x="519" y="14"/>
      <point x="549" y="61" type="curve"/>
      <point x="470" y="126" type="line"/>
      <point x="455" y="113"/>
      <point x="446" y="101"/>
      <point x="422" y="101" type="curve" smooth="yes"/>
      <point x="406" y="101"/>
      <point x="387" y="113"/>
      <point x="387" y="135" type="curve" smooth="yes"/>
      <point x="387" y="156"/>
      <point x="403" y="172"/>
      <point x="425" y="172" type="curve" smooth="yes"/>
      <point x="459" y="172"/>
      <point x="511" y="158"/>
      <point x="546" y="158" type="curve" smooth="yes"/>
      <point x="631" y="158"/>
      <point x="685" y="220"/>
      <point x="685" y="300" type="curve" smooth="yes"/>
      <point x="685" y="456"/>
      <point x="568" y="557"/>
      <point x="379" y="557" type="curve" smooth="yes"/>
      <point x="188" y="557"/>
      <point x="78" y="448"/>
      <point x="78" y="259" type="curve" smooth="yes"/>
      <point x="78" y="-178" type="line" smooth="yes"/>
      <point x="78" y="-366"/>
      <point x="188" y="-476"/>
    </contour>
  </outline>
</glyph>
<glyph name="little_section" format="2">
  <advance width="305"/>
  <unicode hex="104A"/>
  <note>
little_section
</note>
  <outline>
    <contour>
      <point x="78" y="0" type="line"/>
      <point x="227" y="0" type="line"/>
      <point x="227" y="546" type="line"/>
      <point x="78" y="546" type="line"/>
    </contour>
  </outline>
</glyph>
<glyph name="locative" format="2">
  <advance width="679"/>
  <unicode hex="104C"/>
  <note>
locative
</note>
  <outline>
    <contour>
      <point x="279" y="-466" type="curve" smooth="yes"/>
      <point x="382" y="-466" type="line" smooth="yes"/>
      <point x="522" y="-466"/>
      <point x="593" y="-394"/>
      <point x="593" y="-251" type="curve" smooth="yes"/>
      <point x="593" y="9" type="line"/>
      <point x="540" y="-28"/>
      <point x="455" y="-60"/>
      <point x="365" y="-60" type="curve" smooth="yes"/>
      <point x="297" y="-60"/>
      <point x="253" y="-53"/>
      <point x="228" y="-45" type="curve"/>
      <point x="228" y="45" type="line"/>
      <point x="78" y="131" type="line"/>
      <point x="78" y="-122" type="line"/>
      <point x="150" y="-151"/>
      <point x="246" y="-171"/>
      <point x="344" y="-171" type="curve" smooth="yes"/>
      <point x="377" y="-171"/>
      <point x="410" y="-170"/>
      <point x="443" y="-164" type="curve"/>
      <point x="443" y="-262" type="line" smooth="yes"/>
      <point x="443" y="-322"/>
      <point x="425" y="-351"/>
      <point x="369" y="-351" type="curve" smooth="yes"/>
      <point x="282" y="-351" type="line" smooth="yes"/>
      <point x="246" y="-351"/>
      <point x="222" y="-339"/>
      <point x="222" y="-318" type="curve" smooth="yes"/>
      <point x="222" y="-300"/>
      <point x="236" y="-285"/>
      <point x="263" y="-285" type="curve" smooth="yes"/>
      <point x="278" y="-285"/>
      <point x="294" y="-291"/>
      <point x="312" y="-301" type="curve"/>
      <point x="367" y="-221" type="line"/>
      <point x="320" y="-197"/>
      <point x="296" y="-187"/>
      <point x="234" y="-187" type="curve" smooth="yes"/>
      <point x="132" y="-187"/>
      <point x="71" y="-235"/>
      <point x="71" y="-319" type="curve" smooth="yes"/>
      <point x="71" y="-410"/>
      <point x="147" y="-466"/>
    </contour>
    <contour>
      <point x="349" y="-9" type="curve" smooth="yes"/>
      <point x="514" y="-9"/>
      <point x="615" y="115"/>
      <point x="615" y="274" type="curve" smooth="yes"/>
      <point x="615" y="440"/>
      <point x="498" y="557"/>
      <point x="327" y="557" type="curve" smooth="yes"/>
      <point x="211" y="557"/>
      <point x="122" y="503"/>
      <point x="89" y="426" type="curve"/>
      <point x="194" y="361" type="line"/>
      <point x="221" y="412"/>
      <point x="268" y="437"/>
      <point x="328" y="437" type="curve" smooth="yes"/>
      <point x="410" y="437"/>
      <point x="463" y="372"/>
      <point x="463" y="274" type="curve" smooth="yes"/>
      <point x="463" y="178"/>
      <point x="411" y="111"/>
      <point x="318" y="111" type="curve" smooth="yes"/>
      <point x="262" y="111"/>
      <point x="216" y="139"/>
      <point x="192" y="192" type="curve"/>
      <point x="78" y="131" type="line"/>
      <point x="191" y="18"/>
      <point x="247" y="-9"/>
    </contour>
    <component base="asat" xOffset="742"/>
  </outline>
</glyph>
<glyph name="completed" format="2">
  <advance width="1014"/>
  <unicode hex="104D"/>
  <note>
completed
</note>
  <outline>
    <contour>
      <point x="259" y="-466" type="curve" smooth="yes"/>
      <point x="716" y="-466" type="line" smooth="yes"/>
      <point x="861" y="-466"/>
      <point x="933" y="-394"/>
      <point x="933" y="-251" type="curve" smooth="yes"/>
      <point x="933" y="275" type="line" smooth="yes"/>
      <point x="933" y="491"/>
      <point x="876" y="586"/>
      <point x="710" y="723" type="curve" smooth="yes"/>
      <point x="676" y="751"/>
      <point x="659" y="781"/>
      <point x="659" y="814" type="curve" smooth="yes"/>
      <point x="659" y="854"/>
      <point x="692" y="883"/>
      <point x="728" y="883" type="curve" smooth="yes"/>
      <point x="775" y="883"/>
      <point x="801" y="851"/>
      <point x="828" y="795" type="curve"/>
      <point x="936" y="853" type="line"/>
      <point x="899" y="949"/>
      <point x="828" y="1003"/>
      <point x="723" y="1003" type="curve" smooth="yes"/>
      <point x="599" y="1003"/>
      <point x="513" y="923"/>
      <point x="513" y="816" type="curve" smooth="yes"/>
      <point x="513" y="733"/>
      <point x="541" y="676"/>
      <point x="642" y="596" type="curve" smooth="yes"/>
      <point x="743" y="516"/>
      <point x="784" y="426"/>
      <point x="784" y="280" type="curve" smooth="yes"/>
      <point x="784" y="-261" type="line" smooth="yes"/>
      <point x="784" y="-314"/>
      <point x="763" y="-341"/>
      <point x="720" y="-341" type="curve" smooth="yes"/>
      <point x="257" y="-341" type="line" smooth="yes"/>
      <point x="228" y="-341"/>
      <point x="196" y="-332"/>
      <point x="196" y="-302" type="curve" smooth="yes"/>
      <point x="196" y="-284"/>
      <point x="209" y="-269"/>
      <point x="242" y="-269" type="curve" smooth="yes"/>
      <point x="262" y="-269"/>
      <point x="282" y="-276"/>
      <point x="304" y="-289" type="curve"/>
      <point x="372" y="-187" type="line"/>
      <point x="333" y="-161"/>
      <point x="288" y="-143"/>
      <point x="215" y="-143" type="curve" smooth="yes"/>
      <point x="121" y="-143"/>
      <point x="45" y="-208"/>
      <point x="45" y="-301" type="curve" smooth="yes"/>
      <point x="45" y="-409"/>
      <point x="124" y="-466"/>
    </contour>
    <contour>
      <point x="471" y="-184" type="line"/>
      <point x="620" y="-184" type="line"/>
      <point x="620" y="273" type="line" smooth="yes"/>
      <point x="620" y="436"/>
      <point x="506" y="556"/>
      <point x="333" y="556" type="curve" smooth="yes"/>
      <point x="163" y="556"/>
      <point x="45" y="441"/>
      <point x="45" y="273" type="curve" smooth="yes"/>
      <point x="45" y="104"/>
      <point x="164" y="-10"/>
      <point x="333" y="-10" type="curve" smooth="yes"/>
      <point x="365" y="-10"/>
      <point x="401" y="-6"/>
      <point x="439" y="6" type="curve"/>
      <point x="436" y="202"/>
      <point x="362" y="310"/>
      <point x="156" y="348" type="curve"/>
      <point x="144" y="258" type="line"/>
      <point x="260" y="246"/>
      <point x="329" y="179"/>
      <point x="347" y="67" type="curve"/>
      <point x="375" y="108" type="line"/>
      <point x="362" y="108"/>
      <point x="348" y="108"/>
      <point x="335" y="108" type="curve" smooth="yes"/>
      <point x="233" y="108"/>
      <point x="161" y="176"/>
      <point x="161" y="270" type="curve" smooth="yes"/>
      <point x="161" y="361"/>
      <point x="220" y="436"/>
      <point x="319" y="436" type="curve" smooth="yes"/>
      <point x="413" y="436"/>
      <point x="471" y="369"/>
      <point x="471" y="273" type="curve" smooth="yes"/>
    </contour>
  </outline>
</glyph>
<glyph name="aforementioned" format="2">
  <advance width="660"/>
  <unicode hex="104E"/>
  <note>
aforementioned
</note>
  <outline>
    <contour>
      <point x="333" y="-10" type="curve" smooth="yes"/>
      <point x="428" y="-10"/>
      <point x="464" y="13"/>
      <point x="582" y="130" type="curve"/>
      <point x="468" y="191" type="line"/>
      <point x="424" y="125"/>
      <point x="386" y="110"/>
      <point x="342" y="110" type="curve" smooth="yes"/>
      <point x="252" y="110"/>
      <point x="197" y="175"/>
      <point x="197" y="273" type="curve" smooth="yes"/>
      <point x="197" y="365"/>
      <point x="249" y="436"/>
      <point x="332" y="436" type="curve" smooth="yes"/>
      <point x="381" y="436"/>
      <point x="424" y="420"/>
      <point x="466" y="360" type="curve"/>
      <point x="570" y="424" type="line"/>
      <point x="531" y="506"/>
      <point x="437" y="556"/>
      <point x="333" y="556" type="curve" smooth="yes"/>
      <point x="161" y="556"/>
      <point x="45" y="442"/>
      <point x="45" y="273" type="curve" smooth="yes"/>
      <point x="45" y="104"/>
      <point x="164" y="-10"/>
    </contour>
    <contour>
      <point x="433" y="-476" type="line"/>
      <point x="582" y="-476" type="line"/>
      <point x="582" y="130" type="line"/>
      <point x="433" y="24" type="line"/>
    </contour>
  </outline>
</glyph>
<glyph name="genitive" format="2">
  <advance width="1291"/>
  <unicode hex="104F"/>
  <note>
genitive
</note>
  <outline>
    <contour>
      <point x="1061" y="0" type="line"/>
      <point x="1210" y="0" type="line"/>
      <point x="1210" y="276" type="line" smooth="yes"/>
      <point x="1210" y="490"/>
      <point x="1157" y="581"/>
      <point x="991" y="720" type="curve" smooth="yes"/>
      <point x="955" y="750"/>
      <point x="936" y="782"/>
      <point x="936" y="815" type="curve" smooth="yes"/>
      <point x="936" y="855"/>
      <point x="969" y="884"/>
      <point x="1005" y="884" type="curve" smooth="yes"/>
      <point x="1052" y="884"/>
      <point x="1078" y="852"/>
      <point x="1105" y="796" type="curve"/>
      <point x="1213" y="854" type="line"/>
      <point x="1174" y="954"/>
      <point x="1103" y="1004"/>
      <point x="1000" y="1004" type="curve" smooth="yes"/>
      <point x="875" y="1004"/>
      <point x="790" y="924"/>
      <point x="790" y="817" type="curve" smooth="yes"/>
      <point x="790" y="733"/>
      <point x="819" y="675"/>
      <point x="919" y="597" type="curve" smooth="yes"/>
      <point x="1019" y="519"/>
      <point x="1061" y="427"/>
      <point x="1061" y="281" type="curve" smooth="yes"/>
    </contour>
    <contour>
      <point x="749" y="0" type="line"/>
      <point x="898" y="0" type="line"/>
      <point x="898" y="295" type="line" smooth="yes"/>
      <point x="898" y="454"/>
      <point x="817" y="556"/>
      <point x="678" y="556" type="curve" smooth="yes"/>
      <point x="599" y="556"/>
      <point x="541" y="517"/>
      <point x="517" y="473" type="curve"/>
      <point x="587" y="357" type="line"/>
      <point x="591" y="391"/>
      <point x="618" y="429"/>
      <point x="662" y="429" type="curve" smooth="yes"/>
      <point x="726" y="429"/>
      <point x="749" y="376"/>
      <point x="749" y="286" type="curve" smooth="yes"/>
    </contour>
    <component base="e_m"/>
  </outline>
</glyph>
<glyph name="sha_skt" format="2">
  <advance width="689"/>
  <unicode hex="1050"/>
  <note>
sha_skt
</note>
  <outline>
    <contour>
      <point x="344" y="190" type="curve" smooth="yes"/>
      <point x="381" y="190"/>
      <point x="414" y="212"/>
      <point x="414" y="266" type="curve" smooth="yes"/>
      <point x="414" y="320"/>
      <point x="382" y="341"/>
      <point x="344" y="341" type="curve" smooth="yes"/>
      <point x="308" y="341"/>
      <point x="275" y="321"/>
      <point x="275" y="266" type="curve" smooth="yes"/>
      <point x="275" y="212"/>
      <point x="309" y="190"/>
    </contour>
    <component base="ga"/>
  </outline>
</glyph>
<glyph name="ssa_skt" format="2">
  <advance width="697"/>
  <unicode hex="1051"/>
  <note>
ssa_skt
</note>
  <outline>
    <contour>
      <point x="349" y="-10" type="curve" smooth="yes"/>
      <point x="536" y="-10"/>
      <point x="652" y="105"/>
      <point x="652" y="273" type="curve" smooth="yes"/>
      <point x="652" y="410"/>
      <point x="590" y="507"/>
      <point x="504" y="556" type="curve"/>
      <point x="429" y="436" type="line"/>
      <point x="482" y="386"/>
      <point x="500" y="333"/>
      <point x="500" y="273" type="curve" smooth="yes"/>
      <point x="500" y="174"/>
      <point x="438" y="110"/>
      <point x="348" y="110" type="curve" smooth="yes"/>
      <point x="258" y="110"/>
      <point x="197" y="177"/>
      <point x="197" y="273" type="curve" smooth="yes"/>
      <point x="197" y="336"/>
      <point x="215" y="386"/>
      <point x="268" y="436" type="curve"/>
      <point x="193" y="556" type="line"/>
      <point x="107" y="507"/>
      <point x="45" y="410"/>
      <point x="45" y="273" type="curve" smooth="yes"/>
      <point x="45" y="105"/>
      <point x="163" y="-10"/>
    </contour>
    <contour>
      <point x="348" y="203" type="curve" smooth="yes"/>
      <point x="386" y="203"/>
      <point x="418" y="225"/>
      <point x="418" y="279" type="curve" smooth="yes"/>
      <point x="418" y="333"/>
      <point x="386" y="354"/>
      <point x="348" y="354" type="curve" smooth="yes"/>
      <point x="312" y="354"/>
      <point x="279" y="333"/>
      <point x="279" y="279" type="curve" smooth="yes"/>
      <point x="279" y="225"/>
      <point x="313" y="203"/>
    </contour>
  </outline>
</glyph>
<glyph name="vocR_skt" format="2">
  <advance width="696"/>
  <unicode hex="1052"/>
  <note>
vocR_skt
</note>
  <outline>
    <contour>
      <point x="354" y="-10" type="curve" smooth="yes"/>
      <point x="521" y="-10"/>
      <point x="629" y="74"/>
      <point x="629" y="196" type="curve" smooth="yes"/>
      <point x="629" y="275"/>
      <point x="575" y="333"/>
      <point x="503" y="382" type="curve" smooth="yes"/>
      <point x="491" y="390"/>
      <point x="484" y="399"/>
      <point x="484" y="409" type="curve" smooth="yes"/>
      <point x="484" y="418"/>
      <point x="492" y="426"/>
      <point x="508" y="426" type="curve" smooth="yes"/>
      <point x="531" y="426"/>
      <point x="552" y="414"/>
      <point x="574" y="396" type="curve"/>
      <point x="649" y="473" type="line"/>
      <point x="610" y="529"/>
      <point x="561" y="557"/>
      <point x="492" y="557" type="curve" smooth="yes"/>
      <point x="395" y="557"/>
      <point x="345" y="502"/>
      <point x="345" y="430" type="curve" smooth="yes"/>
      <point x="345" y="368"/>
      <point x="379" y="329"/>
      <point x="436" y="285" type="curve" smooth="yes"/>
      <point x="464" y="263"/>
      <point x="478" y="236"/>
      <point x="478" y="205" type="curve" smooth="yes"/>
      <point x="478" y="152"/>
      <point x="421" y="110"/>
      <point x="350" y="110" type="curve" smooth="yes"/>
      <point x="248" y="110"/>
      <point x="182" y="169"/>
      <point x="182" y="273" type="curve" smooth="yes"/>
      <point x="182" y="345"/>
      <point x="212" y="399"/>
      <point x="267" y="436" type="curve"/>
      <point x="192" y="556" type="line"/>
      <point x="106" y="507"/>
      <point x="45" y="418"/>
      <point x="45" y="273" type="curve" smooth="yes"/>
      <point x="45" y="101"/>
      <point x="162" y="-10"/>
    </contour>
  </outline>
</glyph>
<glyph name="vocRR_skt" format="2">
  <advance width="681"/>
  <unicode hex="1053"/>
  <note>
vocRR_skt
</note>
  <outline>
    <contour>
      <point x="340" y="-10" type="curve" smooth="yes"/>
      <point x="521" y="-10"/>
      <point x="629" y="68"/>
      <point x="629" y="196" type="curve" smooth="yes"/>
      <point x="629" y="280"/>
      <point x="575" y="331"/>
      <point x="532" y="364" type="curve" smooth="yes"/>
      <point x="510" y="381"/>
      <point x="499" y="396"/>
      <point x="499" y="411" type="curve" smooth="yes"/>
      <point x="499" y="421"/>
      <point x="506" y="432"/>
      <point x="521" y="432" type="curve" smooth="yes"/>
      <point x="540" y="432"/>
      <point x="558" y="421"/>
      <point x="577" y="399" type="curve"/>
      <point x="649" y="473" type="line"/>
      <point x="615" y="529"/>
      <point x="557" y="556"/>
      <point x="503" y="556" type="curve" smooth="yes"/>
      <point x="417" y="556"/>
      <point x="367" y="509"/>
      <point x="367" y="423" type="curve" smooth="yes"/>
      <point x="367" y="366"/>
      <point x="392" y="329"/>
      <point x="429" y="295" type="curve" smooth="yes"/>
      <point x="474" y="253"/>
      <point x="479" y="240"/>
      <point x="479" y="205" type="curve" smooth="yes"/>
      <point x="479" y="145"/>
      <point x="419" y="110"/>
      <point x="339" y="110" type="curve" smooth="yes"/>
      <point x="259" y="110"/>
      <point x="202" y="145"/>
      <point x="202" y="205" type="curve" smooth="yes"/>
      <point x="202" y="235"/>
      <point x="212" y="258"/>
      <point x="231" y="275" type="curve" smooth="yes"/>
      <point x="270" y="309"/>
      <point x="315" y="346"/>
      <point x="315" y="423" type="curve" smooth="yes"/>
      <point x="315" y="509"/>
      <point x="265" y="556"/>
      <point x="178" y="556" type="curve" smooth="yes"/>
      <point x="125" y="556"/>
      <point x="66" y="529"/>
      <point x="32" y="473" type="curve"/>
      <point x="104" y="399" type="line"/>
      <point x="123" y="421"/>
      <point x="141" y="432"/>
      <point x="160" y="432" type="curve" smooth="yes"/>
      <point x="176" y="432"/>
      <point x="183" y="421"/>
      <point x="183" y="411" type="curve" smooth="yes"/>
      <point x="183" y="399"/>
      <point x="175" y="386"/>
      <point x="159" y="373" type="curve" smooth="yes"/>
      <point x="86" y="313"/>
      <point x="51" y="273"/>
      <point x="51" y="196" type="curve" smooth="yes"/>
      <point x="51" y="68"/>
      <point x="159" y="-10"/>
    </contour>
  </outline>
</glyph>
<glyph name="vocL_skt" format="2">
  <advance width="632"/>
  <unicode hex="1054"/>
  <note>
vocL_skt
</note>
  <outline>
    <contour>
      <point x="327" y="-10" type="curve" smooth="yes"/>
      <point x="426" y="-10"/>
      <point x="480" y="5"/>
      <point x="555" y="60" type="curve"/>
      <point x="506" y="156" type="line"/>
      <point x="458" y="114"/>
      <point x="403" y="102"/>
      <point x="348" y="102" type="curve" smooth="yes"/>
      <point x="261" y="102"/>
      <point x="195" y="160"/>
      <point x="195" y="273" type="curve" smooth="yes"/>
      <point x="195" y="383"/>
      <point x="252" y="442"/>
      <point x="337" y="442" type="curve" smooth="yes"/>
      <point x="396" y="442"/>
      <point x="430" y="413"/>
      <point x="446" y="384" type="curve"/>
      <point x="415" y="362"/>
      <point x="383" y="350"/>
      <point x="339" y="350" type="curve" smooth="yes"/>
      <point x="300" y="350"/>
      <point x="250" y="363"/>
      <point x="205" y="391" type="curve"/>
      <point x="180" y="293" type="line"/>
      <point x="239" y="265"/>
      <point x="300" y="251"/>
      <point x="354" y="251" type="curve" smooth="yes"/>
      <point x="436" y="251"/>
      <point x="493" y="265"/>
      <point x="589" y="329" type="curve"/>
      <point x="573" y="469"/>
      <point x="485" y="556"/>
      <point x="335" y="556" type="curve" smooth="yes"/>
      <point x="175" y="556"/>
      <point x="43" y="453"/>
      <point x="43" y="273" type="curve" smooth="yes"/>
      <point x="43" y="99"/>
      <point x="166" y="-10"/>
    </contour>
  </outline>
</glyph>
<glyph name="vocLL_skt" format="2">
  <advance width="664"/>
  <unicode hex="1055"/>
  <note>
vocLL_skt
</note>
  <outline>
    <contour>
      <point x="250" y="-9" type="curve" smooth="yes"/>
      <point x="304" y="-9"/>
      <point x="360" y="20"/>
      <point x="375" y="85" type="curve"/>
      <point x="337" y="70" type="line"/>
      <point x="353" y="30"/>
      <point x="386" y="-9"/>
      <point x="465" y="-9" type="curve" smooth="yes"/>
      <point x="575" y="-9"/>
      <point x="620" y="56"/>
      <point x="620" y="169" type="curve"/>
      <point x="480" y="192" type="line"/>
      <point x="479" y="159"/>
      <point x="473" y="117"/>
      <point x="447" y="117" type="curve" smooth="yes"/>
      <point x="431" y="117"/>
      <point x="415" y="129"/>
      <point x="415" y="166" type="curve" smooth="yes"/>
      <point x="415" y="186" type="line"/>
      <point x="286" y="186" type="line"/>
      <point x="286" y="166" type="line" smooth="yes"/>
      <point x="286" y="130"/>
      <point x="266" y="117"/>
      <point x="253" y="117" type="curve" smooth="yes"/>
      <point x="207" y="117"/>
      <point x="197" y="196"/>
      <point x="197" y="265" type="curve" smooth="yes"/>
      <point x="197" y="380"/>
      <point x="245" y="442"/>
      <point x="346" y="442" type="curve" smooth="yes"/>
      <point x="402" y="442"/>
      <point x="458" y="417"/>
      <point x="478" y="384" type="curve"/>
      <point x="432" y="362"/>
      <point x="383" y="350"/>
      <point x="337" y="350" type="curve" smooth="yes"/>
      <point x="290" y="350"/>
      <point x="245" y="370"/>
      <point x="197" y="398" type="curve"/>
      <point x="172" y="300" type="line"/>
      <point x="228" y="267"/>
      <point x="287" y="251"/>
      <point x="351" y="251" type="curve" smooth="yes"/>
      <point x="435" y="251"/>
      <point x="504" y="265"/>
      <point x="621" y="329" type="curve"/>
      <point x="601" y="469"/>
      <point x="495" y="556"/>
      <point x="349" y="556" type="curve" smooth="yes"/>
      <point x="159" y="556"/>
      <point x="45" y="445"/>
      <point x="45" y="265" type="curve" smooth="yes"/>
      <point x="45" y="95"/>
      <point x="123" y="-9"/>
    </contour>
  </outline>
</glyph>
<glyph name="_vocR_skt" format="2">
  <advance width="376"/>
  <unicode hex="1056"/>
  <note>
_vocR_skt
</note>
  <outline>
    <contour>
      <point x="107" y="-10" type="curve" smooth="yes"/>
      <point x="246" y="-10"/>
      <point x="331" y="67"/>
      <point x="331" y="177" type="curve" smooth="yes"/>
      <point x="331" y="264"/>
      <point x="281" y="309"/>
      <point x="205" y="346" type="curve" smooth="yes"/>
      <point x="167" y="364"/>
      <point x="148" y="385"/>
      <point x="148" y="407" type="curve" smooth="yes"/>
      <point x="148" y="419"/>
      <point x="160" y="433"/>
      <point x="180" y="433" type="curve" smooth="yes"/>
      <point x="201" y="433"/>
      <point x="224" y="421"/>
      <point x="250" y="398" type="curve"/>
      <point x="329" y="480" type="line"/>
      <point x="278" y="542"/>
      <point x="218" y="554"/>
      <point x="150" y="554" type="curve" smooth="yes"/>
      <point x="60" y="554"/>
      <point x="-4" y="493"/>
      <point x="-4" y="405" type="curve" smooth="yes"/>
      <point x="-4" y="343"/>
      <point x="27" y="292"/>
      <point x="90" y="253" type="curve" smooth="yes"/>
      <point x="151" y="220"/>
      <point x="179" y="199"/>
      <point x="179" y="172" type="curve" smooth="yes"/>
      <point x="179" y="148"/>
      <point x="159" y="117"/>
      <point x="108" y="117" type="curve" smooth="yes"/>
      <point x="48" y="117"/>
      <point x="-11" y="157"/>
      <point x="-50" y="229" type="curve"/>
      <point x="-162" y="154" type="line"/>
      <point x="-98" y="39"/>
      <point x="-10" y="-10"/>
    </contour>
  </outline>
</glyph>
<glyph name="_vocRR_skt" format="2">
  <advance width="396"/>
  <unicode hex="1057"/>
  <note>
_vocRR_skt
</note>
  <outline>
    <contour>
      <point x="-38" y="-10" type="curve" smooth="yes"/>
      <point x="32" y="-10"/>
      <point x="74" y="32"/>
      <point x="80" y="71" type="curve"/>
      <point x="46" y="82" type="line"/>
      <point x="67" y="20"/>
      <point x="109" y="-10"/>
      <point x="176" y="-10" type="curve" smooth="yes"/>
      <point x="285" y="-10"/>
      <point x="351" y="58"/>
      <point x="351" y="167" type="curve" smooth="yes"/>
      <point x="351" y="261"/>
      <point x="291" y="313"/>
      <point x="221" y="348" type="curve" smooth="yes"/>
      <point x="186" y="365"/>
      <point x="168" y="385"/>
      <point x="168" y="407" type="curve" smooth="yes"/>
      <point x="168" y="419"/>
      <point x="180" y="433"/>
      <point x="200" y="433" type="curve" smooth="yes"/>
      <point x="221" y="433"/>
      <point x="244" y="421"/>
      <point x="270" y="398" type="curve"/>
      <point x="349" y="480" type="line"/>
      <point x="298" y="542"/>
      <point x="238" y="554"/>
      <point x="170" y="554" type="curve" smooth="yes"/>
      <point x="80" y="554"/>
      <point x="16" y="493"/>
      <point x="16" y="405" type="curve" smooth="yes"/>
      <point x="16" y="336"/>
      <point x="48" y="286"/>
      <point x="135" y="239" type="curve" smooth="yes"/>
      <point x="178" y="216"/>
      <point x="199" y="190"/>
      <point x="199" y="162" type="curve" smooth="yes"/>
      <point x="199" y="137"/>
      <point x="188" y="117"/>
      <point x="168" y="117" type="curve" smooth="yes"/>
      <point x="145" y="117"/>
      <point x="135" y="138"/>
      <point x="135" y="166" type="curve" smooth="yes"/>
      <point x="135" y="186" type="line"/>
      <point x="6" y="186" type="line"/>
      <point x="6" y="166" type="line" smooth="yes"/>
      <point x="6" y="133"/>
      <point x="-4" y="117"/>
      <point x="-23" y="117" type="curve" smooth="yes"/>
      <point x="-42" y="117"/>
      <point x="-53" y="142"/>
      <point x="-56" y="192" type="curve"/>
      <point x="-185" y="169" type="line"/>
      <point x="-185" y="55"/>
      <point x="-134" y="-10"/>
    </contour>
  </outline>
</glyph>
<glyph name="_vocL_skt" format="2">
  <unicode hex="1058"/>
  <note>
_vocL_skt
</note>
  <outline>
    <contour>
      <point x="-319" y="-476" type="curve" smooth="yes"/>
      <point x="-260" y="-476"/>
      <point x="-205" y="-464"/>
      <point x="-140" y="-423" type="curve"/>
      <point x="-184" y="-337" type="line"/>
      <point x="-227" y="-364"/>
      <point x="-264" y="-373"/>
      <point x="-309" y="-373" type="curve" smooth="yes"/>
      <point x="-379" y="-373"/>
      <point x="-421" y="-341"/>
      <point x="-421" y="-263" type="curve" smooth="yes"/>
      <point x="-421" y="-187"/>
      <point x="-381" y="-142"/>
      <point x="-323" y="-142" type="curve" smooth="yes"/>
      <point x="-283" y="-142"/>
      <point x="-253" y="-163"/>
      <point x="-243" y="-182" type="curve"/>
      <point x="-271" y="-193"/>
      <point x="-298" y="-199"/>
      <point x="-325" y="-199" type="curve" smooth="yes"/>
      <point x="-354" y="-199"/>
      <point x="-389" y="-190"/>
      <point x="-413" y="-173" type="curve"/>
      <point x="-435" y="-250" type="line"/>
      <point x="-397" y="-273"/>
      <point x="-356" y="-283"/>
      <point x="-309" y="-283" type="curve" smooth="yes"/>
      <point x="-231" y="-283"/>
      <point x="-175" y="-254"/>
      <point x="-120" y="-220" type="curve"/>
      <point x="-134" y="-112"/>
      <point x="-216" y="-47"/>
      <point x="-325" y="-47" type="curve" smooth="yes"/>
      <point x="-462" y="-47"/>
      <point x="-540" y="-138"/>
      <point x="-540" y="-263" type="curve" smooth="yes"/>
      <point x="-540" y="-392"/>
      <point x="-457" y="-476"/>
    </contour>
  </outline>
</glyph>
<glyph name="_vocLL_skt" format="2">
  <unicode hex="1059"/>
  <note>
_vocLL_skt
</note>
  <outline>
    <contour>
      <point x="-398" y="-476" type="curve" smooth="yes"/>
      <point x="-357" y="-476"/>
      <point x="-311" y="-450"/>
      <point x="-307" y="-388" type="curve"/>
      <point x="-335" y="-408" type="line"/>
      <point x="-332" y="-440"/>
      <point x="-307" y="-476"/>
      <point x="-245" y="-476" type="curve" smooth="yes"/>
      <point x="-171" y="-476"/>
      <point x="-135" y="-428"/>
      <point x="-135" y="-342" type="curve"/>
      <point x="-232" y="-325" type="line"/>
      <point x="-233" y="-346"/>
      <point x="-239" y="-381"/>
      <point x="-257" y="-381" type="curve" smooth="yes"/>
      <point x="-270" y="-381"/>
      <point x="-278" y="-367"/>
      <point x="-278" y="-344" type="curve" smooth="yes"/>
      <point x="-278" y="-329" type="line"/>
      <point x="-375" y="-329" type="line"/>
      <point x="-375" y="-344" type="line" smooth="yes"/>
      <point x="-375" y="-363"/>
      <point x="-383" y="-381"/>
      <point x="-395" y="-381" type="curve" smooth="yes"/>
      <point x="-423" y="-381"/>
      <point x="-429" y="-319"/>
      <point x="-429" y="-270" type="curve" smooth="yes"/>
      <point x="-429" y="-189"/>
      <point x="-398" y="-134"/>
      <point x="-329" y="-134" type="curve" smooth="yes"/>
      <point x="-292" y="-134"/>
      <point x="-255" y="-153"/>
      <point x="-242" y="-178" type="curve"/>
      <point x="-273" y="-192"/>
      <point x="-304" y="-203"/>
      <point x="-333" y="-203" type="curve" smooth="yes"/>
      <point x="-365" y="-203"/>
      <point x="-393" y="-187"/>
      <point x="-424" y="-169" type="curve"/>
      <point x="-443" y="-246" type="line"/>
      <point x="-406" y="-268"/>
      <point x="-362" y="-280"/>
      <point x="-319" y="-280" type="curve" smooth="yes"/>
      <point x="-241" y="-280"/>
      <point x="-188" y="-255"/>
      <point x="-135" y="-222" type="curve"/>
      <point x="-150" y="-114"/>
      <point x="-232" y="-47"/>
      <point x="-333" y="-47" type="curve" smooth="yes"/>
      <point x="-467" y="-47"/>
      <point x="-543" y="-134"/>
      <point x="-543" y="-269" type="curve" smooth="yes"/>
      <point x="-543" y="-396"/>
      <point x="-489" y="-476"/>
    </contour>
  </outline>
</glyph>
<glyph name="nga_mon" format="2">
  <advance width="625"/>
  <unicode hex="105A"/>
  <note>
nga_mon
</note>
  <outline>
    <contour>
      <point x="333" y="-10" type="curve" smooth="yes"/>
      <point x="449" y="-10"/>
      <point x="543" y="51"/>
      <point x="582" y="130" type="curve"/>
      <point x="468" y="191" type="line"/>
      <point x="424" y="125"/>
      <point x="386" y="110"/>
      <point x="342" y="110" type="curve" smooth="yes"/>
      <point x="252" y="110"/>
      <point x="197" y="175"/>
      <point x="197" y="273" type="curve" smooth="yes"/>
      <point x="197" y="370"/>
      <point x="251" y="436"/>
      <point x="332" y="436" type="curve" smooth="yes"/>
      <point x="381" y="436"/>
      <point x="424" y="420"/>
      <point x="466" y="360" type="curve"/>
      <point x="570" y="424" type="line"/>
      <point x="531" y="506"/>
      <point x="437" y="556"/>
      <point x="333" y="556" type="curve" smooth="yes"/>
      <point x="163" y="556"/>
      <point x="45" y="441"/>
      <point x="45" y="273" type="curve" smooth="yes"/>
      <point x="45" y="104"/>
      <point x="164" y="-10"/>
    </contour>
    <contour>
      <point x="389" y="-476" type="curve" smooth="yes"/>
      <point x="432" y="-476"/>
      <point x="462" y="-466"/>
      <point x="485" y="-452" type="curve"/>
      <point x="445" y="-370" type="line"/>
      <point x="438" y="-375"/>
      <point x="426" y="-377"/>
      <point x="418" y="-377" type="curve" smooth="yes"/>
      <point x="408" y="-377"/>
      <point x="397" y="-372"/>
      <point x="397" y="-362" type="curve" smooth="yes"/>
      <point x="397" y="-350"/>
      <point x="404" y="-340"/>
      <point x="417" y="-332" type="curve" smooth="yes"/>
      <point x="444" y="-314"/>
      <point x="503" y="-259"/>
      <point x="503" y="-185" type="curve" smooth="yes"/>
      <point x="503" y="-102"/>
      <point x="437" y="-47"/>
      <point x="337" y="-47" type="curve" smooth="yes"/>
      <point x="230" y="-47"/>
      <point x="167" y="-111"/>
      <point x="161" y="-198" type="curve"/>
      <point x="273" y="-198" type="line"/>
      <point x="278" y="-166"/>
      <point x="298" y="-142"/>
      <point x="333" y="-142" type="curve" smooth="yes"/>
      <point x="364" y="-142"/>
      <point x="384" y="-159"/>
      <point x="384" y="-182" type="curve" smooth="yes"/>
      <point x="384" y="-203"/>
      <point x="375" y="-222"/>
      <point x="356" y="-238" type="curve" smooth="yes"/>
      <point x="319" y="-270"/>
      <point x="276" y="-311"/>
      <point x="276" y="-374" type="curve" smooth="yes"/>
      <point x="276" y="-440"/>
      <point x="326" y="-476"/>
    </contour>
  </outline>
</glyph>
<glyph name="jha_mon" format="2">
  <advance width="915"/>
  <unicode hex="105B"/>
  <note>
jha_mon
</note>
  <outline>
    <contour>
      <point x="333" y="-10" type="curve" smooth="yes"/>
      <point x="420" y="-10"/>
      <point x="464" y="6"/>
      <point x="527" y="57" type="curve"/>
      <point x="441" y="153" type="line"/>
      <point x="409" y="127"/>
      <point x="377" y="110"/>
      <point x="338" y="110" type="curve" smooth="yes"/>
      <point x="250" y="110"/>
      <point x="197" y="173"/>
      <point x="197" y="273" type="curve" smooth="yes"/>
      <point x="197" y="370"/>
      <point x="251" y="436"/>
      <point x="332" y="436" type="curve" smooth="yes"/>
      <point x="351" y="436"/>
      <point x="370" y="436"/>
      <point x="389" y="436" type="curve"/>
      <point x="377" y="466" type="line"/>
      <point x="339" y="442"/>
      <point x="320" y="406"/>
      <point x="320" y="358" type="curve" smooth="yes"/>
      <point x="320" y="280"/>
      <point x="372" y="234"/>
      <point x="449" y="234" type="curve" smooth="yes"/>
      <point x="482" y="234"/>
      <point x="505" y="239"/>
      <point x="508" y="259" type="curve"/>
      <point x="485" y="273" type="line"/>
      <point x="485" y="196"/>
      <point x="509" y="146"/>
      <point x="604" y="146" type="curve" smooth="yes"/>
      <point x="670" y="146" type="line"/>
      <point x="670" y="264" type="line"/>
      <point x="644" y="264" type="line" smooth="yes"/>
      <point x="601" y="264"/>
      <point x="579" y="275"/>
      <point x="579" y="310" type="curve" smooth="yes"/>
      <point x="579" y="328"/>
      <point x="582" y="338"/>
      <point x="582" y="368" type="curve" smooth="yes"/>
      <point x="582" y="473"/>
      <point x="460" y="556"/>
      <point x="333" y="556" type="curve" smooth="yes"/>
      <point x="161" y="556"/>
      <point x="45" y="442"/>
      <point x="45" y="273" type="curve" smooth="yes"/>
      <point x="45" y="104"/>
      <point x="164" y="-10"/>
    </contour>
    <contour>
      <point x="570" y="-476" type="curve" smooth="yes"/>
      <point x="716" y="-476"/>
      <point x="805" y="-374"/>
      <point x="805" y="-214" type="curve" smooth="yes"/>
      <point x="805" y="547" type="line"/>
      <point x="654" y="547" type="line"/>
      <point x="654" y="-188" type="line" smooth="yes"/>
      <point x="654" y="-301"/>
      <point x="630" y="-349"/>
      <point x="573" y="-349" type="curve" smooth="yes"/>
      <point x="506" y="-349"/>
      <point x="491" y="-282"/>
      <point x="491" y="-189" type="curve" smooth="yes"/>
      <point x="491" y="45" type="line"/>
      <point x="340" y="6" type="line"/>
      <point x="340" y="-212" type="line" smooth="yes"/>
      <point x="340" y="-376"/>
      <point x="427" y="-476"/>
    </contour>
    <contour>
      <point x="446" y="313" type="curve" smooth="yes"/>
      <point x="415" y="313"/>
      <point x="399" y="331"/>
      <point x="399" y="360" type="curve" smooth="yes"/>
      <point x="399" y="389"/>
      <point x="419" y="407"/>
      <point x="446" y="407" type="curve" smooth="yes"/>
      <point x="473" y="407"/>
      <point x="493" y="389"/>
      <point x="493" y="360" type="curve" smooth="yes"/>
      <point x="493" y="331"/>
      <point x="473" y="313"/>
    </contour>
  </outline>
</glyph>
<glyph name="bba_mon" format="2">
  <advance width="685"/>
  <unicode hex="105C"/>
  <note>
bba_mon
</note>
  <outline>
    <contour>
      <point x="343" y="-10" type="curve" smooth="yes"/>
      <point x="528" y="-10"/>
      <point x="653" y="106"/>
      <point x="653" y="272" type="curve" smooth="yes"/>
      <point x="653" y="435"/>
      <point x="531" y="556"/>
      <point x="343" y="556" type="curve" smooth="yes"/>
      <point x="155" y="556"/>
      <point x="31" y="438"/>
      <point x="31" y="273" type="curve" smooth="yes"/>
      <point x="31" y="107"/>
      <point x="156" y="-10"/>
    </contour>
    <contour>
      <point x="342" y="100" type="curve" smooth="yes"/>
      <point x="225" y="100"/>
      <point x="156" y="174"/>
      <point x="156" y="273" type="curve" smooth="yes"/>
      <point x="156" y="371"/>
      <point x="228" y="445"/>
      <point x="342" y="445" type="curve" smooth="yes"/>
      <point x="456" y="445"/>
      <point x="528" y="373"/>
      <point x="528" y="272" type="curve" smooth="yes"/>
      <point x="528" y="175"/>
      <point x="460" y="100"/>
    </contour>
    <contour>
      <point x="341" y="157" type="curve" smooth="yes"/>
      <point x="412" y="157"/>
      <point x="463" y="199"/>
      <point x="463" y="274" type="curve" smooth="yes"/>
      <point x="463" y="346"/>
      <point x="410" y="390"/>
      <point x="341" y="390" type="curve" smooth="yes"/>
      <point x="271" y="390"/>
      <point x="222" y="347"/>
      <point x="222" y="273" type="curve" smooth="yes"/>
      <point x="222" y="199"/>
      <point x="271" y="157"/>
    </contour>
    <contour>
      <point x="343" y="230" type="curve" smooth="yes"/>
      <point x="316" y="230"/>
      <point x="302" y="246"/>
      <point x="302" y="273" type="curve" smooth="yes"/>
      <point x="302" y="300"/>
      <point x="320" y="317"/>
      <point x="343" y="317" type="curve" smooth="yes"/>
      <point x="366" y="317"/>
      <point x="383" y="300"/>
      <point x="383" y="273" type="curve" smooth="yes"/>
      <point x="383" y="246"/>
      <point x="366" y="230"/>
    </contour>
  </outline>
</glyph>
<glyph name="bbe_mon" format="2">
  <advance width="665"/>
  <unicode hex="105D"/>
  <note>
bbe_mon
</note>
  <outline>
    <contour>
      <point x="259" y="-466" type="curve" smooth="yes"/>
      <point x="372" y="-466" type="line" smooth="yes"/>
      <point x="517" y="-466"/>
      <point x="589" y="-394"/>
      <point x="589" y="-251" type="curve" smooth="yes"/>
      <point x="589" y="149" type="line"/>
      <point x="440" y="22" type="line"/>
      <point x="440" y="-261" type="line" smooth="yes"/>
      <point x="440" y="-312"/>
      <point x="420" y="-341"/>
      <point x="376" y="-341" type="curve" smooth="yes"/>
      <point x="257" y="-341" type="line" smooth="yes"/>
      <point x="228" y="-341"/>
      <point x="196" y="-332"/>
      <point x="196" y="-302" type="curve" smooth="yes"/>
      <point x="196" y="-284"/>
      <point x="209" y="-269"/>
      <point x="242" y="-269" type="curve" smooth="yes"/>
      <point x="264" y="-269"/>
      <point x="284" y="-277"/>
      <point x="304" y="-289" type="curve"/>
      <point x="372" y="-187" type="line"/>
      <point x="333" y="-161"/>
      <point x="288" y="-143"/>
      <point x="215" y="-143" type="curve" smooth="yes"/>
      <point x="121" y="-143"/>
      <point x="45" y="-207"/>
      <point x="45" y="-301" type="curve" smooth="yes"/>
      <point x="45" y="-409"/>
      <point x="124" y="-466"/>
    </contour>
    <contour>
      <point x="205" y="160" type="line"/>
      <point x="241" y="180"/>
      <point x="278" y="196"/>
      <point x="333" y="196" type="curve" smooth="yes"/>
      <point x="389" y="196"/>
      <point x="423" y="183"/>
      <point x="462" y="162" type="curve"/>
      <point x="494" y="245" type="line"/>
      <point x="442" y="278"/>
      <point x="395" y="295"/>
      <point x="337" y="295" type="curve" smooth="yes"/>
      <point x="269" y="295"/>
      <point x="218" y="272"/>
      <point x="173" y="245" type="curve"/>
    </contour>
    <contour>
      <point x="335" y="-10" type="curve" smooth="yes"/>
      <point x="510" y="-10"/>
      <point x="620" y="105"/>
      <point x="620" y="273" type="curve" smooth="yes"/>
      <point x="620" y="410"/>
      <point x="558" y="507"/>
      <point x="472" y="556" type="curve"/>
      <point x="397" y="436" type="line"/>
      <point x="456" y="386"/>
      <point x="475" y="333"/>
      <point x="475" y="273" type="curve" smooth="yes"/>
      <point x="475" y="155"/>
      <point x="421" y="103"/>
      <point x="333" y="103" type="curve" smooth="yes"/>
      <point x="242" y="103"/>
      <point x="190" y="161"/>
      <point x="190" y="273" type="curve" smooth="yes"/>
      <point x="190" y="336"/>
      <point x="210" y="386"/>
      <point x="268" y="436" type="curve"/>
      <point x="193" y="556" type="line"/>
      <point x="107" y="507"/>
      <point x="45" y="410"/>
      <point x="45" y="273" type="curve" smooth="yes"/>
      <point x="45" y="104"/>
      <point x="158" y="-10"/>
    </contour>
  </outline>
</glyph>
<glyph name="_medialNa_mon" format="2">
  <unicode hex="105E"/>
  <note>
_medialNa_mon
</note>
  <outline>
    <contour>
      <point x="-407" y="-476" type="curve" smooth="yes"/>
      <point x="-286" y="-476"/>
      <point x="-234" y="-418"/>
      <point x="-234" y="-311" type="curve" smooth="yes"/>
      <point x="-234" y="-47" type="line"/>
      <point x="-363" y="-47" type="line"/>
      <point x="-363" y="-320" type="line" smooth="yes"/>
      <point x="-363" y="-358"/>
      <point x="-378" y="-377"/>
      <point x="-408" y="-377" type="curve" smooth="yes"/>
      <point x="-429" y="-377"/>
      <point x="-452" y="-364"/>
      <point x="-452" y="-333" type="curve" smooth="yes"/>
      <point x="-452" y="-293"/>
      <point x="-415" y="-262"/>
      <point x="-330" y="-262" type="curve" smooth="yes"/>
      <point x="-243" y="-262"/>
      <point x="-206" y="-287"/>
      <point x="-139" y="-331" type="curve"/>
      <point x="-77" y="-243" type="line"/>
      <point x="-164" y="-190"/>
      <point x="-233" y="-164"/>
      <point x="-333" y="-164" type="curve" smooth="yes"/>
      <point x="-492" y="-164"/>
      <point x="-580" y="-232"/>
      <point x="-580" y="-329" type="curve" smooth="yes"/>
      <point x="-580" y="-423"/>
      <point x="-515" y="-476"/>
    </contour>
  </outline>
</glyph>
<glyph name="_medialMa_mon" format="2">
  <unicode hex="105F"/>
  <note>
_medialMa_mon
</note>
  <outline>
    <contour>
      <point x="-335" y="-476" type="curve" smooth="yes"/>
      <point x="-246" y="-476"/>
      <point x="-145" y="-446"/>
      <point x="-75" y="-397" type="curve"/>
      <point x="-137" y="-308" type="line"/>
      <point x="-184" y="-343"/>
      <point x="-265" y="-377"/>
      <point x="-327" y="-377" type="curve" smooth="yes"/>
      <point x="-398" y="-377"/>
      <point x="-433" y="-358"/>
      <point x="-433" y="-321" type="curve" smooth="yes"/>
      <point x="-433" y="-286"/>
      <point x="-407" y="-262"/>
      <point x="-348" y="-262" type="curve" smooth="yes"/>
      <point x="-316" y="-262"/>
      <point x="-283" y="-266"/>
      <point x="-250" y="-274" type="curve"/>
      <point x="-250" y="-47" type="line"/>
      <point x="-379" y="-47" type="line"/>
      <point x="-379" y="-164" type="line"/>
      <point x="-496" y="-171"/>
      <point x="-561" y="-232"/>
      <point x="-561" y="-316" type="curve" smooth="yes"/>
      <point x="-561" y="-423"/>
      <point x="-488" y="-476"/>
    </contour>
  </outline>
</glyph>
<glyph name="_medialLa_mon" format="2">
  <unicode hex="1060"/>
  <note>
_medialLa_mon
</note>
  <outline>
    <contour>
      <point x="-564" y="-466" type="line"/>
      <point x="-131" y="-466" type="line"/>
      <point x="-131" y="-346" type="line"/>
      <point x="-323" y="-346" type="line"/>
      <point x="-155" y="-47" type="line"/>
      <point x="-328" y="-47" type="line"/>
    </contour>
  </outline>
</glyph>
<glyph name="sha_skn" format="2">
  <advance width="738"/>
  <unicode hex="1061"/>
  <note>
sha_skn
</note>
  <outline>
    <contour>
      <point x="511" y="-466" type="line"/>
      <point x="660" y="-466" type="line"/>
      <point x="660" y="252" type="line" smooth="yes"/>
      <point x="660" y="434"/>
      <point x="541" y="556"/>
      <point x="353" y="556" type="curve" smooth="yes"/>
      <point x="170" y="556"/>
      <point x="45" y="440"/>
      <point x="45" y="273" type="curve" smooth="yes"/>
      <point x="45" y="81"/>
      <point x="193" y="-7"/>
      <point x="305" y="-7" type="curve" smooth="yes"/>
      <point x="342" y="-7"/>
      <point x="388" y="-4"/>
      <point x="439" y="6" type="curve"/>
      <point x="439" y="199"/>
      <point x="368" y="309"/>
      <point x="156" y="348" type="curve"/>
      <point x="144" y="258" type="line"/>
      <point x="260" y="246"/>
      <point x="334" y="175"/>
      <point x="350" y="60" type="curve"/>
      <point x="384" y="108" type="line"/>
      <point x="368" y="108"/>
      <point x="352" y="108"/>
      <point x="336" y="108" type="curve" smooth="yes"/>
      <point x="234" y="108"/>
      <point x="161" y="174"/>
      <point x="161" y="273" type="curve" smooth="yes"/>
      <point x="161" y="358"/>
      <point x="223" y="436"/>
      <point x="338" y="436" type="curve" smooth="yes"/>
      <point x="455" y="436"/>
      <point x="511" y="361"/>
      <point x="511" y="240" type="curve" smooth="yes"/>
    </contour>
    <contour>
      <point x="179" y="-466" type="line"/>
      <point x="439" y="-466" type="line"/>
      <point x="439" y="9" type="line"/>
      <point x="290" y="9" type="line"/>
      <point x="290" y="-346" type="line"/>
      <point x="179" y="-346" type="line"/>
    </contour>
  </outline>
</glyph>
<glyph name="eu_skn" format="2">
  <advance width="339"/>
  <unicode hex="1062"/>
  <note>
eu_skn
</note>
  <outline>
    <contour>
      <point x="112" y="0" type="line"/>
      <point x="261" y="0" type="line"/>
      <point x="261" y="546" type="line"/>
      <point x="0" y="546" type="line"/>
      <point x="0" y="426" type="line"/>
      <point x="112" y="426" type="line"/>
    </contour>
  </outline>
</glyph>
<glyph name="hathi_skn" format="2">
  <advance width="660"/>
  <unicode hex="1063"/>
  <note>
hathi_skn
</note>
  <outline>
    <contour>
      <point x="78" y="-466" type="line"/>
      <point x="228" y="-466" type="line"/>
      <point x="228" y="45" type="line"/>
      <point x="78" y="131" type="line"/>
    </contour>
    <contour>
      <point x="349" y="-9" type="curve" smooth="yes"/>
      <point x="514" y="-9"/>
      <point x="615" y="115"/>
      <point x="615" y="274" type="curve" smooth="yes"/>
      <point x="615" y="440"/>
      <point x="498" y="557"/>
      <point x="327" y="557" type="curve" smooth="yes"/>
      <point x="211" y="557"/>
      <point x="122" y="503"/>
      <point x="89" y="426" type="curve"/>
      <point x="194" y="361" type="line"/>
      <point x="221" y="412"/>
      <point x="268" y="437"/>
      <point x="328" y="437" type="curve" smooth="yes"/>
      <point x="410" y="437"/>
      <point x="463" y="372"/>
      <point x="463" y="274" type="curve" smooth="yes"/>
      <point x="463" y="178"/>
      <point x="411" y="111"/>
      <point x="318" y="111" type="curve" smooth="yes"/>
      <point x="262" y="111"/>
      <point x="216" y="139"/>
      <point x="192" y="192" type="curve"/>
      <point x="78" y="131" type="line"/>
      <point x="191" y="18"/>
      <point x="247" y="-9"/>
    </contour>
  </outline>
</glyph>
<glyph name="kepho_skn" format="2">
  <advance width="424"/>
  <unicode hex="1064"/>
  <note>
kepho_skn
</note>
  <outline>
    <contour>
      <point x="138" y="0" type="line"/>
      <point x="398" y="0" type="line"/>
      <point x="398" y="121" type="line"/>
      <point x="287" y="121" type="line"/>
      <point x="287" y="546" type="line"/>
      <point x="26" y="546" type="line"/>
      <point x="26" y="426" type="line"/>
      <point x="138" y="426" type="line"/>
    </contour>
  </outline>
</glyph>
<glyph name="tha_wpk" format="2">
  <advance width="698"/>
  <unicode hex="1065"/>
  <note>
tha_wpk
</note>
  <outline>
    <contour>
      <point x="346" y="-10" type="curve" smooth="yes"/>
      <point x="526" y="-10"/>
      <point x="653" y="104"/>
      <point x="653" y="273" type="curve" smooth="yes"/>
      <point x="653" y="441"/>
      <point x="526" y="556"/>
      <point x="346" y="556" type="curve" smooth="yes"/>
      <point x="235" y="556"/>
      <point x="135" y="505"/>
      <point x="94" y="424" type="curve"/>
      <point x="198" y="360" type="line"/>
      <point x="243" y="418"/>
      <point x="290" y="436"/>
      <point x="349" y="436" type="curve" smooth="yes"/>
      <point x="438" y="436"/>
      <point x="501" y="371"/>
      <point x="501" y="273" type="curve" smooth="yes"/>
      <point x="501" y="173"/>
      <point x="438" y="110"/>
      <point x="338" y="110" type="curve" smooth="yes"/>
      <point x="279" y="110"/>
      <point x="231" y="138"/>
      <point x="196" y="191" type="curve"/>
      <point x="82" y="130" type="line"/>
      <point x="121" y="52"/>
      <point x="223" y="-10"/>
    </contour>
  </outline>
</glyph>
<glyph name="pwa_wpk" format="2">
  <advance width="665"/>
  <unicode hex="1066"/>
  <note>
pwa_wpk
</note>
  <outline>
    <contour>
      <point x="336" y="-10" type="curve" smooth="yes"/>
      <point x="510" y="-10"/>
      <point x="620" y="105"/>
      <point x="620" y="273" type="curve" smooth="yes"/>
      <point x="620" y="410"/>
      <point x="561" y="507"/>
      <point x="480" y="556" type="curve"/>
      <point x="405" y="436" type="line"/>
      <point x="453" y="386"/>
      <point x="468" y="333"/>
      <point x="468" y="273" type="curve" smooth="yes"/>
      <point x="468" y="174"/>
      <point x="413" y="110"/>
      <point x="335" y="110" type="curve" smooth="yes"/>
      <point x="252" y="110"/>
      <point x="197" y="177"/>
      <point x="197" y="273" type="curve" smooth="yes"/>
      <point x="197" y="336"/>
      <point x="213" y="386"/>
      <point x="260" y="436" type="curve"/>
      <point x="185" y="556" type="line"/>
      <point x="104" y="507"/>
      <point x="45" y="410"/>
      <point x="45" y="273" type="curve" smooth="yes"/>
      <point x="45" y="104"/>
      <point x="159" y="-10"/>
    </contour>
    <contour>
      <point x="155" y="-466" type="line"/>
      <point x="415" y="-466" type="line"/>
      <point x="415" y="16" type="line"/>
      <point x="266" y="12" type="line"/>
      <point x="266" y="-346" type="line"/>
      <point x="155" y="-346" type="line"/>
    </contour>
  </outline>
</glyph>
<glyph name="eu_wpk" format="2">
  <advance width="445"/>
  <unicode hex="1067"/>
  <note>
eu_wpk
</note>
  <outline>
    <contour>
      <point x="196" y="-10" type="curve" smooth="yes"/>
      <point x="299" y="-10"/>
      <point x="367" y="46"/>
      <point x="367" y="148" type="curve" smooth="yes"/>
      <point x="367" y="246"/>
      <point x="299" y="304"/>
      <point x="196" y="304" type="curve" smooth="yes"/>
      <point x="94" y="304"/>
      <point x="26" y="246"/>
      <point x="26" y="148" type="curve" smooth="yes"/>
      <point x="26" y="46"/>
      <point x="94" y="-10"/>
    </contour>
    <contour>
      <point x="196" y="92" type="curve" smooth="yes"/>
      <point x="162" y="92"/>
      <point x="144" y="115"/>
      <point x="144" y="148" type="curve" smooth="yes"/>
      <point x="144" y="183"/>
      <point x="166" y="201"/>
      <point x="196" y="201" type="curve" smooth="yes"/>
      <point x="227" y="201"/>
      <point x="249" y="183"/>
      <point x="249" y="148" type="curve" smooth="yes"/>
      <point x="249" y="115"/>
      <point x="231" y="92"/>
    </contour>
    <contour>
      <point x="367" y="148" type="line"/>
      <point x="367" y="546" type="line"/>
      <point x="228" y="546" type="line"/>
      <point x="228" y="302" type="line"/>
    </contour>
  </outline>
</glyph>
<glyph name="ue_wpk" format="2">
  <advance width="401"/>
  <unicode hex="1068"/>
  <note>
ue_wpk
</note>
  <outline>
    <contour>
      <point x="26" y="0" type="line"/>
      <point x="287" y="0" type="line"/>
      <point x="287" y="546" type="line"/>
      <point x="138" y="546" type="line"/>
      <point x="138" y="121" type="line"/>
      <point x="26" y="121" type="line"/>
    </contour>
    <contour>
      <point x="207" y="639" type="curve" smooth="yes"/>
      <point x="283" y="639"/>
      <point x="337" y="682"/>
      <point x="337" y="759" type="curve" smooth="yes"/>
      <point x="337" y="827"/>
      <point x="285" y="876"/>
      <point x="207" y="876" type="curve" smooth="yes"/>
      <point x="129" y="876"/>
      <point x="80" y="831"/>
      <point x="80" y="758" type="curve" smooth="yes"/>
      <point x="80" y="682"/>
      <point x="131" y="639"/>
    </contour>
    <contour>
      <point x="209" y="716" type="curve" smooth="yes"/>
      <point x="182" y="716"/>
      <point x="169" y="732"/>
      <point x="169" y="758" type="curve" smooth="yes"/>
      <point x="169" y="785"/>
      <point x="186" y="798"/>
      <point x="209" y="798" type="curve" smooth="yes"/>
      <point x="232" y="798"/>
      <point x="249" y="785"/>
      <point x="249" y="758" type="curve" smooth="yes"/>
      <point x="249" y="732"/>
      <point x="232" y="716"/>
    </contour>
  </outline>
</glyph>
<glyph name="tone1_wpk" format="2">
  <advance width="458"/>
  <unicode hex="1069"/>
  <note>
tone1_wpk
</note>
  <outline>
    <contour>
      <point x="219" y="-10" type="curve" smooth="yes"/>
      <point x="297" y="-10"/>
      <point x="355" y="15"/>
      <point x="415" y="84" type="curve"/>
      <point x="337" y="162" type="line"/>
      <point x="318" y="137"/>
      <point x="266" y="111"/>
      <point x="237" y="111" type="curve" smooth="yes"/>
      <point x="211" y="111"/>
      <point x="194" y="124"/>
      <point x="194" y="151" type="curve" smooth="yes"/>
      <point x="194" y="173"/>
      <point x="208" y="192"/>
      <point x="237" y="209" type="curve" smooth="yes"/>
      <point x="369" y="287"/>
      <point x="398" y="328"/>
      <point x="398" y="407" type="curve" smooth="yes"/>
      <point x="398" y="497"/>
      <point x="333" y="556"/>
      <point x="228" y="556" type="curve" smooth="yes"/>
      <point x="148" y="556"/>
      <point x="99" y="528"/>
      <point x="50" y="485" type="curve"/>
      <point x="121" y="399" type="line"/>
      <point x="150" y="422"/>
      <point x="178" y="434"/>
      <point x="207" y="434" type="curve" smooth="yes"/>
      <point x="233" y="434"/>
      <point x="246" y="424"/>
      <point x="246" y="403" type="curve" smooth="yes"/>
      <point x="246" y="385"/>
      <point x="238" y="371"/>
      <point x="194" y="342" type="curve" smooth="yes"/>
      <point x="68" y="258"/>
      <point x="43" y="213"/>
      <point x="43" y="137" type="curve" smooth="yes"/>
      <point x="43" y="56"/>
      <point x="116" y="-10"/>
    </contour>
  </outline>
</glyph>
<glyph name="tone2_wpk" format="2">
  <advance width="454"/>
  <unicode hex="106A"/>
  <note>
tone2_wpk
</note>
  <outline>
    <contour>
      <point x="199" y="-10" type="curve" smooth="yes"/>
      <point x="320" y="-10"/>
      <point x="376" y="57"/>
      <point x="376" y="168" type="curve" smooth="yes"/>
      <point x="376" y="546" type="line"/>
      <point x="236" y="546" type="line"/>
      <point x="236" y="173" type="line" smooth="yes"/>
      <point x="236" y="142"/>
      <point x="224" y="114"/>
      <point x="198" y="114" type="curve" smooth="yes"/>
      <point x="171" y="114"/>
      <point x="157" y="135"/>
      <point x="157" y="177" type="curve"/>
      <point x="17" y="177" type="line"/>
      <point x="17" y="58"/>
      <point x="79" y="-10"/>
    </contour>
  </outline>
</glyph>
<glyph name="tone4_wpk" format="2">
  <advance width="454"/>
  <unicode hex="106C"/>
  <note>
tone4_wpk
</note>
  <outline>
    <contour>
      <point x="255" y="-10" type="curve" smooth="yes"/>
      <point x="375" y="-10"/>
      <point x="437" y="58"/>
      <point x="437" y="177" type="curve"/>
      <point x="297" y="177" type="line"/>
      <point x="297" y="135"/>
      <point x="283" y="114"/>
      <point x="256" y="114" type="curve" smooth="yes"/>
      <point x="229" y="114"/>
      <point x="218" y="142"/>
      <point x="218" y="173" type="curve" smooth="yes"/>
      <point x="218" y="546" type="line"/>
      <point x="78" y="546" type="line"/>
      <point x="78" y="168" type="line" smooth="yes"/>
      <point x="78" y="57"/>
      <point x="134" y="-10"/>
    </contour>
  </outline>
</glyph>
<glyph name="tone5_wpk" format="2">
  <advance width="458"/>
  <unicode hex="106D"/>
  <note>
tone5_wpk
</note>
  <outline>
    <contour>
      <point x="239" y="-10" type="curve" smooth="yes"/>
      <point x="342" y="-10"/>
      <point x="415" y="56"/>
      <point x="415" y="137" type="curve" smooth="yes"/>
      <point x="415" y="213"/>
      <point x="390" y="258"/>
      <point x="264" y="342" type="curve" smooth="yes"/>
      <point x="220" y="371"/>
      <point x="212" y="385"/>
      <point x="212" y="403" type="curve" smooth="yes"/>
      <point x="212" y="424"/>
      <point x="225" y="434"/>
      <point x="251" y="434" type="curve" smooth="yes"/>
      <point x="280" y="434"/>
      <point x="308" y="422"/>
      <point x="337" y="399" type="curve"/>
      <point x="408" y="485" type="line"/>
      <point x="359" y="528"/>
      <point x="310" y="556"/>
      <point x="230" y="556" type="curve" smooth="yes"/>
      <point x="125" y="556"/>
      <point x="60" y="497"/>
      <point x="60" y="407" type="curve" smooth="yes"/>
      <point x="60" y="328"/>
      <point x="89" y="287"/>
      <point x="221" y="209" type="curve" smooth="yes"/>
      <point x="250" y="192"/>
      <point x="264" y="173"/>
      <point x="264" y="151" type="curve" smooth="yes"/>
      <point x="264" y="124"/>
      <point x="247" y="111"/>
      <point x="221" y="111" type="curve" smooth="yes"/>
      <point x="192" y="111"/>
      <point x="140" y="137"/>
      <point x="121" y="162" type="curve"/>
      <point x="43" y="84" type="line"/>
      <point x="103" y="15"/>
      <point x="161" y="-10"/>
    </contour>
  </outline>
</glyph>
<glyph name="nna_epk" format="2">
  <advance width="1352"/>
  <unicode hex="106E"/>
  <note>
nna_epk
</note>
  <outline>
    <contour>
      <point x="185" y="-10" type="curve"/>
      <point x="260" y="110" type="line"/>
      <point x="212" y="161"/>
      <point x="197" y="210"/>
      <point x="197" y="273" type="curve" smooth="yes"/>
      <point x="197" y="370"/>
      <point x="251" y="436"/>
      <point x="332" y="436" type="curve" smooth="yes"/>
      <point x="413" y="436"/>
      <point x="468" y="372"/>
      <point x="468" y="273" type="curve" smooth="yes"/>
      <point x="468" y="214"/>
      <point x="453" y="161"/>
      <point x="405" y="110" type="curve"/>
      <point x="480" y="-10" type="line"/>
      <point x="562" y="39"/>
      <point x="620" y="136"/>
      <point x="620" y="273" type="curve" smooth="yes"/>
      <point x="620" y="439"/>
      <point x="506" y="556"/>
      <point x="333" y="556" type="curve" smooth="yes"/>
      <point x="159" y="556"/>
      <point x="45" y="443"/>
      <point x="45" y="273" type="curve" smooth="yes"/>
      <point x="45" y="136"/>
      <point x="104" y="39"/>
    </contour>
    <contour>
      <point x="740" y="-10" type="line"/>
      <point x="831" y="43"/>
      <point x="880" y="142"/>
      <point x="880" y="273" type="curve" smooth="yes"/>
      <point x="880" y="440"/>
      <point x="776" y="556"/>
      <point x="602" y="556" type="curve" smooth="yes"/>
      <point x="558" y="556"/>
      <point x="506" y="542"/>
      <point x="464" y="516" type="curve"/>
      <point x="561" y="429" type="line"/>
      <point x="576" y="434"/>
      <point x="592" y="436"/>
      <point x="607" y="436" type="curve" smooth="yes"/>
      <point x="689" y="436"/>
      <point x="743" y="370"/>
      <point x="743" y="273" type="curve" smooth="yes"/>
      <point x="743" y="213"/>
      <point x="724" y="156"/>
      <point x="665" y="110" type="curve"/>
    </contour>
    <contour>
      <point x="1052" y="-10" type="curve" smooth="yes"/>
      <point x="1194" y="-10"/>
      <point x="1307" y="107"/>
      <point x="1307" y="273" type="curve" smooth="yes"/>
      <point x="1307" y="441"/>
      <point x="1189" y="556"/>
      <point x="1020" y="556" type="curve" smooth="yes"/>
      <point x="932" y="556"/>
      <point x="854" y="523"/>
      <point x="805" y="455" type="curve"/>
      <point x="868" y="328" type="line"/>
      <point x="891" y="385"/>
      <point x="936" y="436"/>
      <point x="1012" y="436" type="curve" smooth="yes"/>
      <point x="1096" y="436"/>
      <point x="1155" y="375"/>
      <point x="1155" y="273" type="curve" smooth="yes"/>
      <point x="1155" y="177"/>
      <point x="1108" y="117"/>
      <point x="1036" y="117" type="curve" smooth="yes"/>
      <point x="1005" y="117"/>
      <point x="988" y="124"/>
      <point x="965" y="133" type="curve"/>
      <point x="914" y="22" type="line"/>
      <point x="949" y="-1"/>
      <point x="1005" y="-10"/>
    </contour>
  </outline>
</glyph>
<glyph name="ywa_epk" format="2">
  <advance width="1092"/>
  <unicode hex="106F"/>
  <note>
ywa_epk
</note>
  <outline>
    <contour>
      <point x="333" y="-10" type="curve" smooth="yes"/>
      <point x="509" y="-10"/>
      <point x="620" y="105"/>
      <point x="620" y="273" type="curve" smooth="yes"/>
      <point x="620" y="382"/>
      <point x="571" y="503"/>
      <point x="480" y="556" type="curve"/>
      <point x="405" y="436" type="line"/>
      <point x="448" y="389"/>
      <point x="468" y="345"/>
      <point x="468" y="273" type="curve" smooth="yes"/>
      <point x="468" y="174"/>
      <point x="412" y="110"/>
      <point x="332" y="110" type="curve" smooth="yes"/>
      <point x="252" y="110"/>
      <point x="197" y="177"/>
      <point x="197" y="273" type="curve" smooth="yes"/>
      <point x="197" y="345"/>
      <point x="219" y="393"/>
      <point x="260" y="436" type="curve"/>
      <point x="185" y="556" type="line"/>
      <point x="104" y="507"/>
      <point x="45" y="410"/>
      <point x="45" y="273" type="curve" smooth="yes"/>
      <point x="45" y="104"/>
      <point x="157" y="-10"/>
    </contour>
    <contour>
      <point x="632" y="-466" type="line"/>
      <point x="892" y="-466" type="line"/>
      <point x="892" y="26" type="line"/>
      <point x="743" y="9" type="line"/>
      <point x="743" y="-346" type="line"/>
      <point x="632" y="-346" type="line"/>
    </contour>
    <contour>
      <point x="783" y="-9" type="curve" smooth="yes"/>
      <point x="972" y="-9"/>
      <point x="1047" y="140"/>
      <point x="1047" y="273" type="curve" smooth="yes"/>
      <point x="1047" y="439"/>
      <point x="931" y="556"/>
      <point x="760" y="556" type="curve" smooth="yes"/>
      <point x="667" y="556"/>
      <point x="589" y="519"/>
      <point x="555" y="466" type="curve"/>
      <point x="608" y="327" type="line"/>
      <point x="631" y="387"/>
      <point x="677" y="436"/>
      <point x="752" y="436" type="curve" smooth="yes"/>
      <point x="838" y="436"/>
      <point x="895" y="372"/>
      <point x="895" y="273" type="curve" smooth="yes"/>
      <point x="895" y="181"/>
      <point x="851" y="117"/>
      <point x="776" y="117" type="curve" smooth="yes"/>
      <point x="745" y="117"/>
      <point x="730" y="123"/>
      <point x="705" y="133" type="curve"/>
      <point x="654" y="22" type="line"/>
      <point x="683" y="4"/>
      <point x="719" y="-9"/>
    </contour>
  </outline>
</glyph>
<glyph name="ghwa_epk" format="2">
  <advance width="1077"/>
  <unicode hex="1070"/>
  <note>
ghwa_epk
</note>
  <outline>
    <contour>
      <point x="318" y="-10" type="curve" smooth="yes"/>
      <point x="488" y="-10"/>
      <point x="605" y="94"/>
      <point x="605" y="272" type="curve" smooth="yes"/>
      <point x="605" y="418"/>
      <point x="546" y="507"/>
      <point x="465" y="556" type="curve"/>
      <point x="391" y="436" type="line"/>
      <point x="449" y="391"/>
      <point x="468" y="333"/>
      <point x="468" y="272" type="curve" smooth="yes"/>
      <point x="468" y="173"/>
      <point x="405" y="110"/>
      <point x="321" y="110" type="curve" smooth="yes"/>
      <point x="253" y="110"/>
      <point x="202" y="153"/>
      <point x="202" y="205" type="curve" smooth="yes"/>
      <point x="202" y="241"/>
      <point x="214" y="262"/>
      <point x="252" y="295" type="curve" smooth="yes"/>
      <point x="295" y="333"/>
      <point x="320" y="374"/>
      <point x="320" y="430" type="curve" smooth="yes"/>
      <point x="320" y="504"/>
      <point x="269" y="557"/>
      <point x="176" y="557" type="curve" smooth="yes"/>
      <point x="119" y="557"/>
      <point x="67" y="529"/>
      <point x="32" y="473" type="curve"/>
      <point x="107" y="396" type="line"/>
      <point x="121" y="411"/>
      <point x="140" y="426"/>
      <point x="158" y="426" type="curve" smooth="yes"/>
      <point x="174" y="426"/>
      <point x="181" y="420"/>
      <point x="181" y="409" type="curve" smooth="yes"/>
      <point x="181" y="387"/>
      <point x="158" y="377"/>
      <point x="121" y="343" type="curve" smooth="yes"/>
      <point x="78" y="303"/>
      <point x="51" y="258"/>
      <point x="51" y="196" type="curve" smooth="yes"/>
      <point x="51" y="71"/>
      <point x="162" y="-10"/>
    </contour>
    <contour>
      <point x="574" y="-466" type="line"/>
      <point x="834" y="-466" type="line"/>
      <point x="834" y="26" type="line"/>
      <point x="685" y="9" type="line"/>
      <point x="685" y="-346" type="line"/>
      <point x="574" y="-346" type="line"/>
    </contour>
    <contour>
      <point x="740" y="-10" type="curve" smooth="yes"/>
      <point x="921" y="-10"/>
      <point x="1032" y="98"/>
      <point x="1032" y="272" type="curve" smooth="yes"/>
      <point x="1032" y="456"/>
      <point x="937" y="556"/>
      <point x="771" y="556" type="curve" smooth="yes"/>
      <point x="733" y="556"/>
      <point x="671" y="544"/>
      <point x="640" y="524" type="curve"/>
      <point x="690" y="413" type="line"/>
      <point x="726" y="426"/>
      <point x="737" y="429"/>
      <point x="767" y="429" type="curve" smooth="yes"/>
      <point x="831" y="429"/>
      <point x="880" y="367"/>
      <point x="880" y="272" type="curve" smooth="yes"/>
      <point x="880" y="178"/>
      <point x="823" y="109"/>
      <point x="742" y="109" type="curve" smooth="yes"/>
      <point x="670" y="109"/>
      <point x="614" y="158"/>
      <point x="590" y="217" type="curve"/>
      <point x="529" y="88" type="line"/>
      <point x="566" y="37"/>
      <point x="636" y="-10"/>
    </contour>
  </outline>
</glyph>
<glyph name="i_gkn" format="2">
  <unicode hex="1071"/>
  <note>
i_gkn
</note>
  <outline>
    <contour>
      <point x="-152" y="690" type="curve" smooth="yes"/>
      <point x="-76" y="690"/>
      <point x="-22" y="732"/>
      <point x="-22" y="810" type="curve" smooth="yes"/>
      <point x="-22" y="878"/>
      <point x="-74" y="927"/>
      <point x="-152" y="927" type="curve" smooth="yes"/>
      <point x="-229" y="927"/>
      <point x="-279" y="881"/>
      <point x="-279" y="809" type="curve" smooth="yes"/>
      <point x="-279" y="733"/>
      <point x="-228" y="690"/>
    </contour>
    <contour>
      <point x="-150" y="767" type="curve" smooth="yes"/>
      <point x="-177" y="767"/>
      <point x="-190" y="784"/>
      <point x="-190" y="809" type="curve" smooth="yes"/>
      <point x="-190" y="836"/>
      <point x="-173" y="849"/>
      <point x="-150" y="849" type="curve" smooth="yes"/>
      <point x="-127" y="849"/>
      <point x="-110" y="836"/>
      <point x="-110" y="809" type="curve" smooth="yes"/>
      <point x="-110" y="784"/>
      <point x="-127" y="767"/>
    </contour>
    <contour>
      <point x="-484" y="690" type="curve" smooth="yes"/>
      <point x="-408" y="690"/>
      <point x="-354" y="732"/>
      <point x="-354" y="810" type="curve" smooth="yes"/>
      <point x="-354" y="878"/>
      <point x="-406" y="927"/>
      <point x="-484" y="927" type="curve" smooth="yes"/>
      <point x="-561" y="927"/>
      <point x="-611" y="881"/>
      <point x="-611" y="809" type="curve" smooth="yes"/>
      <point x="-611" y="733"/>
      <point x="-560" y="690"/>
    </contour>
    <contour>
      <point x="-482" y="767" type="curve" smooth="yes"/>
      <point x="-509" y="767"/>
      <point x="-522" y="784"/>
      <point x="-522" y="809" type="curve" smooth="yes"/>
      <point x="-522" y="836"/>
      <point x="-505" y="849"/>
      <point x="-482" y="849" type="curve" smooth="yes"/>
      <point x="-459" y="849"/>
      <point x="-442" y="836"/>
      <point x="-442" y="809" type="curve" smooth="yes"/>
      <point x="-442" y="784"/>
      <point x="-459" y="767"/>
    </contour>
  </outline>
</glyph>
<glyph name="oe_kyh" format="2">
  <unicode hex="1072"/>
  <note>
oe_kyh
</note>
  <outline>
    <contour>
      <point x="-306" y="625" type="curve" smooth="yes"/>
      <point x="-228" y="625"/>
      <point x="-164" y="662"/>
      <point x="-136" y="719" type="curve"/>
      <point x="-234" y="771" type="line"/>
      <point x="-244" y="753"/>
      <point x="-266" y="721"/>
      <point x="-307" y="721" type="curve" smooth="yes"/>
      <point x="-356" y="721"/>
      <point x="-382" y="763"/>
      <point x="-382" y="816" type="curve" smooth="yes"/>
      <point x="-382" y="869"/>
      <point x="-354" y="912"/>
      <point x="-307" y="912" type="curve" smooth="yes"/>
      <point x="-284" y="912"/>
      <point x="-263" y="906"/>
      <point x="-234" y="863" type="curve"/>
      <point x="-143" y="919" type="line"/>
      <point x="-167" y="972"/>
      <point x="-229" y="1007"/>
      <point x="-306" y="1007" type="curve" smooth="yes"/>
      <point x="-421" y="1007"/>
      <point x="-501" y="929"/>
      <point x="-501" y="816" type="curve" smooth="yes"/>
      <point x="-501" y="703"/>
      <point x="-421" y="625"/>
    </contour>
  </outline>
</glyph>
<glyph name="u_kyh" format="2">
  <unicode hex="1073"/>
  <note>
u_kyh
</note>
  <outline>
    <contour>
      <point x="-504" y="624" type="line"/>
      <point x="-292" y="830" type="line"/>
      <point x="-81" y="624" type="line"/>
      <point x="-7" y="707" type="line"/>
      <point x="-292" y="985" type="line"/>
      <point x="-577" y="707" type="line"/>
    </contour>
  </outline>
</glyph>
<glyph name="ee_kyh" format="2">
  <unicode hex="1074"/>
  <note>
ee_kyh
</note>
  <outline>
    <contour>
      <point x="-292" y="622" type="line"/>
      <point x="-7" y="901" type="line"/>
      <point x="-81" y="983" type="line"/>
      <point x="-293" y="777" type="line"/>
      <point x="-504" y="983" type="line"/>
      <point x="-577" y="901" type="line"/>
    </contour>
  </outline>
</glyph>
<glyph name="ka_shn" format="2">
  <advance width="703"/>
  <unicode hex="1075"/>
  <note>
ka_shn
</note>
  <outline>
    <contour>
      <point x="186" y="-10" type="curve" smooth="yes"/>
      <point x="278" y="-10"/>
      <point x="330" y="42"/>
      <point x="330" y="117" type="curve" smooth="yes"/>
      <point x="330" y="180"/>
      <point x="295" y="220"/>
      <point x="242" y="262" type="curve" smooth="yes"/>
      <point x="215" y="284"/>
      <point x="202" y="311"/>
      <point x="202" y="342" type="curve" smooth="yes"/>
      <point x="202" y="396"/>
      <point x="261" y="437"/>
      <point x="333" y="437" type="curve" smooth="yes"/>
      <point x="439" y="437"/>
      <point x="506" y="378"/>
      <point x="506" y="274" type="curve" smooth="yes"/>
      <point x="506" y="202"/>
      <point x="476" y="148"/>
      <point x="419" y="111" type="curve"/>
      <point x="494" y="-9" type="line"/>
      <point x="591" y="44"/>
      <point x="643" y="143"/>
      <point x="643" y="274" type="curve" smooth="yes"/>
      <point x="643" y="448"/>
      <point x="522" y="557"/>
      <point x="330" y="557" type="curve" smooth="yes"/>
      <point x="163" y="557"/>
      <point x="51" y="475"/>
      <point x="51" y="351" type="curve" smooth="yes"/>
      <point x="51" y="274"/>
      <point x="103" y="216"/>
      <point x="153" y="181" type="curve" smooth="yes"/>
      <point x="178" y="164"/>
      <point x="191" y="149"/>
      <point x="191" y="138" type="curve" smooth="yes"/>
      <point x="191" y="128"/>
      <point x="183" y="121"/>
      <point x="168" y="121" type="curve" smooth="yes"/>
      <point x="147" y="121"/>
      <point x="127" y="134"/>
      <point x="107" y="151" type="curve"/>
      <point x="32" y="74" type="line"/>
      <point x="69" y="18"/>
      <point x="118" y="-10"/>
    </contour>
  </outline>
</glyph>
<glyph name="kha_shn" format="2">
  <advance width="700"/>
  <unicode hex="1076"/>
  <note>
kha_shn
</note>
  <outline>
    <contour>
      <point x="332" y="-10" type="curve" smooth="yes"/>
      <point x="522" y="-10"/>
      <point x="655" y="93"/>
      <point x="655" y="273" type="curve" smooth="yes"/>
      <point x="655" y="432"/>
      <point x="563" y="556"/>
      <point x="402" y="556" type="curve" smooth="yes"/>
      <point x="324" y="556"/>
      <point x="293" y="537"/>
      <point x="219" y="463" type="curve" smooth="yes"/>
      <point x="203" y="447"/>
      <point x="188" y="430"/>
      <point x="164" y="430" type="curve" smooth="yes"/>
      <point x="151" y="430"/>
      <point x="140" y="438"/>
      <point x="140" y="454" type="curve" smooth="yes"/>
      <point x="140" y="466"/>
      <point x="147" y="480"/>
      <point x="161" y="495" type="curve"/>
      <point x="93" y="556" type="line"/>
      <point x="50" y="525"/>
      <point x="40" y="482"/>
      <point x="40" y="449" type="curve" smooth="yes"/>
      <point x="40" y="378"/>
      <point x="87" y="332"/>
      <point x="160" y="332" type="curve" smooth="yes"/>
      <point x="197" y="332"/>
      <point x="227" y="340"/>
      <point x="258" y="364" type="curve" smooth="yes"/>
      <point x="290" y="389"/>
      <point x="334" y="431"/>
      <point x="383" y="431" type="curve" smooth="yes"/>
      <point x="458" y="431"/>
      <point x="503" y="362"/>
      <point x="503" y="273" type="curve" smooth="yes"/>
      <point x="503" y="163"/>
      <point x="452" y="104"/>
      <point x="336" y="104" type="curve" smooth="yes"/>
      <point x="272" y="104"/>
      <point x="209" y="129"/>
      <point x="186" y="162" type="curve"/>
      <point x="238" y="184"/>
      <point x="293" y="196"/>
      <point x="344" y="196" type="curve" smooth="yes"/>
      <point x="394" y="196"/>
      <point x="442" y="179"/>
      <point x="491" y="155" type="curve"/>
      <point x="518" y="253" type="line"/>
      <point x="458" y="281"/>
      <point x="398" y="295"/>
      <point x="331" y="295" type="curve" smooth="yes"/>
      <point x="246" y="295"/>
      <point x="176" y="285"/>
      <point x="43" y="217" type="curve"/>
      <point x="63" y="79"/>
      <point x="176" y="-10"/>
    </contour>
  </outline>
</glyph>
